<?xml version="1.0" encoding="UTF-8" standalone="no"?>
<!-- Creator: CorelDRAW -->

<svg
   xml:space="preserve"
   width="400pt"
   height="400pt"
   style="clip-rule:evenodd;fill-rule:evenodd;image-rendering:optimizeQuality;shape-rendering:geometricPrecision;text-rendering:geometricPrecision"
   viewBox="0 0 400 400"
   version="1.1"
   id="svg832"
   sodipodi:docname="fresh_print_logo_is.svg"
   inkscape:version="1.1.1 (c3084ef, 2021-09-22)"
   xmlns:inkscape="http://www.inkscape.org/namespaces/inkscape"
   xmlns:sodipodi="http://sodipodi.sourceforge.net/DTD/sodipodi-0.dtd"
   xmlns="http://www.w3.org/2000/svg"
   xmlns:svg="http://www.w3.org/2000/svg"><sodipodi:namedview
   id="namedview834"
   pagecolor="#505050"
   bordercolor="#ffffff"
   borderopacity="1"
   inkscape:pageshadow="0"
   inkscape:pageopacity="0"
   inkscape:pagecheckerboard="1"
   inkscape:document-units="pt"
   showgrid="false"
   units="pt"
   viewbox-height="400"
   inkscape:zoom="0.55678311"
   inkscape:cx="374.47257"
   inkscape:cy="554.07572"
   inkscape:window-width="1312"
   inkscape:window-height="847"
   inkscape:window-x="1802"
   inkscape:window-y="25"
   inkscape:window-maximized="0"
   inkscape:current-layer="Layer_x0020_1" />
 <defs
   id="defs826">
  <style
   type="text/css"
   id="style824">
   <![CDATA[
    .fil0 {fill:#6D6E72}
   ]]>
  </style>
 </defs>
 <g
   id="Layer_x0020_1"
   inkscape:label="Layer 1"
   inkscape:groupmode="layer">
  <metadata
   id="CorelCorpID_0Corel-Layer" />
  <path
   class="fil0"
   d="m 194.53317,10.727618 c -12.94751,7.716029 -25.89502,15.431798 -38.84279,23.147566 0.11026,0.238209 0.22052,0.476417 0.33104,0.714626 0.83061,-0.282938 1.67474,-0.531808 2.49053,-0.853234 20.60269,-8.11599 41.87527,-13.556816 63.86352,-16.27931 12.74025,-1.57722 25.51925,-2.402108 38.32868,-1.878362 15.98961,0.653773 31.96154,1.81647 47.33352,6.817547 22.5276,7.32881 39.79797,21.613774 53.2916,40.753145 12.18426,17.282334 19.11128,36.69086 22.98737,57.333334 4.2953,22.87529 4.19049,45.97813 3.46287,69.07993 -0.39164,12.44119 -1.31561,24.88472 -2.51914,37.27676 -2.65618,27.35289 -6.46179,54.54012 -12.94101,81.29696 -5.86003,24.19974 -20.87392,41.06911 -42.08539,53.11476 -18.48066,10.49521 -38.37809,16.92528 -59.14357,20.88224 -18.03857,3.43764 -36.26359,5.37243 -54.61267,5.77422 -17.30417,0.37889 -34.63956,0.95101 -51.92215,0.33442 -27.49669,-0.98065 -54.31231,-5.7495 -79.296885,-18.06743 C 64.77173,360.07434 47.651669,346.19297 36.313884,325.95046 28.843605,312.61287 24.144189,298.22778 21.354082,283.30933 18.498962,268.04241 15.922878,252.6829 14.202888,237.255 12.43947,221.43806 12.09854,205.49942 12.717206,189.54179 13.448215,170.67236 15.003851,151.8877 18.769937,133.39898 21.696832,119.03132 25.110286,104.71879 29.2134,90.646027 35.071091,70.555382 48.731148,56.561937 66.392899,46.090388 81.624976,37.059532 98.214009,31.412224 115.05165,26.333391 c 18.87308,-5.692297 37.90895,-10.705337 57.40667,-13.742494 7.23988,-1.127589 14.54788,-1.81985 21.82442,-2.7105309 0.0837,0.2824179 0.16696,0.5648349 0.25043,0.8472519 z M 73.158955,182.73491 V 87.297066 H 113.90768 V 100.16474 H 86.831235 v 28.95325 h 23.591475 v 12.86794 H 86.831235 v 40.74898 z m 63.268005,-82.57017 v 29.75759 h 7.77454 c 2.41251,0 4.33404,-0.33521 5.76355,-1.00536 1.43003,-0.67016 2.54696,-1.63079 3.35104,-2.88191 0.71515,-1.25111 1.20665,-2.79245 1.47476,-4.62452 0.26786,-1.83181 0.40204,-3.9541 0.40204,-6.36687 0,-2.41277 -0.13418,-4.53506 -0.40204,-6.36714 -0.26811,-1.83181 -0.80434,-3.41813 -1.60868,-4.75844 -1.69789,-2.50197 -4.91474,-3.75335 -9.65109,-3.75335 z m -13.67228,82.57017 V 87.297066 h 21.98279 c 16.08505,0 24.1277,9.337979 24.1277,28.014714 0,5.62963 -0.87117,10.41044 -2.61379,14.34244 -1.74261,3.93174 -4.80317,7.10438 -9.18194,9.51689 l 14.74473,43.5638 h -14.47662 l -12.73401,-40.74898 h -8.17658 v 40.74898 z m 57.10189,0 V 87.297066 h 40.74872 v 12.867674 h -27.07644 v 28.01498 h 23.59148 v 12.86819 h -23.59148 v 28.01472 h 27.07644 v 13.67228 z m 93.82942,-67.95936 h -13.67228 v -3.08292 c 0,-3.12766 -0.73725,-5.83091 -2.21149,-8.10975 -1.4745,-2.27859 -3.95436,-3.41814 -7.43933,-3.41814 -1.87681,0 -3.39577,0.35758 -4.55743,1.07246 -1.16166,0.71515 -2.10019,1.60843 -2.81507,2.68089 -0.71463,1.16191 -1.20639,2.47986 -1.47424,3.9541 -0.26838,1.47476 -0.4023,3.01609 -0.4023,4.62478 0,1.87654 0.0671,3.44024 0.20102,4.69135 0.13418,1.25112 0.46913,2.36805 1.00536,3.35104 0.53623,0.983 1.31821,1.83182 2.34568,2.5467 1.02773,0.71489 2.43513,1.42977 4.22248,2.14492 l 10.45516,4.15512 c 3.0382,1.16166 5.4957,2.52434 7.3725,4.08829 1.87654,1.5637 3.35104,3.37341 4.42324,5.42887 0.983,2.14465 1.65316,4.57979 2.01073,7.30514 0.35731,2.72562 0.53597,5.83091 0.53597,9.31588 0,4.0212 -0.40204,7.75217 -1.20639,11.19267 -0.80408,3.44024 -2.09992,6.36688 -3.88701,8.77965 -1.87654,2.50223 -4.33404,4.46823 -7.37224,5.898 -3.03845,1.42951 -6.74707,2.14465 -11.12558,2.14465 -3.30631,0 -6.3895,-0.58095 -9.24904,-1.74261 -2.85954,-1.16166 -5.31704,-2.77034 -7.37224,-4.82554 -2.05546,-2.0552 -3.68625,-4.44587 -4.89263,-7.17122 -1.20639,-2.72561 -1.80945,-5.69672 -1.80945,-8.91383 v -5.09366 h 13.67228 v 4.28931 c 0,2.50223 0.73725,4.75871 2.21175,6.76918 1.4745,2.01047 3.9541,3.01609 7.43933,3.01609 2.32331,0 4.13276,-0.3352 5.42861,-1.00562 1.29558,-0.6699 2.30094,-1.63053 3.01609,-2.88165 0.71462,-1.25111 1.13929,-2.74797 1.27322,-4.49033 0.13393,-1.74261 0.20102,-3.68625 0.20102,-5.83116 0,-2.50197 -0.0892,-4.55717 -0.26786,-6.16586 -0.17891,-1.60843 -0.53622,-2.90427 -1.07245,-3.88701 -0.62569,-0.983 -1.45214,-1.78734 -2.47987,-2.41277 -1.02747,-0.62569 -2.39014,-1.29584 -4.08829,-2.01073 l -9.78501,-4.0212 c -5.89774,-2.41277 -9.8521,-5.60752 -11.86257,-9.58398 -2.01073,-3.97673 -3.0161,-8.95857 -3.0161,-14.94576 0,-3.57443 0.4915,-6.9702 1.4745,-10.18731 0.983,-3.216858 2.4575,-5.987202 4.4235,-8.310514 1.87628,-2.323312 4.26695,-4.177749 7.17122,-5.562791 2.90427,-1.385302 6.36688,-2.077822 10.38834,-2.077822 3.39551,0 6.5008,0.625687 9.31587,1.876801 2.81481,1.250854 5.24995,2.904271 7.30514,4.959468 4.11066,4.289313 6.16586,9.204308 6.16586,14.744738 z m 10.18731,67.95936 V 87.297066 h 13.67254 v 40.882654 h 16.88913 V 87.297066 h 13.67228 v 95.437844 h -13.67228 v -42.49134 h -16.88913 v 42.49134 z M 72.59308,328.87449 v -19.68782 h 4.175409 c 1.62221,0 2.85278,0.44261 3.69145,1.32731 0.838671,0.88496 1.258136,2.13842 1.258136,3.76063 v 9.20769 c 0,1.84351 -0.447031,3.20307 -1.341092,4.07867 -0.894062,0.87559 -2.180024,1.31352 -3.857365,1.31352 z m 2.820533,-17.0332 v 14.37858 h 1.299485 c 0.792641,0 1.355135,-0.19816 1.686963,-0.59448 0.331567,-0.39632 0.497481,-1.01862 0.497481,-1.86666 v -9.48412 c 0,-0.77418 -0.156552,-1.37334 -0.469916,-1.79749 -0.313624,-0.42389 -0.88496,-0.63583 -1.714528,-0.63583 z m 13.186762,17.0332 v -19.68782 h 8.405689 v 2.65462 h -5.585416 v 5.77916 h 4.866629 v 2.65436 h -4.866629 v 5.77915 h 5.585416 v 2.82053 z M 112.18353,314.8553 h -2.82027 v -0.63609 c 0,-0.64519 -0.15213,-1.20274 -0.4564,-1.67292 -0.304,-0.47017 -0.81552,-0.705 -1.53457,-0.705 -0.38696,0 -0.70058,0.0736 -0.94009,0.22131 -0.23977,0.14719 -0.43325,0.33156 -0.5807,0.55287 -0.14745,0.23951 -0.24887,0.51152 -0.304,0.81578 -0.0554,0.30401 -0.083,0.62205 -0.083,0.95388 0,0.38722 0.0138,0.70968 0.0413,0.96791 0.0276,0.25798 0.0967,0.48838 0.20752,0.69123 0.11053,0.20258 0.27176,0.37785 0.4837,0.5253 0.21195,0.14745 0.50242,0.2949 0.87118,0.44235 l 2.15662,0.8574 c 0.62699,0.2395 1.13383,0.52062 1.52079,0.84335 0.38722,0.32246 0.69148,0.6959 0.91252,1.11979 0.20284,0.44235 0.34093,0.94477 0.41479,1.507 0.0739,0.56224 0.11052,1.20275 0.11052,1.92179 0,0.82931 -0.083,1.59907 -0.24887,2.30875 -0.16591,0.70995 -0.43325,1.31353 -0.80174,1.81127 -0.38722,0.51595 -0.89407,0.92163 -1.52079,1.21653 -0.62673,0.2949 -1.39181,0.44261 -2.29497,0.44261 -0.68212,0 -1.31821,-0.11989 -1.90801,-0.35966 -0.59006,-0.2395 -1.0969,-0.57133 -1.52079,-0.99522 -0.42414,-0.42414 -0.76039,-0.9172 -1.00926,-1.47944 -0.24887,-0.56223 -0.37344,-1.17518 -0.37344,-1.83883 v -1.05088 h 2.82054 v 0.88496 c 0,0.51621 0.15213,0.9817 0.45613,1.39649 0.30426,0.41478 0.81578,0.62204 1.53483,0.62204 0.47902,0 0.85245,-0.0692 1.11979,-0.20726 0.26733,-0.13835 0.47459,-0.33651 0.62204,-0.59448 0.14745,-0.25823 0.23509,-0.56691 0.26266,-0.92657 0.0278,-0.35939 0.0416,-0.76039 0.0416,-1.20274 0,-0.51621 -0.0185,-0.94009 -0.0554,-1.27192 -0.0367,-0.33183 -0.11052,-0.59916 -0.22104,-0.802 -0.12925,-0.20258 -0.29958,-0.3685 -0.51178,-0.49774 -0.21195,-0.12899 -0.4928,-0.26708 -0.8431,-0.41479 l -2.01853,-0.82931 c -1.21678,-0.49774 -2.03257,-1.15697 -2.44735,-1.97718 -0.41479,-0.82021 -0.62205,-1.84794 -0.62205,-3.08319 0,-0.73725 0.10142,-1.43783 0.30426,-2.10148 0.20258,-0.6634 0.50684,-1.23499 0.91253,-1.71427 0.38696,-0.47928 0.88002,-0.86182 1.47918,-1.14762 0.59916,-0.28553 1.31353,-0.42856 2.14309,-0.42856 0.70033,0 1.34084,0.12898 1.92153,0.38722 0.58096,0.25797 1.08312,0.5989 1.50701,1.02304 0.84803,0.88496 1.27192,1.89865 1.27192,3.04158 z m 6.41238,14.01919 v -19.68782 h 2.82028 v 19.68782 z m 9.61962,-15.04223 c 0,-0.79291 0.13809,-1.49323 0.41452,-2.10149 0.2767,-0.60853 0.64519,-1.11537 1.10627,-1.52079 0.44235,-0.38722 0.94451,-0.68212 1.50674,-0.88496 0.5625,-0.20284 1.12915,-0.30426 1.70075,-0.30426 0.57134,0 1.13825,0.10142 1.70049,0.30426 0.56223,0.20284 1.07375,0.49774 1.53457,0.88496 0.44235,0.40542 0.802,0.91226 1.07844,1.52079 0.27643,0.60826 0.41478,1.30858 0.41478,2.10149 v 0.99522 h -2.82053 v -0.99522 c 0,-0.68212 -0.1888,-1.18455 -0.56692,-1.50727 -0.37759,-0.32247 -0.82462,-0.4837 -1.34083,-0.4837 -0.5162,0 -0.96324,0.16123 -1.34109,0.4837 -0.37786,0.32272 -0.56692,0.82515 -0.56692,1.50727 v 10.39691 c 0,0.68186 0.18906,1.18428 0.56692,1.50675 0.37785,0.32272 0.82489,0.48395 1.34109,0.48395 0.51621,0 0.96324,-0.16123 1.34083,-0.48395 0.37812,-0.32247 0.56692,-0.82489 0.56692,-1.50675 v -3.70549 h -2.23958 v -2.48871 h 5.06011 v 6.1942 c 0,0.82931 -0.13835,1.53899 -0.41478,2.12905 -0.27644,0.5898 -0.63609,1.07844 -1.07844,1.4654 -0.46082,0.40542 -0.97234,0.70968 -1.53457,0.91253 -0.56224,0.20284 -1.12915,0.30426 -1.70049,0.30426 -0.5716,0 -1.13825,-0.10142 -1.70075,-0.30426 -0.56223,-0.20285 -1.06439,-0.50711 -1.50674,-0.91253 -0.46108,-0.38696 -0.82957,-0.8756 -1.10627,-1.4654 -0.27643,-0.59006 -0.41452,-1.29974 -0.41452,-2.12905 z m 16.06216,15.04223 v -19.68782 h 2.70976 l 4.25836,11.86231 h 0.0554 v -11.86231 h 2.82054 v 19.68782 h -2.65462 l -4.31376,-11.83474 h -0.0551 v 11.83474 z m 30.19214,0 -0.94009,-1.49322 c -0.55313,0.55313 -1.12447,0.96792 -1.71427,1.24435 -0.59006,0.27644 -1.27191,0.41479 -2.04635,0.41479 -0.55287,0 -1.07818,-0.11078 -1.57592,-0.33183 -0.49774,-0.2213 -0.93099,-0.53467 -1.29975,-0.94009 -0.36875,-0.38722 -0.65897,-0.86208 -0.87091,-1.42431 -0.21221,-0.56197 -0.31805,-1.18428 -0.31805,-1.86614 0,-1.0878 0.25797,-2.03725 0.77418,-2.84836 0.5162,-0.8111 1.16139,-1.56682 1.93557,-2.2674 -0.49774,-0.70032 -0.90784,-1.42379 -1.23057,-2.1704 -0.32246,-0.74687 -0.4837,-1.53483 -0.4837,-2.3644 0,-0.51621 0.083,-1.00927 0.24887,-1.47918 0.16592,-0.47018 0.40543,-0.88028 0.71879,-1.23057 0.31336,-0.33183 0.70968,-0.59916 1.18922,-0.80175 0.47902,-0.20284 1.04125,-0.30426 1.68671,-0.30426 0.60826,0 1.14267,0.0967 1.60374,0.29022 0.46081,0.19374 0.84803,0.44703 1.16114,0.76066 0.64519,0.68185 0.96791,1.52078 0.96791,2.51601 0,0.94035 -0.28579,1.82505 -0.85713,2.65462 -0.5716,0.82957 -1.24435,1.59464 -2.01853,2.29496 0.18438,0.25798 0.37318,0.55314 0.56665,0.88496 0.19374,0.33183 0.41037,0.68212 0.64988,1.05062 0.46107,0.79264 0.92162,1.52079 1.3827,2.18444 l 1.52079,-2.07366 1.74183,1.21653 -2.10149,2.71001 2.12932,3.3734 z m -6.27663,-4.53506 c 0,0.68212 0.19816,1.2675 0.59422,1.75588 0.39658,0.48864 0.89874,0.73283 1.50726,0.73283 0.42389,0 0.82931,-0.13367 1.21653,-0.401 0.38722,-0.26734 0.68186,-0.52973 0.88496,-0.78796 l -2.71001,-4.3135 c -0.42389,0.42389 -0.7786,0.88002 -1.06466,1.36866 -0.28553,0.48864 -0.4283,1.03683 -0.4283,1.64509 z m 0.99522,-9.45656 c 0,0.42389 0.10142,0.88028 0.30426,1.36892 0.20284,0.48838 0.46082,0.98144 0.77418,1.47918 0.16591,-0.16592 0.35029,-0.35497 0.55313,-0.56692 0.20258,-0.21194 0.38696,-0.44703 0.55287,-0.705 0.16592,-0.25797 0.30427,-0.53909 0.41479,-0.84361 0.11078,-0.304 0.16591,-0.63115 0.16591,-0.98144 0,-0.35029 -0.11962,-0.67302 -0.35939,-0.96766 -0.23977,-0.29516 -0.5716,-0.44261 -0.99548,-0.44261 -0.42389,0 -0.76508,0.1706 -1.02305,0.51153 -0.25823,0.34119 -0.38722,0.72372 -0.38722,1.14761 z m 19.51879,13.99162 v -19.68782 h 4.17541 c 1.62221,0 2.85278,0.44261 3.69145,1.32731 0.83867,0.88496 1.25813,2.13842 1.25813,3.76063 v 9.20769 c 0,1.84351 -0.44703,3.20307 -1.34109,4.07867 -0.89406,0.87559 -2.18002,1.31352 -3.85736,1.31352 z m 2.82053,-17.0332 v 14.37858 h 1.29949 c 0.79264,0 1.35487,-0.19816 1.68696,-0.59448 0.33157,-0.39632 0.49748,-1.01862 0.49748,-1.86666 v -9.48412 c 0,-0.77418 -0.15655,-1.37334 -0.47018,-1.79749 -0.31336,-0.42389 -0.8847,-0.63583 -1.71426,-0.63583 z m 13.1865,17.0332 v -19.68782 h 8.40595 v 2.65462 h -5.58541 v 5.77916 h 4.86663 v 2.65436 h -4.86663 v 5.77915 h 5.58541 v 2.82053 z m 23.4175,-5.61324 v 1.21679 c 0,0.60826 -0.1152,1.18428 -0.34535,1.72805 -0.23066,0.54377 -0.54845,1.02773 -0.95413,1.45162 -0.40568,0.42388 -0.88028,0.76039 -1.42405,1.00926 -0.54377,0.24887 -1.12889,0.37344 -1.75588,0.37344 -0.53467,0 -1.07844,-0.0739 -1.63131,-0.22131 -0.55313,-0.14745 -1.05087,-0.40568 -1.49322,-0.77417 -0.44235,-0.36876 -0.80669,-0.84336 -1.09222,-1.42405 -0.2858,-0.5807 -0.42857,-1.32263 -0.42857,-2.2258 v -10.83952 c 0,-0.64519 0.11052,-1.24435 0.33157,-1.79723 0.22156,-0.55313 0.53492,-1.03241 0.94035,-1.43783 0.40542,-0.40568 0.88938,-0.72373 1.45161,-0.95413 0.5625,-0.23041 1.18454,-0.34561 1.86666,-0.34561 1.32705,0 2.40549,0.43325 3.23506,1.29974 0.40568,0.42389 0.72347,0.92631 0.95413,1.50675 0.23015,0.5807 0.34535,1.2121 0.34535,1.89422 v 1.10601 h -2.82027 v -0.94009 c 0,-0.55288 -0.15681,-1.03241 -0.47018,-1.43784 -0.31336,-0.40568 -0.73724,-0.60826 -1.27191,-0.60826 -0.70059,0 -1.16582,0.21662 -1.39649,0.64961 -0.23014,0.43325 -0.34535,0.9817 -0.34535,1.64536 v 10.06508 c 0,0.57134 0.12431,1.05088 0.37318,1.43784 0.24887,0.38721 0.6959,0.58069 1.34109,0.58069 0.18412,0 0.38254,-0.0322 0.59448,-0.0967 0.21194,-0.0645 0.4101,-0.17059 0.59448,-0.31804 0.16592,-0.14745 0.30426,-0.35029 0.41479,-0.60826 0.11052,-0.25824 0.16591,-0.5807 0.16591,-0.96766 v -0.96792 z m 6.357,-9.42899 c 0,-0.79291 0.13808,-1.49323 0.41452,-2.10149 0.2767,-0.60853 0.64519,-1.11537 1.10627,-1.52079 0.44235,-0.38722 0.94451,-0.68212 1.50674,-0.88496 0.5625,-0.20284 1.12915,-0.30426 1.70075,-0.30426 0.57133,0 1.13825,0.10142 1.70049,0.30426 0.56223,0.20284 1.07375,0.49774 1.53457,0.88496 0.44235,0.40542 0.802,0.91226 1.07844,1.52079 0.27643,0.60826 0.41478,1.30858 0.41478,2.10149 v 10.39691 c 0,0.82931 -0.13835,1.53899 -0.41478,2.12905 -0.27644,0.5898 -0.63609,1.07844 -1.07844,1.4654 -0.46082,0.40542 -0.97234,0.70968 -1.53457,0.91253 -0.56224,0.20284 -1.12916,0.30426 -1.70049,0.30426 -0.5716,0 -1.13825,-0.10142 -1.70075,-0.30426 -0.56223,-0.20285 -1.06439,-0.50711 -1.50674,-0.91253 -0.46108,-0.38696 -0.82957,-0.8756 -1.10627,-1.4654 -0.27644,-0.59006 -0.41452,-1.29974 -0.41452,-2.12905 z m 2.82027,10.39691 c 0,0.68186 0.18906,1.18428 0.56692,1.50675 0.37785,0.32272 0.82488,0.48395 1.34109,0.48395 0.5162,0 0.96324,-0.16123 1.34083,-0.48395 0.37812,-0.32247 0.56692,-0.82489 0.56692,-1.50675 v -10.39691 c 0,-0.68212 -0.1888,-1.18455 -0.56692,-1.50727 -0.37759,-0.32247 -0.82463,-0.4837 -1.34083,-0.4837 -0.51621,0 -0.96324,0.16123 -1.34109,0.4837 -0.37786,0.32272 -0.56692,0.82515 -0.56692,1.50727 z m 16.17295,-12.38788 v 6.13855 h 1.60375 c 0.49774,0 0.89406,-0.0692 1.18896,-0.20726 0.29516,-0.13835 0.52531,-0.33651 0.69122,-0.59474 0.14771,-0.25798 0.24887,-0.57602 0.30426,-0.95388 0.0554,-0.37786 0.083,-0.81578 0.083,-1.31353 0,-0.49774 -0.0276,-0.93541 -0.083,-1.31326 -0.0554,-0.37786 -0.16591,-0.70527 -0.33183,-0.9817 -0.35003,-0.51621 -1.01368,-0.77418 -1.99096,-0.77418 z m -2.82027,17.0332 v -19.68782 h 4.53454 c 3.31827,0 4.97741,1.92647 4.97741,5.77916 0,1.16139 -0.1797,2.14751 -0.53935,2.95862 -0.35939,0.8111 -0.9908,1.46566 -1.89396,1.96314 l 3.04157,8.9869 h -2.98644 l -2.6268,-8.40621 h -1.6867 v 8.40621 z m 21.70297,-6.88542 -1.38244,-7.13377 h -0.0554 l -1.38244,7.13377 z m -6.96812,6.88542 4.39672,-19.68782 h 2.35035 l 4.39646,19.68782 h -2.82027 l -0.82983,-4.2308 h -3.84332 l -0.82957,4.2308 z m 17.08548,0 v -17.0332 h -3.26289 v -2.65462 h 9.3463 v 2.65462 h -3.26288 v 17.0332 z m 11.63814,0 v -19.68782 h 2.82054 v 19.68782 z m 9.61962,-15.04223 c 0,-0.79291 0.13835,-1.49323 0.41478,-2.10149 0.27644,-0.60853 0.64519,-1.11537 1.10601,-1.52079 0.44235,-0.38722 0.94477,-0.68212 1.507,-0.88496 0.56224,-0.20284 1.12915,-0.30426 1.70049,-0.30426 0.5716,0 1.13851,0.10142 1.70075,0.30426 0.56223,0.20284 1.07375,0.49774 1.53457,0.88496 0.44235,0.40542 0.802,0.91226 1.07844,1.52079 0.27643,0.60826 0.41478,1.30858 0.41478,2.10149 v 10.39691 c 0,0.82931 -0.13835,1.53899 -0.41478,2.12905 -0.27644,0.5898 -0.63609,1.07844 -1.07844,1.4654 -0.46082,0.40542 -0.97234,0.70968 -1.53457,0.91253 -0.56224,0.20284 -1.12915,0.30426 -1.70075,0.30426 -0.57134,0 -1.13825,-0.10142 -1.70049,-0.30426 -0.56223,-0.20285 -1.06465,-0.50711 -1.507,-0.91253 -0.46082,-0.38696 -0.82957,-0.8756 -1.10601,-1.4654 -0.27643,-0.59006 -0.41478,-1.29974 -0.41478,-2.12905 z m 2.82053,10.39691 c 0,0.68186 0.1888,1.18428 0.56692,1.50675 0.37759,0.32272 0.82489,0.48395 1.34083,0.48395 0.51621,0 0.96324,-0.16123 1.34109,-0.48395 0.37812,-0.32247 0.56692,-0.82489 0.56692,-1.50675 v -10.39691 c 0,-0.68212 -0.1888,-1.18455 -0.56692,-1.50727 -0.37785,-0.32247 -0.82488,-0.4837 -1.34109,-0.4837 -0.51594,0 -0.96324,0.16123 -1.34083,0.4837 -0.37812,0.32272 -0.56692,0.82515 -0.56692,1.50727 z m 13.24189,4.64532 v -19.68782 h 2.70976 l 4.25836,11.86231 h 0.0554 v -11.86231 h 2.82028 v 19.68782 h -2.65436 l -4.31376,-11.83474 h -0.0551 v 11.83474 z M 74.16796,292.94195 v -95.43812 h 20.50855 c 3.753083,0 7.05966,0.4915 9.9192,1.4745 2.85954,0.983 5.45096,2.72562 7.77428,5.22759 2.32331,2.50222 3.932,5.42886 4.82554,8.7799 0.8938,3.35104 1.34057,7.8861 1.34057,13.60519 0,4.28931 -0.24575,7.90847 -0.73725,10.85746 -0.4915,2.949 -1.54159,5.71909 -3.15002,8.31078 -1.87654,3.12766 -4.37877,5.56254 -7.50643,7.30515 -3.12765,1.74235 -7.238307,2.61379 -12.331703,2.61379 H 87.84024 v 37.26376 z m 13.67228,-82.57018 v 32.43821 h 6.568155 c 2.770344,0 4.915,-0.40204 6.433965,-1.20638 1.51923,-0.80408 2.63616,-1.92127 3.3513,-3.35078 0.71463,-1.34057 1.1393,-2.99373 1.27322,-4.95973 0.13393,-1.96574 0.20102,-4.15538 0.20102,-6.5679 0,-2.23411 -0.0447,-4.3564 -0.13392,-6.36713 -0.0895,-2.01047 -0.4915,-3.77545 -1.20639,-5.29468 -0.71488,-1.51897 -1.78734,-2.68088 -3.21711,-3.48497 -1.429773,-0.80434 -3.48497,-1.20664 -6.165856,-1.20664 z m 59.41324,0 v 29.75759 h 7.77454 c 2.41277,0 4.33404,-0.33521 5.76355,-1.00536 1.43003,-0.67016 2.54696,-1.6308 3.35104,-2.88191 0.71515,-1.25111 1.20665,-2.79245 1.47476,-4.62452 0.26786,-1.83181 0.40205,-3.9541 0.40205,-6.36688 0,-2.41277 -0.13419,-4.53506 -0.40205,-6.36713 -0.26811,-1.83181 -0.80434,-3.41813 -1.60868,-4.75845 -1.69789,-2.50197 -4.91474,-3.75334 -9.65109,-3.75334 z m -13.67228,82.57018 v -95.43812 h 21.98279 c 16.08531,0 24.12771,9.33824 24.12771,28.01498 0,5.62962 -0.87118,10.41044 -2.6138,14.34244 -1.74261,3.93173 -4.80317,7.10413 -9.18194,9.5169 l 14.74473,43.5638 h -14.47662 l -12.73401,-40.74899 h -8.17658 v 40.74899 z m 62.36198,0 v -95.43812 h 13.67228 v 95.43812 z m 31.26434,0 v -95.43812 h 13.13605 l 20.64248,57.50421 h 0.26811 v -57.50421 h 13.67228 v 95.43812 H 262.0585 l -20.91059,-57.37002 h -0.26811 v 57.37002 z m 73.88986,0 v -82.57018 h -15.81719 v -12.86794 h 45.30641 v 12.86794 h -15.81694 v 82.57018 z"
   id="path829"
   style="stroke-width:2.60053" />
 </g>
</svg>
