<?xml version="1.0" encoding="utf-8"?>
<!-- Generator: Adobe Illustrator 23.0.0, SVG Export Plug-In . SVG Version: 6.00 Build 0)  -->
<svg version="1.1" id="Layer_1" xmlns="http://www.w3.org/2000/svg" xmlns:xlink="http://www.w3.org/1999/xlink" x="0px" y="0px"
	 viewBox="0 0 3000 2000" style="enable-background:new 0 0 3000 2000;" xml:space="preserve">
<style type="text/css">
	.st0{fill:#FFC82F;}
</style>
<path class="st0" d="M2613.05,905.2H386.95c-51.51,0-93.26-41.75-93.26-93.26V264.76c0-51.5,41.75-93.26,93.26-93.26h2226.1
	c51.5,0,93.26,41.75,93.26,93.26v547.18C2706.31,863.44,2664.55,905.2,2613.05,905.2z M1058.72,413.82h9.01l-52.74-114.65h-8.35
	l-52.74,114.65h9.01l14.58-32.27h66.5L1058.72,413.82z M980.75,374.51l29.97-66.17l30.14,66.17H980.75z M1141.93,328.32l-34.4,76.49
	l-34.07-76.49h-8.68l38.49,85.5h8.35l38.66-85.5H1141.93z M1194.34,327.66c-6.55,0-12.83,1.06-18.84,3.19
	c-6.01,2.13-11.14,5.11-15.4,8.93l4.09,5.9c3.6-3.28,8-5.9,13.19-7.86c5.19-1.97,10.62-2.95,16.3-2.95c8.3,0,14.6,2.08,18.92,6.22
	c4.31,4.15,6.47,10.21,6.47,18.18v6.88h-29.32c-11.14,0-19.25,2.21-24.32,6.63c-5.08,4.42-7.62,10.18-7.62,17.28
	c0,7.32,2.76,13.21,8.27,17.69c5.51,4.48,13.02,6.72,22.52,6.72c7.31,0,13.6-1.39,18.84-4.18c5.24-2.78,9.23-6.69,11.96-11.71v15.23
	h7.86V359.6c0-10.48-2.84-18.43-8.52-23.83C1213.07,330.36,1204.93,327.66,1194.34,327.66z M1189.76,407.75
	c-7.53,0-13.38-1.61-17.53-4.83c-4.15-3.22-6.22-7.62-6.22-13.19c0-5.35,1.88-9.55,5.65-12.61c3.77-3.06,9.85-4.59,18.26-4.59h29.16
	v16.05c-2.51,6.22-6.25,10.97-11.22,14.25C1202.88,406.12,1196.85,407.75,1189.76,407.75z M1265.1,307.51
	c1.86,0,3.44-0.66,4.75-1.97c1.31-1.31,1.97-2.89,1.97-4.75c0-1.86-0.66-3.41-1.97-4.67c-1.31-1.25-2.89-1.88-4.75-1.88
	c-1.86,0-3.44,0.65-4.75,1.97c-1.31,1.31-1.97,2.89-1.97,4.75c0,1.86,0.66,3.41,1.97,4.67
	C1261.66,306.89,1263.24,307.51,1265.1,307.51z M1261,413.82h8.19v-85.5H1261V413.82z M1303.75,413.82h8.19V292.28h-8.19V413.82z
	 M1375.33,327.66c-6.55,0-12.83,1.06-18.84,3.19c-6.01,2.13-11.14,5.11-15.4,8.93l4.09,5.9c3.6-3.28,8-5.9,13.19-7.86
	c5.19-1.97,10.62-2.95,16.3-2.95c8.3,0,14.6,2.08,18.92,6.22c4.31,4.15,6.47,10.21,6.47,18.18v6.88h-29.32
	c-11.14,0-19.25,2.21-24.32,6.63c-5.08,4.42-7.62,10.18-7.62,17.28c0,7.32,2.76,13.21,8.27,17.69c5.51,4.48,13.02,6.72,22.52,6.72
	c7.31,0,13.6-1.39,18.84-4.18c5.24-2.78,9.23-6.69,11.96-11.71v15.23h7.86V359.6c0-10.48-2.84-18.43-8.52-23.83
	C1394.05,330.36,1385.92,327.66,1375.33,327.66z M1370.74,407.75c-7.53,0-13.38-1.61-17.53-4.83c-4.15-3.22-6.22-7.62-6.22-13.19
	c0-5.35,1.88-9.55,5.65-12.61c3.77-3.06,9.85-4.59,18.26-4.59h29.16v16.05c-2.51,6.22-6.25,10.97-11.22,14.25
	C1383.87,406.12,1377.84,407.75,1370.74,407.75z M1484.9,327.66c-7.53,0-14.36,1.78-20.47,5.32c-6.12,3.55-10.87,8.49-14.25,14.82
	v-55.53h-8.19v121.53h7.86v-20.15c3.38,6.55,8.16,11.66,14.33,15.31c6.17,3.66,13.08,5.49,20.72,5.49c7.97,0,15.18-1.86,21.62-5.57
	c6.44-3.71,11.49-8.85,15.15-15.4c3.66-6.55,5.49-14.03,5.49-22.44c0-8.41-1.83-15.91-5.49-22.52c-3.66-6.61-8.71-11.74-15.15-15.4
	C1500.08,329.49,1492.87,327.66,1484.9,327.66z M1484.41,407.1c-6.55,0-12.42-1.53-17.61-4.59c-5.19-3.06-9.28-7.31-12.28-12.78
	c-3-5.46-4.5-11.68-4.5-18.67c0-6.99,1.5-13.21,4.5-18.67c3-5.46,7.1-9.72,12.28-12.78c5.19-3.06,11.06-4.59,17.61-4.59
	s12.45,1.53,17.69,4.59c5.24,3.06,9.36,7.32,12.37,12.78c3,5.46,4.5,11.69,4.5,18.67c0,6.99-1.5,13.21-4.5,18.67
	c-3,5.46-7.13,9.72-12.37,12.78C1496.86,405.57,1490.96,407.1,1484.41,407.1z M1552.55,413.82h8.19V292.28h-8.19V413.82z
	 M1667.69,370.74c0-8.3-1.78-15.72-5.32-22.28c-3.55-6.55-8.41-11.66-14.58-15.31c-6.17-3.66-13.13-5.49-20.88-5.49
	c-7.75,0-14.74,1.86-20.96,5.57c-6.22,3.71-11.11,8.87-14.66,15.48c-3.55,6.61-5.32,14.06-5.32,22.36c0,8.41,1.88,15.89,5.65,22.44
	c3.77,6.55,8.98,11.69,15.64,15.4c6.66,3.71,14.25,5.57,22.77,5.57c6.55,0,12.64-1.2,18.26-3.6c5.62-2.4,10.29-5.84,14-10.32
	l-4.75-5.41c-3.17,3.93-7.13,6.91-11.88,8.93c-4.75,2.02-9.91,3.03-15.48,3.03c-6.77,0-12.86-1.42-18.26-4.26
	c-5.41-2.84-9.69-6.85-12.86-12.04c-3.17-5.18-4.86-11.11-5.08-17.77h73.54L1667.69,370.74z M1626.91,334.87
	c6,0,11.41,1.37,16.22,4.09c4.8,2.73,8.68,6.5,11.63,11.3c2.95,4.81,4.59,10.27,4.91,16.38h-65.52c0.43-6.11,2.1-11.6,5-16.46
	c2.89-4.86,6.74-8.63,11.55-11.3C1615.49,336.21,1620.9,334.87,1626.91,334.87z M1768.58,414.47c8.08,0,15.37-1.86,21.87-5.57
	c6.5-3.71,11.6-8.87,15.32-15.48c3.71-6.61,5.57-14.06,5.57-22.36c0-8.3-1.86-15.75-5.57-22.36c-3.71-6.61-8.82-11.77-15.32-15.48
	c-6.5-3.71-13.79-5.57-21.87-5.57c-8.08,0-15.37,1.86-21.87,5.57c-6.5,3.71-11.6,8.87-15.31,15.48c-3.71,6.61-5.57,14.06-5.57,22.36
	c0,8.3,1.86,15.75,5.57,22.36c3.71,6.61,8.82,11.77,15.31,15.48C1753.21,412.62,1760.5,414.47,1768.58,414.47z M1768.58,407.1
	c-6.55,0-12.42-1.53-17.61-4.59c-5.19-3.06-9.28-7.31-12.28-12.78c-3-5.46-4.5-11.68-4.5-18.67c0-6.99,1.5-13.21,4.5-18.67
	c3-5.46,7.1-9.72,12.28-12.78c5.19-3.06,11.06-4.59,17.61-4.59s12.42,1.53,17.61,4.59c5.18,3.06,9.28,7.32,12.28,12.78
	c3,5.46,4.5,11.69,4.5,18.67c0,6.99-1.5,13.21-4.5,18.67c-3,5.46-7.1,9.72-12.28,12.78C1781,405.57,1775.13,407.1,1768.58,407.1z
	 M1878.49,327.66c-7.97,0-14.88,1.69-20.72,5.08c-5.84,3.39-10.24,8.08-13.19,14.09v-18.51h-7.86v85.5h8.19v-45.53
	c0-10.16,2.89-18.23,8.68-24.24c5.79-6,13.7-9.01,23.75-9.01c8.74,0,15.53,2.51,20.39,7.53c4.86,5.02,7.29,12.34,7.29,21.95v49.3
	h8.19v-49.96c0-11.68-3.11-20.64-9.34-26.86C1897.65,330.77,1889.19,327.66,1878.49,327.66z M2028.03,402.68
	c-3.5,3.17-7.92,4.75-13.27,4.75c-5.24,0-9.2-1.45-11.88-4.34c-2.68-2.89-4.01-7.13-4.01-12.69v-55.03h27.19v-7.04h-27.19v-18.67
	h-8.19v18.67h-15.72v7.04h15.72v55.85c0,7.32,2.02,13.02,6.06,17.12c4.04,4.09,9.77,6.14,17.2,6.14c3.38,0,6.63-0.52,9.75-1.56
	c3.11-1.04,5.71-2.54,7.78-4.5L2028.03,402.68z M2096,327.66c-7.86,0-14.69,1.61-20.47,4.83c-5.79,3.22-10.16,7.78-13.1,13.68
	v-53.89h-8.19v121.53h8.19v-45.53c0-10.16,2.89-18.23,8.68-24.24c5.79-6,13.7-9.01,23.75-9.01c8.74,0,15.53,2.51,20.39,7.53
	c4.86,5.02,7.29,12.34,7.29,21.95v49.3h8.19v-49.96c0-11.68-3.11-20.64-9.34-26.86C2115.16,330.77,2106.7,327.66,2096,327.66z
	 M2237.02,370.74c0-8.3-1.78-15.72-5.32-22.28c-3.55-6.55-8.41-11.66-14.58-15.31c-6.17-3.66-13.13-5.49-20.88-5.49
	c-7.75,0-14.74,1.86-20.96,5.57c-6.22,3.71-11.11,8.87-14.66,15.48c-3.55,6.61-5.32,14.06-5.32,22.36c0,8.41,1.88,15.89,5.65,22.44
	c3.77,6.55,8.98,11.69,15.64,15.4c6.66,3.71,14.25,5.57,22.77,5.57c6.55,0,12.64-1.2,18.26-3.6c5.62-2.4,10.29-5.84,14-10.32
	l-4.75-5.41c-3.17,3.93-7.13,6.91-11.88,8.93c-4.75,2.02-9.91,3.03-15.48,3.03c-6.77,0-12.86-1.42-18.26-4.26
	c-5.41-2.84-9.69-6.85-12.86-12.04c-3.17-5.18-4.86-11.11-5.08-17.77h73.54L2237.02,370.74z M2196.24,334.87
	c6,0,11.41,1.37,16.22,4.09c4.8,2.73,8.68,6.5,11.63,11.3c2.95,4.81,4.59,10.27,4.91,16.38h-65.52c0.43-6.11,2.1-11.6,5-16.46
	c2.89-4.86,6.74-8.63,11.55-11.3C2184.82,336.21,2190.23,334.87,2196.24,334.87z M1084.37,674.33c-11.31,6.57-24.44,9.85-39.39,9.85
	c-13.31,0-25.21-2.92-35.7-8.75c-10.49-5.83-18.7-13.86-24.62-24.07c-5.93-10.21-8.89-21.7-8.89-34.47c0-13.13,2.96-24.8,8.89-35.01
	c5.92-10.21,14.13-18.14,24.62-23.8c10.48-5.65,22.47-8.48,35.97-8.48c20.61,0,38.2,7.3,52.79,21.88l22.43-21.88
	c-8.94-10.21-19.97-17.96-33.1-23.25c-13.13-5.29-27.72-7.93-43.77-7.93c-19.7,0-37.43,4.24-53.21,12.72
	c-15.78,8.48-28.13,20.2-37.07,35.15c-8.94,14.96-13.4,31.83-13.4,50.61c0,18.79,4.47,35.66,13.4,50.61
	c8.93,14.96,21.24,26.67,36.93,35.15c15.68,8.48,33.28,12.72,52.79,12.72c13.86,0,27.35-2.1,40.49-6.29
	c13.13-4.19,24.62-10.21,34.47-18.05V614.7h-33.65V674.33z M1227.16,714.54c14.95,0,28.35-3.19,40.21-9.57
	c11.85-6.38,21.11-15.27,27.77-26.67c6.65-11.4,9.98-24.3,9.98-38.71c0-14.4-3.33-27.26-9.98-38.57
	c-6.66-11.31-15.91-20.15-27.77-26.53c-11.86-6.38-25.26-9.57-40.21-9.57c-14.77,0-28.09,3.19-39.94,9.57
	c-11.86,6.39-21.11,15.23-27.77,26.53c-6.66,11.31-9.98,24.17-9.98,38.57c0,14.41,3.33,27.31,9.98,38.71
	c6.65,11.4,15.91,20.29,27.77,26.67C1199.07,711.35,1212.38,714.54,1227.16,714.54z M1227.16,685.27
	c-12.58,0-22.94-4.19-31.05-12.58c-8.12-8.39-12.17-19.42-12.17-33.1c0-13.68,4.06-24.71,12.17-33.1
	c8.11-8.39,18.46-12.58,31.05-12.58c12.58,0,22.98,4.2,31.18,12.58c8.21,8.39,12.31,19.42,12.31,33.1c0,13.68-4.1,24.71-12.31,33.1
	C1250.13,681.08,1239.74,685.27,1227.16,685.27z M1403.59,714.54c14.95,0,28.35-3.19,40.21-9.57c11.85-6.38,21.11-15.27,27.77-26.67
	c6.65-11.4,9.98-24.3,9.98-38.71c0-14.4-3.33-27.26-9.98-38.57c-6.66-11.31-15.91-20.15-27.77-26.53
	c-11.86-6.38-25.26-9.57-40.21-9.57c-14.77,0-28.09,3.19-39.94,9.57c-11.86,6.39-21.11,15.23-27.77,26.53
	c-6.66,11.31-9.98,24.17-9.98,38.57c0,14.41,3.33,27.31,9.98,38.71c6.65,11.4,15.91,20.29,27.77,26.67
	C1375.51,711.35,1388.82,714.54,1403.59,714.54z M1403.59,685.27c-12.58,0-22.94-4.19-31.05-12.58
	c-8.12-8.39-12.17-19.42-12.17-33.1c0-13.68,4.06-24.71,12.17-33.1c8.11-8.39,18.46-12.58,31.05-12.58
	c12.58,0,22.98,4.2,31.18,12.58c8.21,8.39,12.31,19.42,12.31,33.1c0,13.68-4.1,24.71-12.31,33.1
	C1426.57,681.08,1416.18,685.27,1403.59,685.27z M1626.8,566.55v19.42c-5.84-7.11-13.09-12.4-21.75-15.87
	c-8.66-3.46-18.29-5.2-28.86-5.2c-13.86,0-26.4,2.92-37.61,8.75c-11.21,5.84-20.06,14.09-26.53,24.76
	c-6.47,10.67-9.71,22.94-9.71,36.79c0,13.86,3.24,26.17,9.71,36.93c6.47,10.76,15.32,19.11,26.53,25.03
	c11.22,5.93,23.75,8.89,37.61,8.89c10.03,0,19.24-1.64,27.63-4.92c8.39-3.28,15.5-8.11,21.34-14.5v7.66
	c0,14.96-3.74,26.08-11.21,33.37c-7.48,7.29-19.24,10.94-35.29,10.94c-10.03,0-19.93-1.6-29.68-4.79
	c-9.76-3.19-17.83-7.43-24.21-12.72l-15.32,25.71c8.21,6.75,18.6,11.9,31.19,15.46c12.58,3.56,25.89,5.33,39.94,5.33
	c52.52,0,78.78-25.71,78.78-77.14V566.55H1626.8z M1581.39,677.06c-13.13,0-23.85-3.87-32.14-11.63
	c-8.3-7.75-12.45-17.82-12.45-30.23c0-12.22,4.15-22.16,12.45-29.82c8.29-7.66,19.01-11.49,32.14-11.49
	c12.95,0,23.57,3.83,31.87,11.49c8.3,7.66,12.45,17.6,12.45,29.82c0,12.4-4.15,22.48-12.45,30.23
	C1604.96,673.19,1594.34,677.06,1581.39,677.06z M1704.21,712.63h34.19V509.65h-34.19V712.63z M1920.59,640.41
	c0-14.95-3.15-28.13-9.44-39.53c-6.29-11.39-15.05-20.24-26.26-26.53c-11.22-6.29-23.94-9.44-38.16-9.44
	c-14.41,0-27.36,3.19-38.84,9.57c-11.49,6.39-20.47,15.28-26.95,26.67c-6.47,11.4-9.71,24.21-9.71,38.43
	c0,14.41,3.33,27.31,9.98,38.71c6.66,11.4,16.09,20.29,28.31,26.67c12.22,6.39,26.35,9.57,42.4,9.57c12.58,0,23.89-2,33.92-6.02
	c10.03-4.01,18.33-9.94,24.89-17.78l-18.33-21.06c-10.4,10.58-23.62,15.87-39.67,15.87c-12.58,0-23.11-3.15-31.59-9.44
	c-8.48-6.29-13.72-14.81-15.73-25.58h114.62C1920.4,646.15,1920.59,642.78,1920.59,640.41z M1846.73,592.26
	c11.12,0,20.42,3.28,27.9,9.85c7.48,6.57,11.94,15.14,13.4,25.71h-82.89c1.64-10.76,6.25-19.37,13.81-25.85
	C1826.53,595.5,1835.79,592.26,1846.73,592.26z M2110.97,521.14h-78.78v191.48h35.56v-55.26h43.22c16.59,0,31.05-2.74,43.36-8.21
	c12.31-5.47,21.75-13.36,28.31-23.66c6.57-10.3,9.85-22.38,9.85-36.25c0-14.04-3.28-26.17-9.85-36.38
	c-6.56-10.21-16-18.05-28.31-23.52C2142.02,523.88,2127.56,521.14,2110.97,521.14z M2109.33,627.28h-41.58v-76.05h41.58
	c15.5,0,27.26,3.28,35.29,9.85c8.02,6.56,12.04,15.96,12.04,28.18c0,12.22-4.01,21.61-12.04,28.18
	C2136.59,624,2124.83,627.28,2109.33,627.28z M2227.5,712.63h34.19V509.65h-34.19V712.63z M2362.36,564.91
	c-12.04,0-23.44,1.55-34.19,4.65c-10.76,3.1-19.97,7.57-27.63,13.4l13.4,24.89c5.47-4.56,12.17-8.11,20.11-10.67
	c7.93-2.55,16-3.83,24.21-3.83c12.04,0,21.11,2.74,27.22,8.21c6.11,5.47,9.16,13.31,9.16,23.52v2.19h-37.75
	c-20.97,0-36.34,3.97-46.09,11.9c-9.76,7.93-14.63,18.46-14.63,31.59c0,8.39,2.23,15.91,6.7,22.57c4.47,6.66,10.8,11.86,19.01,15.59
	c8.21,3.74,17.78,5.61,28.72,5.61c10.94,0,20.29-1.69,28.04-5.06c7.75-3.37,13.72-8.25,17.92-14.63v17.78h32.28v-85.62
	c0-20.79-5.7-36.33-17.1-46.64C2400.33,570.06,2383.88,564.91,2362.36,564.91z M2357.71,689.65c-8.75,0-15.59-1.82-20.52-5.47
	c-4.92-3.65-7.39-8.57-7.39-14.77c0-12.95,9.85-19.42,29.54-19.42h35.29v16.96c-2.74,7.3-7.43,12.9-14.09,16.82
	C2373.89,687.69,2366.28,689.65,2357.71,689.65z M2573.81,566.55l-46.23,108.05l-45.96-108.05h-35.56l63.74,146.62l-2.46,5.74
	c-3.28,7.29-6.89,12.49-10.81,15.59c-3.92,3.1-8.89,4.65-14.91,4.65c-4.56,0-9.07-0.91-13.54-2.74c-4.47-1.83-8.34-4.29-11.63-7.39
	l-13.68,25.17c4.56,4.19,10.39,7.48,17.51,9.85c7.11,2.37,14.31,3.56,21.61,3.56c12.95,0,23.98-3.24,33.1-9.71
	c9.12-6.48,16.87-17.64,23.25-33.51l68.39-157.84H2573.81z M874.22,528.98l-91.92-53.04l-75.6,73.08l69.09,66.79l98.43-56.81
	c5.42-3.12,8.66-8.74,8.66-15C882.88,537.73,879.64,532.12,874.22,528.98z M766.7,466.93l-101.16-58.39l-221.68-113.6l250.38,242.03
	L766.7,466.93z M447.54,799.53l218.38-120.3l94.27-54.42l-65.94-63.75L447.54,799.53z M429.07,304.73l-0.24,488.8l252.95-244.52
	L429.07,304.73z"/>
</svg>
