<?xml version="1.0" encoding="UTF-8" standalone="no"?>
<!-- Creator: CorelDRAW -->

<svg
   xml:space="preserve"
   width="200pt"
   height="100pt"
   style="clip-rule:evenodd;fill-rule:evenodd;image-rendering:optimizeQuality;shape-rendering:geometricPrecision;text-rendering:geometricPrecision"
   viewBox="0 0 200 100"
   version="1.1"
   id="svg1033"
   sodipodi:docname="ledart_logo_is.svg"
   inkscape:version="1.1.1 (c3084ef, 2021-09-22)"
   xmlns:inkscape="http://www.inkscape.org/namespaces/inkscape"
   xmlns:sodipodi="http://sodipodi.sourceforge.net/DTD/sodipodi-0.dtd"
   xmlns="http://www.w3.org/2000/svg"
   xmlns:svg="http://www.w3.org/2000/svg"><sodipodi:namedview
   id="namedview1035"
   pagecolor="#505050"
   bordercolor="#ffffff"
   borderopacity="1"
   inkscape:pageshadow="0"
   inkscape:pageopacity="0"
   inkscape:pagecheckerboard="1"
   inkscape:document-units="pt"
   showgrid="false"
   units="pt"
   inkscape:zoom="1.1135662"
   inkscape:cx="129.76328"
   inkscape:cy="66.453165"
   inkscape:window-width="1920"
   inkscape:window-height="942"
   inkscape:window-x="1440"
   inkscape:window-y="25"
   inkscape:window-maximized="1"
   inkscape:current-layer="Layer_x0020_1" />
 <defs
   id="defs1027">
  <style
   type="text/css"
   id="style1025">
   <![CDATA[
    .fil0 {fill:#6D6E72}
   ]]>
  </style>
 </defs>
 <g
   id="Layer_x0020_1"
   inkscape:label="Layer 1"
   inkscape:groupmode="layer">
  <metadata
   id="CorelCorpID_0Corel-Layer" />
  <path
   class="fil0"
   d="M 3.8188474,12.575639 H 14.354336 V 78.130266 H 24.889958 V 89.056037 H 3.8188474 Z M 118.97624,12.18549 h -8.93252 L 93.175895,88.665755 h 10.535625 l 10.79853,-54.481832 10.79839,54.481832 h 10.53563 z m 77.40906,0.390149 c 0,3.316866 0,6.633599 0,9.950332 H 183.50852 V 89.056037 H 172.97303 V 22.525971 h -4.19474 c -1.25732,-3.42259 -3.1415,-6.788242 -7.26406,-9.950332 11.62373,0 23.24747,0 34.87107,0 z M 139.79995,57.0367 V 85.750532 L 129.26433,39.630369 c 0,-9.018199 0,-18.036532 0,-27.05473 h 0.31156 0.31156 c 6.43645,0 12.87317,0 19.30976,0 3.04901,0 8.77414,1.569684 12.39307,5.218959 2.51425,2.535232 3.81849,6.227011 4.21305,9.749711 0.53209,4.752358 0.53209,9.771497 0,14.523855 -0.39456,3.5227 -1.6988,7.214479 -4.21305,9.749711 -1.18448,1.194371 -2.59444,2.165801 -4.06241,2.932465 l 11.34799,34.305697 H 157.16405 L 146.57242,57.0367 Z M 155.5806,31.570768 c 0,-3.79817 -1.69065,-7.263665 -5.53359,-8.612011 -2.73639,0 -6.96815,0 -9.7044,0 0,7.898275 0,15.796684 0,23.694959 2.73625,0 6.96801,0 9.7044,0 3.84294,-1.34848 5.53359,-4.813841 5.53359,-8.612011 0,-2.157781 0,-4.313156 0,-6.470937 z M 65.581185,78.886505 c 2.339957,0 4.679915,0 7.019872,0 2.595512,0.27547 6.302394,-2.755635 6.722616,-7.194697 0,-13.298475 0,-26.597083 0,-39.895558 0,-3.890662 -1.555383,-7.441565 -5.533725,-8.837493 -2.736254,0 -5.472509,0 -8.208763,0 0,18.752272 0,37.175477 0,55.927748 z M 89.859162,32.807108 c 0,8.454695 0,16.90939 0,25.363951 -1.998995,8.995611 -3.998124,17.991087 -5.997119,26.986564 -6.766322,4.488115 -9.191152,3.898414 -18.823511,3.898414 -3.511874,0 -7.023748,0 -10.535623,0 0,-3.641923 0,-7.283847 0,-10.925771 0,-21.851542 0,-43.703085 0,-65.554627 6.145747,0 12.291493,0 18.437239,0 3.049015,0 8.774005,1.56955 12.393073,5.218959 3.883846,3.916324 4.525941,9.780853 4.525941,15.01251 z M 41.863905,45.352953 h 8.584477 v 10.047769 h -8.584477 z m 8.584477,-32.777314 v 9.950332 H 39.912893 V 78.130266 H 50.448382 V 89.056037 H 29.377271 V 12.575639 Z"
   id="path1030"
   style="stroke-width:1.33658" />
 </g>
</svg>
