<?xml version="1.0" encoding="UTF-8"?>
<!DOCTYPE svg PUBLIC "-//W3C//DTD SVG 1.1//EN" "http://www.w3.org/Graphics/SVG/1.1/DTD/svg11.dtd">
<!-- Creator: CorelDRAW -->
<svg xmlns="http://www.w3.org/2000/svg" xml:space="preserve" width="210mm" height="297mm" style="shape-rendering:geometricPrecision; text-rendering:geometricPrecision; image-rendering:optimizeQuality; fill-rule:evenodd; clip-rule:evenodd"
viewBox="0 0 210 297">
 <defs>
  <style type="text/css">
   <![CDATA[
    .fil0 {fill:#6D6E72}
   ]]>
  </style>
 </defs>
 <g id="Layer_x0020_1">
  <metadata id="CorelCorpID_0Corel-Layer"/>
  <path class="fil0" d="M32.9632 120.026l7.8824 0 0 49.0464 7.8825 0 0 8.1744 -15.7649 0 0 -57.2208zm86.158 -0.2919l-6.6831 0 -12.6201 57.2207 7.8825 0 8.0792 -40.762 8.0791 40.762 7.8825 0 -12.6201 -57.2207zm57.9156 0.2919c0,2.4816 0,4.9631 0,7.4446l-9.6341 0 0 49.7762 -7.8824 0 0 -49.7762 -3.1384 0c-0.9407,-2.5607 -2.3504,-5.0788 -5.4348,-7.4446 8.6966,0 17.3932,0 26.0897,0zm-42.3358 33.2647l0 21.483 -7.8825 -34.506c0,-6.7472 0,-13.4945 0,-20.2417l0.2331 0 0.2331 0c4.8156,0 9.6314,0 14.4471,0 2.2812,0 6.5646,1.1744 9.2722,3.9047 1.8811,1.8968 2.8569,4.6589 3.1521,7.2945 0.3981,3.5556 0.3981,7.3108 0,10.8664 -0.2952,2.6356 -1.271,5.3977 -3.1521,7.2945 -0.8862,0.8936 -1.9411,1.6204 -3.0394,2.194l8.4903 25.6667 -8.7625 0 -7.9244 -23.9561 -5.067 0zm11.8067 -19.053c0,-2.8417 -1.2649,-5.4345 -4.1401,-6.4433 -2.0473,0 -5.2134,0 -7.2606,0 0,5.9093 0,11.8187 0,17.728 2.0472,0 5.2133,0 7.2606,0 2.8752,-1.0089 4.1401,-3.6016 4.1401,-6.4433 0,-1.6144 0,-3.227 0,-4.8414zm-67.3354 35.4005c1.7507,0 3.5014,0 5.2521,0 1.9419,0.2061 4.7153,-2.0617 5.0297,-5.3829 0,-9.9496 0,-19.8993 0,-29.8489 0,-2.9109 -1.1637,-5.5676 -4.1402,-6.612 -2.0472,0 -4.0944,0 -6.1416,0 0,14.03 0,27.8138 0,41.8438zm18.1642 -34.4755c0,6.3256 0,12.6512 0,18.9767 -1.4956,6.7303 -2.9913,13.4605 -4.4869,20.1907 -5.0624,3.3579 -6.8766,2.9167 -14.0833,2.9167 -2.6275,0 -5.255,0 -7.8825,0 0,-2.7248 0,-5.4496 0,-8.1744 0,-16.3488 0,-32.6976 0,-49.0464 4.5981,0 9.1962,0 13.7943,0 2.2812,0 6.5645,1.1743 9.2722,3.9047 2.9058,2.9301 3.3862,7.3178 3.3862,11.232zm-35.9089 9.3865l6.4227 0 0 7.5175 -6.4227 0 0 -7.5175zm6.4227 -24.5232l0 7.4446 -7.8824 0 0 41.6018 7.8824 0 0 8.1744 -15.7649 0 0 -57.2208 15.7649 0z"/>
 </g>
</svg>
