<?xml version="1.0" encoding="UTF-8" standalone="no"?>
<!-- Generator: Adobe Illustrator 23.0.0, SVG Export Plug-In . SVG Version: 6.00 Build 0)  -->

<svg
   version="1.1"
   id="Audio_speaker"
   x="0px"
   y="0px"
   viewBox="0 0 240 100"
   xml:space="preserve"
   sodipodi:docname="listen_now_is.svg"
   width="240pt"
   height="100pt"
   inkscape:version="1.1.1 (c3084ef, 2021-09-22)"
   xmlns:inkscape="http://www.inkscape.org/namespaces/inkscape"
   xmlns:sodipodi="http://sodipodi.sourceforge.net/DTD/sodipodi-0.dtd"
   xmlns="http://www.w3.org/2000/svg"
   xmlns:svg="http://www.w3.org/2000/svg"><defs
   id="defs849" /><sodipodi:namedview
   id="namedview847"
   pagecolor="#505050"
   bordercolor="#ffffff"
   borderopacity="1"
   inkscape:pageshadow="0"
   inkscape:pageopacity="0"
   inkscape:pagecheckerboard="1"
   showgrid="false"
   inkscape:document-units="pt"
   units="pt"
   inkscape:zoom="3.125"
   inkscape:cx="142.56"
   inkscape:cy="78.4"
   inkscape:window-width="1920"
   inkscape:window-height="942"
   inkscape:window-x="1401"
   inkscape:window-y="25"
   inkscape:window-maximized="0"
   inkscape:current-layer="Audio_speaker" />
<style
   type="text/css"
   id="style824">
	.st0{enable-background:new    ;}
	.st1{fill:#FFFFFF;}
</style>
<g
   class="st0"
   id="g844"
   transform="matrix(3.0595939,0,0,3.0595939,-38.878558,-88.257614)">
	<path
   class="st1"
   d="m 24.8,56.2 c 0.2,-0.1 0.4,-0.1 0.5,0 0.2,0.1 0.3,0.2 0.3,0.4 0,0.2 0,0.3 -0.2,0.4 -0.5,0.4 -1.1,0.7 -1.6,1 -0.6,0.3 -1.2,0.6 -1.9,0.9 -0.7,0.3 -1.4,0.5 -2,0.6 -0.6,0.1 -1.3,0.2 -2,0.2 -0.7,0 -1.3,-0.2 -1.9,-0.4 -0.5,-0.2 -0.9,-0.5 -1.3,-0.9 -0.4,-0.4 -0.6,-0.8 -0.8,-1.3 -0.2,-0.5 -0.3,-1 -0.4,-1.5 -0.1,-0.6 -0.1,-1.1 -0.1,-1.6 0,-0.5 0.1,-1 0.1,-1.6 0.2,-1.8 0.5,-3.5 0.9,-5.3 0.4,-1.8 0.8,-3.7 1.4,-5.8 0.6,-2.1 1.1,-3.7 1.5,-5 0.4,-1.3 1,-3.1 1.7,-5.5 0.1,-0.2 0.2,-0.3 0.4,-0.3 0.2,0 0.3,0 0.5,0.2 0.1,0.1 0.2,0.3 0.1,0.5 -2.2,6.9 -3.7,12.6 -4.7,17.3 0,0.2 -0.1,0.6 -0.3,1.3 -0.1,0.6 -0.2,1.1 -0.3,1.4 -0.1,0.3 -0.1,0.8 -0.2,1.4 -0.1,0.6 -0.1,1.1 -0.1,1.5 0,0.4 0,0.8 0.1,1.3 0.1,0.5 0.2,0.9 0.3,1.3 0.3,0.6 0.6,1.1 1.1,1.5 0.5,0.3 1,0.5 1.7,0.5 0.6,0 1.2,0 1.9,-0.1 0.7,-0.1 1.3,-0.3 2,-0.6 0.7,-0.3 1.3,-0.6 1.8,-0.8 0.5,-0.4 1,-0.7 1.5,-1 z"
   id="path826" />
	<path
   class="st1"
   d="m 29,46.4 c 0.1,0 0.3,0 0.4,0.1 0.1,0.1 0.2,0.2 0.2,0.3 0,0.1 0,0.3 -0.1,0.4 -0.2,0.3 -0.5,0.7 -0.8,1 -0.3,0.4 -0.7,0.8 -1.3,1.4 -0.5,0.6 -1.1,1 -1.7,1.4 -0.6,0.3 -1.1,0.5 -1.6,0.5 -0.3,0 -0.6,-0.1 -0.9,-0.2 -0.3,-0.2 -0.5,-0.6 -0.6,-1.1 -0.1,-0.5 0,-1.2 0.1,-1.9 0.1,-0.7 0.3,-1.4 0.5,-1.9 0.2,-0.6 0.3,-1.1 0.6,-1.7 0,-0.1 0.1,-0.2 0.3,-0.3 0.1,-0.1 0.3,-0.1 0.4,0 0.1,0 0.2,0.1 0.2,0.2 0.1,0.1 0.1,0.2 0.1,0.2 0,0.1 0,0.2 0,0.3 -0.3,0.9 -0.6,1.7 -0.8,2.5 -0.2,0.8 -0.3,1.5 -0.3,1.9 0,0.5 0,0.8 0.1,0.9 0.5,0.3 1.2,0 2.2,-0.9 1,-0.8 1.9,-1.8 2.7,-2.9 0,-0.1 0.1,-0.2 0.3,-0.2 z m -4.9,-3.7 c -0.3,0 -0.4,-0.1 -0.5,-0.4 -0.1,-0.1 -0.1,-0.3 0,-0.4 0.1,-0.1 0.2,-0.2 0.3,-0.3 0,0 0.1,0 0.1,0 0.1,0 0.1,-0.1 0.2,-0.1 0.1,0 0.1,-0.1 0.2,-0.1 0.1,0 0.2,-0.1 0.3,-0.1 l 0.4,1 c -0.5,0.2 -0.8,0.3 -0.9,0.3 0,0.1 0,0.1 -0.1,0.1 z"
   id="path828" />
	<path
   class="st1"
   d="m 46.7,39.1 c 0.1,0 0.3,0 0.4,0 0.1,0.1 0.2,0.2 0.3,0.3 0.1,0.1 0,0.2 0,0.4 -0.2,0.6 -1,1 -2.2,1.4 -1.2,0.4 -2.8,0.5 -4.7,0.3 -0.7,-0.1 -1.3,-0.1 -1.9,-0.2 -0.7,1.4 -1.5,2.8 -2.2,4 -0.1,0.3 -0.2,0.6 -0.4,0.9 0,0.1 0,0.2 0,0.2 -0.2,1.2 -0.3,2.5 -0.2,3.8 0.1,1.3 0.3,2.1 0.6,2.4 0.1,0.1 0.3,0.2 0.4,0.2 0.3,0 0.6,-0.2 1,-0.6 0.4,-0.3 0.6,-0.7 0.8,-1 0.1,-0.1 0.2,-0.2 0.3,-0.2 0.1,0 0.3,0 0.4,0.1 0.1,0.1 0.2,0.2 0.2,0.3 0,0.1 0,0.3 -0.1,0.4 -0.1,0.1 -0.1,0.2 -0.2,0.3 -0.1,0.1 -0.2,0.2 -0.4,0.5 -0.2,0.2 -0.4,0.4 -0.6,0.6 -0.2,0.2 -0.4,0.3 -0.7,0.5 -0.3,0.1 -0.5,0.2 -0.8,0.3 -0.1,0 -0.1,0 -0.2,0 -0.4,0 -0.7,-0.1 -1,-0.4 C 35,53.2 34.7,52.5 34.6,51.4 34.5,50.3 34.4,49.2 34.5,48 33.9,48.6 33,49.2 32,49.9 c 0.4,1 0.3,1.9 -0.2,2.7 -0.5,0.8 -1.3,1.4 -2.1,1.9 -0.9,0.5 -1.7,0.7 -2.3,0.7 -0.2,0 -0.4,0 -0.5,-0.1 -0.6,-0.1 -0.9,-0.5 -1,-1.1 0,-0.3 0,-0.6 0.2,-0.9 0.1,-0.3 0.3,-0.6 0.5,-0.8 0.2,-0.2 0.5,-0.5 0.9,-0.8 0.4,-0.3 0.8,-0.5 1.1,-0.7 0.3,-0.2 0.7,-0.4 1.3,-0.8 0.5,-0.3 0.8,-0.4 0.9,-0.5 -0.2,-0.4 -0.6,-0.9 -1.1,-1.5 -0.3,-0.3 -0.4,-0.6 -0.6,-0.7 -0.1,-0.2 -0.2,-0.4 -0.4,-0.6 -0.1,-0.2 -0.2,-0.4 -0.2,-0.6 0,-0.4 0,-0.8 0.2,-1.2 0.1,-0.4 0.4,-0.7 0.6,-1 0.3,-0.3 0.5,-0.5 0.8,-0.7 0.3,-0.2 0.6,-0.4 0.9,-0.5 0.3,-0.1 0.5,-0.2 0.7,-0.3 0.2,-0.1 0.2,-0.1 0.3,-0.1 0.1,0 0.3,0 0.4,0 0.1,0.1 0.2,0.2 0.2,0.3 0,0.1 0,0.3 -0.1,0.4 -0.1,0.1 -0.2,0.2 -0.3,0.3 -0.1,0 -0.2,0 -0.3,0.1 -0.1,0 -0.4,0.1 -0.7,0.3 -0.3,0.1 -0.6,0.3 -0.8,0.5 -0.2,0.2 -0.5,0.4 -0.6,0.8 -0.2,0.3 -0.3,0.6 -0.2,1 0,0.2 0.3,0.6 0.9,1.4 0.5,0.7 0.9,1.2 1.1,1.6 1.6,-1 2.7,-1.9 3.3,-2.9 0.3,-1.5 0.7,-3.1 1.1,-4.6 -0.8,0 -1.6,0 -2.3,-0.1 -0.7,0 -1.3,0 -1.7,0 -0.5,0 -0.9,0.1 -1.2,0.1 -0.3,0 -0.6,0.1 -0.8,0.1 -0.2,0.1 -0.4,0.1 -0.5,0.2 -0.1,0 -0.2,0.1 -0.3,0.1 -0.1,0.1 -0.2,0.2 -0.4,0.2 -0.1,0 -0.3,-0.1 -0.4,-0.2 -0.1,-0.1 -0.1,-0.2 -0.1,-0.4 0,-0.1 0.1,-0.3 0.2,-0.4 0.8,-0.8 3.4,-1 7.8,-0.8 1.3,-4.5 2.4,-7.1 3.5,-7.8 0.3,-0.2 0.6,-0.3 0.9,-0.2 0.3,0.1 0.6,0.3 0.7,0.6 0.4,0.9 -0.3,3.4 -2.3,7.2 0,0.1 -0.1,0.2 -0.2,0.4 0.5,0 1,0.1 1.5,0.1 0.8,0.1 1.5,0.1 2.1,0 0.6,0 1.1,-0.1 1.6,-0.2 0.5,-0.1 0.8,-0.2 1.2,-0.3 0.3,-0.1 0.5,-0.3 0.7,-0.4 0.2,-0.1 0.3,-0.2 0.3,-0.3 0.2,-0.1 0.3,-0.2 0.4,-0.3 z M 31.1,51.7 c 0.3,-0.4 0.3,-0.9 0.2,-1.5 -0.3,0.2 -0.6,0.3 -0.8,0.5 -0.4,0.2 -0.7,0.4 -0.9,0.5 -0.2,0.1 -0.5,0.3 -0.8,0.5 -0.3,0.2 -0.6,0.4 -0.8,0.5 -0.2,0.1 -0.3,0.3 -0.5,0.5 -0.2,0.2 -0.3,0.3 -0.4,0.5 -0.1,0.2 -0.1,0.4 -0.1,0.5 0,0.1 0.1,0.2 0.2,0.2 0.4,0.1 1.1,0 1.9,-0.5 0.8,-0.3 1.5,-0.9 2,-1.7 z m 5.7,-9.3 c 0.2,-0.3 0.4,-0.7 0.6,-1.1 -0.1,0 -0.2,0 -0.3,0 -0.1,0.4 -0.2,0.8 -0.3,1.1 z m 3.6,-9.1 c -0.8,0.5 -1.8,2.8 -3,7 0.1,0 0.3,0 0.5,0 0.6,-1.2 1.1,-2.3 1.6,-3.3 0.4,-1 0.7,-1.8 0.9,-2.5 0.2,-0.7 0.2,-1.1 0,-1.2 0.1,-0.1 0.1,-0.1 0,0 z"
   id="path830" />
	<path
   class="st1"
   d="m 46.5,47.3 c 0.1,0 0.3,0 0.4,0.1 0.1,0.1 0.2,0.2 0.2,0.4 0,0.1 0,0.3 -0.1,0.4 -0.2,0.2 -0.5,0.5 -0.8,0.8 -0.3,0.3 -0.8,0.7 -1.4,1.2 -0.6,0.5 -1.2,0.9 -1.9,1.2 -0.7,0.3 -1.3,0.5 -1.8,0.5 -0.5,0 -1,-0.2 -1.4,-0.5 -0.4,-0.4 -0.6,-0.9 -0.7,-1.5 -0.1,-0.6 -0.1,-1.2 0.1,-1.8 0.2,-0.6 0.4,-1.2 0.7,-1.9 0.4,-0.8 0.9,-1.4 1.5,-1.9 0.6,-0.5 1.2,-0.7 1.8,-0.5 0.6,0.2 0.9,0.5 1,0.9 0,0.3 -0.1,0.7 -0.4,1.1 -0.3,0.4 -0.7,0.8 -1.2,1.2 -0.5,0.4 -0.9,0.8 -1.4,1 -0.4,0.3 -0.8,0.6 -1.3,0.9 -0.1,0.8 0.1,1.3 0.4,1.6 0.2,0.2 0.5,0.3 0.9,0.2 0.4,-0.1 0.8,-0.2 1.2,-0.4 0.4,-0.2 0.9,-0.5 1.4,-0.8 0.5,-0.3 0.9,-0.7 1.3,-1 0.4,-0.3 0.7,-0.7 1,-1 0.3,-0.1 0.4,-0.2 0.5,-0.2 z m -5.8,-0.6 c -0.1,0.2 -0.3,0.5 -0.4,0.7 0.8,-0.5 1.4,-1.1 2,-1.5 0.6,-0.4 0.8,-0.8 0.8,-1 0,0 -0.1,0 -0.2,-0.1 0,0 -0.1,0 -0.1,0 -0.3,0 -0.6,0.2 -1,0.5 -0.5,0.3 -0.8,0.8 -1.1,1.4 z"
   id="path832" />
	<path
   class="st1"
   d="m 53.8,50.3 c 0.1,0 0.3,0 0.4,0.2 0.1,0.1 0.1,0.2 0.1,0.4 0,0.2 -0.1,0.3 -0.2,0.4 -0.5,0.5 -1,0.7 -1.5,0.7 -0.3,0 -0.5,-0.1 -0.7,-0.2 -0.2,-0.1 -0.4,-0.4 -0.5,-0.7 -0.1,-0.3 -0.2,-0.6 -0.2,-0.9 0,-0.3 -0.1,-0.7 -0.1,-1.2 -0.1,-1 -0.2,-1.5 -0.3,-1.7 -0.4,0.1 -1.2,1 -2.7,2.8 -0.5,0.6 -0.9,1.1 -1.2,1.4 -0.3,0.3 -0.5,0.4 -0.6,0.5 -0.2,0.1 -0.3,0.1 -0.5,-0.1 -0.2,-0.1 -0.2,-0.3 -0.2,-0.5 0.1,-0.9 0.6,-3.3 1.6,-7.1 0,-0.1 0.1,-0.2 0.2,-0.3 0.1,-0.1 0.2,-0.1 0.4,-0.1 0.1,0 0.2,0.1 0.3,0.2 0.1,0.1 0.1,0.3 0.1,0.4 -0.5,1.8 -0.9,3.6 -1.3,5.4 0.1,-0.1 0.2,-0.3 0.4,-0.5 1,-1.2 1.7,-2 2.3,-2.5 0.5,-0.5 1,-0.7 1.4,-0.6 0.2,0 0.4,0.1 0.5,0.2 0.1,0.1 0.2,0.3 0.3,0.6 0.1,0.3 0.1,0.6 0.2,0.8 0,0.2 0.1,0.6 0.1,1 0.1,1.3 0.3,2 0.4,2.1 0.1,0.1 0.2,0 0.4,-0.1 0.2,-0.1 0.4,-0.2 0.5,-0.3 0.2,-0.2 0.3,-0.3 0.4,-0.3 z"
   id="path834" />
	<path
   class="st1"
   d="m 66.9,50.3 c 0.1,0 0.3,0 0.4,0.2 0.1,0.1 0.1,0.2 0.1,0.4 0,0.2 -0.1,0.3 -0.2,0.4 -0.5,0.5 -1,0.7 -1.5,0.7 -0.3,0 -0.5,-0.1 -0.7,-0.2 -0.2,-0.1 -0.4,-0.4 -0.5,-0.7 -0.1,-0.3 -0.2,-0.6 -0.2,-0.9 0,-0.3 -0.1,-0.7 -0.1,-1.2 -0.1,-1 -0.2,-1.5 -0.3,-1.7 -0.4,0.1 -1.2,1 -2.7,2.8 -0.5,0.6 -0.9,1.1 -1.1,1.4 -0.3,0.3 -0.5,0.4 -0.6,0.5 -0.2,0.1 -0.3,0.1 -0.5,-0.1 -0.2,-0.1 -0.2,-0.3 -0.2,-0.5 0.1,-0.9 0.6,-3.3 1.6,-7.1 0,-0.1 0.1,-0.2 0.2,-0.3 0.1,-0.1 0.2,-0.1 0.4,-0.1 0.1,0 0.2,0.1 0.3,0.2 0.1,0.1 0.1,0.3 0.1,0.4 -0.5,1.8 -0.9,3.6 -1.3,5.4 0.1,-0.1 0.2,-0.3 0.4,-0.5 1,-1.2 1.7,-2 2.3,-2.5 0.5,-0.5 1,-0.7 1.4,-0.6 0.2,0 0.4,0.1 0.5,0.2 0.1,0.1 0.2,0.3 0.3,0.6 0.1,0.3 0.1,0.6 0.2,0.8 0,0.2 0.1,0.6 0.1,1 0.1,1.3 0.3,2 0.4,2.1 0.1,0.1 0.2,0 0.4,-0.1 0.2,-0.1 0.4,-0.2 0.5,-0.3 0.1,-0.2 0.2,-0.3 0.3,-0.3 z"
   id="path836" />
	<path
   class="st1"
   d="m 74.1,44.4 c 0.1,0 0.3,0.1 0.3,0.2 0.1,0.1 0.1,0.2 0.1,0.4 0,0.1 -0.1,0.3 -0.2,0.3 -0.9,0.7 -2,0.9 -3.3,0.6 0.1,0.5 0,1.2 -0.1,2.2 -0.1,0.4 -0.3,1 -0.6,1.7 -0.3,0.7 -0.7,1.2 -1.2,1.5 -0.3,0.2 -0.6,0.3 -0.9,0.3 -0.2,0 -0.3,0 -0.5,-0.1 -1,-0.4 -1.4,-1.5 -1.2,-3.3 0,-0.1 0,-0.2 0,-0.2 0,-0.4 0.2,-0.9 0.5,-1.5 0.3,-0.6 0.6,-1 1.1,-1.4 0.5,-0.4 1,-0.6 1.5,-0.6 0.4,0 0.6,0.1 0.9,0.4 1.4,0.5 2.4,0.5 3.2,-0.2 0.1,-0.3 0.2,-0.3 0.4,-0.3 z M 69.9,48 c 0.2,-1.3 0.1,-2.1 0,-2.4 -0.1,0 -0.3,-0.1 -0.4,-0.2 -0.4,0.1 -0.8,0.4 -1.2,1 -0.4,0.6 -0.6,1.1 -0.7,1.6 0,0 0,0.1 0,0.2 -0.1,0.5 -0.1,0.9 0,1.4 0.1,0.5 0.2,0.7 0.5,0.9 0.2,0.1 0.3,0 0.5,-0.1 0.2,-0.1 0.4,-0.4 0.6,-0.7 0.2,-0.3 0.4,-0.7 0.5,-1 0.1,-0.3 0.2,-0.6 0.2,-0.7 z"
   id="path838" />
	<path
   class="st1"
   d="m 83,44.8 c 0.1,0 0.3,0.1 0.4,0.2 0.1,0.1 0.1,0.2 0.1,0.4 -0.1,0.6 -0.5,1.6 -1.4,2.8 -0.8,1.3 -1.6,2.1 -2.3,2.4 -0.5,0.2 -0.9,0.2 -1.3,0 -0.7,-0.5 -1,-1.6 -0.8,-3.3 -1.2,1.6 -2.2,2.7 -2.9,3.4 -0.7,0.7 -1.4,1 -1.8,1 -0.1,0 -0.3,0 -0.4,-0.1 -0.3,-0.2 -0.5,-0.6 -0.5,-1.2 0,-0.6 0.1,-1.2 0.3,-2 0.2,-0.8 0.5,-1.5 0.8,-2.2 0.3,-0.7 0.6,-1.4 0.9,-2.1 0.1,-0.1 0.2,-0.2 0.3,-0.3 0.1,0 0.3,0 0.4,0 0.1,0.1 0.2,0.2 0.3,0.3 0.1,0.1 0,0.3 0,0.4 -0.6,1.4 -1.2,2.7 -1.5,3.9 -0.4,1.2 -0.5,2 -0.3,2.2 0.4,-0.1 1,-0.7 2.1,-1.9 1,-1.2 2.1,-2.6 3.1,-4.2 0.2,-0.2 0.4,-0.3 0.6,-0.2 0.1,0 0.2,0.1 0.3,0.2 0.1,0.1 0.1,0.2 0,0.4 -0.2,0.6 -0.3,1.2 -0.4,1.9 -0.1,0.7 -0.2,1.3 -0.1,1.8 0,0.5 0.1,0.9 0.3,1 0.1,0 0.2,0 0.3,0 0.6,-0.3 1.2,-1 1.9,-2.1 0.7,-1.1 1.1,-1.9 1.2,-2.3 0,-0.1 0.1,-0.3 0.2,-0.4 0,0 0.1,0 0.2,0 z"
   id="path840" />
	<path
   class="st1"
   d="m 85.8,52.2 c 0.1,-0.1 0.2,-0.1 0.4,-0.1 0.1,0 0.3,0.1 0.4,0.2 0.2,0.3 0.2,0.5 -0.1,0.7 l -0.6,0.6 c -0.1,0.1 -0.2,0.1 -0.4,0.1 -0.1,0 -0.3,-0.1 -0.4,-0.2 -0.2,-0.2 -0.2,-0.5 0.1,-0.7 z m 3.8,-21.1 c 0.1,-0.2 0.3,-0.2 0.5,-0.2 0.2,0 0.3,0.1 0.4,0.3 0.1,0.2 0,0.3 -0.1,0.5 -0.2,0.3 -0.4,0.6 -0.6,1.1 -0.2,0.4 -0.3,0.8 -0.4,1 -0.1,0.2 -0.2,0.7 -0.4,1.3 -0.2,0.7 -0.3,1 -0.3,1 -0.4,1.5 -0.8,3.1 -1.1,4.6 -0.5,2.8 -0.8,5.7 -0.8,8.8 0,0.2 -0.1,0.3 -0.3,0.4 -0.2,0.1 -0.3,0 -0.5,-0.1 -0.2,-0.1 -0.3,-0.3 -0.3,-0.5 0.1,-3.5 0.4,-6.8 1.1,-10.1 0.3,-1.4 0.7,-2.9 1.1,-4.2 0,-0.1 0.1,-0.4 0.2,-0.8 0.1,-0.4 0.2,-0.7 0.3,-0.9 0.1,-0.2 0.2,-0.4 0.3,-0.8 0.1,-0.3 0.3,-0.6 0.4,-0.9 0.2,-0.1 0.4,-0.3 0.5,-0.5 z"
   id="path842" />
</g>
</svg>
