<?xml version="1.0" encoding="UTF-8" standalone="no"?>
<svg
   version="1.0"
   viewBox="0 0 400 400"
   id="svg1767"
   sodipodi:docname="nestmedia_is.svg"
   width="400pt"
   height="400pt"
   inkscape:version="1.1.1 (c3084ef, 2021-09-22)"
   xmlns:inkscape="http://www.inkscape.org/namespaces/inkscape"
   xmlns:sodipodi="http://sodipodi.sourceforge.net/DTD/sodipodi-0.dtd"
   xmlns="http://www.w3.org/2000/svg"
   xmlns:svg="http://www.w3.org/2000/svg">
  <defs
     id="defs1771" />
  <sodipodi:namedview
     id="namedview1769"
     pagecolor="#505050"
     bordercolor="#ffffff"
     borderopacity="1"
     inkscape:pageshadow="0"
     inkscape:pageopacity="0"
     inkscape:pagecheckerboard="1"
     showgrid="false"
     inkscape:document-units="pt"
     units="pt"
     inkscape:zoom="0.69444444"
     inkscape:cx="464.4"
     inkscape:cy="311.04"
     inkscape:window-width="1920"
     inkscape:window-height="942"
     inkscape:window-x="1440"
     inkscape:window-y="25"
     inkscape:window-maximized="1"
     inkscape:current-layer="svg1767" />
  <path
     d="M 185.92461,10.544777 C 153.5533,13.355854 121.48946,28.377545 98.298072,51.56893 84.067,65.800007 73.086231,83.413161 66.541693,102.38793 c -6.281001,18.31592 -8.69677,34.47961 -8.301462,55.73838 0.219615,12.51808 1.054153,19.76539 3.206385,28.28647 3.996999,15.94407 11.112538,27.45192 20.468153,33.07408 4.568001,2.76714 11.947078,3.86523 18.184151,2.72322 10.4537,-1.88869 21.34662,-10.80507 29.56023,-24.24554 1.71301,-2.855 14.75816,-28.28646 38.08132,-74.31784 8.60891,-17.04216 10.93684,-21.3027 11.2443,-20.64384 0.17569,0.48315 3.60169,11.85922 7.55477,25.25577 3.95307,13.39653 11.68353,39.48684 17.21785,57.93453 8.91638,29.82378 10.19015,33.73293 11.37607,35.00669 2.67931,2.855 7.07162,2.855 9.75092,0.0879 0.92239,-0.96631 11.15646,-20.99523 29.20885,-57.23177 15.32915,-30.70223 28.76962,-57.18784 29.86769,-58.85692 4.69978,-7.115537 9.707,-11.859231 15.19738,-14.582466 2.24009,-1.098074 2.98677,-1.229841 6.89594,-1.229841 5.09507,0 6.06137,0.3953 9.79484,3.909154 7.423,6.983763 12.43022,20.424233 14.62638,39.135453 0.74669,6.19316 0.74669,24.42124 0,30.96577 -1.97653,18.18416 -6.19315,32.89839 -13.52831,47.61262 -9.00423,18.00846 -21.61015,33.07407 -37.77384,45.19684 -18.272,13.70401 -38.52054,22.269 -61.79977,26.13423 -6.50062,1.05416 -8.08185,1.14201 -19.37008,1.14201 -10.49762,0 -13.22084,-0.13178 -18.57946,-0.96631 -26.17815,-4.08485 -49.94054,-15.24131 -71.68246,-33.689 l -5.49038,-4.65584 4.91938,4.7876 c 23.54276,23.0157 52.83946,36.76362 84.46408,39.66255 7.20338,0.61492 22.35684,0.30746 28.98923,-0.70277 54.55246,-7.994 97.77277,-43.52777 114.37569,-93.99539 5.18292,-15.72446 7.37907,-30.6583 7.37907,-49.63307 0,-20.64385 -2.85499,-35.402 -9.35561,-48.09577 -3.997,-7.862239 -9.22385,-13.79185 -14.88993,-16.866465 -5.13899,-2.811077 -12.82553,-3.601692 -19.15045,-2.020462 -7.02769,1.756923 -12.60593,5.358616 -19.15046,12.210617 -7.20339,7.598696 -7.99401,9.092079 -41.19985,74.66923 -9.04816,17.92062 -16.559,32.59092 -16.69077,32.59092 -0.13177,0 -3.07462,-9.61915 -6.54454,-21.43446 -5.97354,-20.33638 -24.50908,-82.443613 -27.32016,-91.579615 -0.87845,-2.855 -1.75692,-4.787614 -2.63538,-5.797845 -2.41577,-2.723231 -6.32492,-2.98677 -9.35561,-0.614924 -0.83454,0.658847 -9.75092,18.052385 -29.91162,58.329844 -31.14146,62.19508 -30.79007,61.53624 -37.51031,67.77331 -1.80084,1.66908 -4.43622,3.55777 -6.45668,4.568 -3.250315,1.62515 -3.557781,1.713 -7.598701,1.713 -5.226847,0 -6.632385,-0.61493 -10.585462,-4.65585 -9.882693,-10.05843 -14.97777,-30.52659 -14.362846,-57.67105 0.307461,-14.14323 1.449462,-22.57645 4.699769,-34.74315 2.284,-8.60892 4.787615,-15.197387 9.00423,-23.718458 6.41277,-13.001234 13.220847,-22.752158 22.62038,-32.459158 26.13423,-26.924845 63.86416,-42.253999 100.80347,-40.98023 31.71245,1.142 60.17461,12.781615 87.27515,35.753385 l 5.40254,4.568 -4.61193,-4.436231 C 270.38869,27.674777 242.805,14.234315 211.7953,10.808315 205.69,10.149469 192.29346,10.0177 185.92461,10.544777 Z M 319.89,343.56954 v 9.3117 l -1.36162,-1.40554 c -1.84477,-1.84477 -5.31469,-2.855 -10.05838,-2.89892 -6.80807,-0.0439 -10.45369,1.93262 -12.38631,6.6763 -0.92238,2.284 -0.96631,3.20639 -1.01023,11.06862 0,9.97054 0.48316,12.12277 3.33816,14.97777 2.41577,2.41577 5.35861,3.16246 11.33215,2.94284 5.139,-0.17569 7.46693,-1.01023 9.22384,-3.25031 l 0.92239,-1.18592 v 4.08485 h 4.83154 V 334.25785 H 319.89 Z m -4.39231,10.58547 c 2.59146,1.27377 3.426,2.89892 3.95308,7.51085 0.571,4.69976 -0.0879,12.43022 -1.18592,14.71422 -1.22985,2.4597 -3.82131,3.55777 -8.47716,3.55777 -4.39231,0 -7.02769,-0.96631 -8.03792,-2.94284 -2.15223,-4.08485 -2.15223,-17.83278 -0.0439,-21.08308 0.96631,-1.5373 2.59146,-2.37184 5.09507,-2.76715 3.20639,-0.43924 6.36885,-0.0879 8.69677,1.01023 z M 342.73,337.11285 v 2.855 h 4.83154 v -5.71 H 342.73 Z m -197.30246,7.77439 -0.13177,4.08484 -2.284,0.13178 -2.32792,0.13176 v 3.86523 l 2.32792,0.13177 2.284,0.13178 0.21962,13.17692 c 0.21961,12.07885 0.30745,13.30869 1.09807,14.58246 1.22985,2.1083 3.33816,2.94284 7.81831,3.11853 7.8183,0.35139 10.849,-2.41577 10.849,-9.92661 v -2.72323 h -4.74369 l -0.1757,3.33815 c -0.21961,4.26054 -0.92238,5.00723 -4.83154,5.00723 -2.15222,0 -2.76714,-0.17569 -3.64561,-1.09807 l -1.09807,-1.05416 v -24.64084 h 13.17692 v -3.95308 h -13.17692 v -8.34538 h -5.22685 z M 19.456154,348.6207 c -3.030693,0.35138 -5.666077,1.49339 -7.027692,3.03069 l -1.317692,1.53731 v -3.997 H 5.84 v 34.69923 h 5.182923 l 0.175692,-12.21062 c 0.131769,-11.20038 0.219616,-12.34238 1.098077,-14.18715 1.142001,-2.54754 3.074615,-3.77739 6.764154,-4.30446 3.030693,-0.39531 7.159462,-0.0439 8.740692,0.83454 2.020462,1.05415 2.196155,2.54754 2.196155,16.69076 v 13.17693 h 5.314691 l -0.131768,-14.62639 c -0.13177,-12.82553 -0.219616,-14.75815 -0.878463,-15.988 -0.922384,-1.62515 -2.72323,-2.98677 -5.095077,-3.82131 -1.888691,-0.65884 -7.335153,-1.14199 -9.750922,-0.83453 z m 43.176384,0.13177 c -7.994,1.142 -10.190154,5.00723 -10.234077,17.92061 0,10.40977 1.581231,14.62639 6.237078,16.60293 2.415769,0.9663 13.045154,1.40554 16.734692,0.61492 4.743692,-0.96631 6.983769,-3.33815 7.247308,-7.68653 l 0.175692,-2.85501 h -5.358616 v 1.53731 c 0,2.41577 -1.054154,4.04092 -2.986768,4.65584 -0.966308,0.26354 -3.821308,0.39531 -6.98377,0.30747 -4.568,-0.13177 -5.534307,-0.26354 -6.588462,-1.05416 -1.800846,-1.31769 -2.679307,-3.46992 -3.030692,-7.55477 l -0.307462,-3.60169 h 25.25577 l -0.175692,-5.62216 c -0.219616,-6.19314 -0.790616,-8.12576 -3.118539,-10.54153 -0.790616,-0.83454 -2.284,-1.713 -3.513846,-2.06439 -2.679308,-0.79061 -9.838769,-1.142 -13.352616,-0.65884 z m 11.859231,4.83154 c 1.756924,0.87846 2.591462,2.81108 2.855,6.45669 l 0.219616,3.20639 h -19.985 l 0.307461,-2.98677 c 0.483154,-4.39231 1.625154,-6.14924 4.611923,-7.07162 2.108308,-0.61492 10.453693,-0.35139 11.991,0.39531 z m 32.678771,-4.78762 c -4.26054,0.48315 -6.63239,1.75693 -7.818306,4.1727 -0.790619,1.71299 -0.922386,2.54753 -0.746697,6.1053 0.131767,3.29423 0.351388,4.39231 1.054152,5.35861 2.196161,2.89893 4.084851,3.426 14.406771,3.99701 7.994,0.43922 8.1697,0.571 8.1697,5.53431 0,3.68954 -0.571,4.78761 -2.98677,5.57822 -2.19616,0.79062 -11.28824,0.79062 -13.133,0 -1.62516,-0.65884 -2.76716,-2.76715 -2.76716,-5.05115 v -1.58123 h -5.270769 v 2.32793 c 0,2.89892 1.40554,5.84177 3.425999,7.20337 2.284,1.53732 5.71,1.97654 13.00123,1.80085 5.84177,-0.13176 6.89592,-0.26353 8.69677,-1.14199 2.54754,-1.27378 3.77739,-3.16247 4.39231,-6.80808 0.96631,-5.71 -1.36162,-10.54154 -5.57824,-11.63962 -0.9663,-0.26354 -4.61191,-0.61493 -8.12576,-0.74669 -3.51385,-0.17569 -6.98377,-0.48316 -7.73046,-0.70277 -1.713,-0.52707 -2.37185,-1.93261 -2.37185,-5.139 0,-3.07461 0.74669,-4.26054 2.98677,-4.91938 2.45969,-0.65885 10.80508,-0.571 12.60592,0.17568 1.49339,0.61493 1.53731,0.7467 2.24009,4.08486 0.17568,0.92238 0.43922,1.01023 2.59145,1.01023 h 2.41577 v -2.10831 c 0,-4.568 -2.50361,-6.72023 -8.78461,-7.51085 -4.12878,-0.52708 -6.23708,-0.52708 -10.67331,0 z m 84.02485,0.0879 c -2.89893,0.65885 -5.3147,2.06439 -6.14924,3.60169 -0.87846,1.66908 -1.31768,1.31769 -1.31768,-1.09808 v -2.19615 h -4.83154 v 34.69923 h 4.74368 l 0.1757,-11.991 c 0.21961,-12.91339 0.39531,-14.01146 2.63538,-16.38331 1.62515,-1.713 4.04092,-2.45969 8.08185,-2.45969 3.33816,0.0439 5.00723,0.61492 6.54453,2.284 0.83455,0.92238 0.87847,1.713 1.01023,14.75815 l 0.1757,13.79185 h 5.139 l 0.13177,-13.44046 0.13177,-13.44046 1.62515,-1.44946 c 1.93262,-1.80085 4.39231,-2.50362 8.52108,-2.50362 3.51385,0 5.44646,0.74669 6.63238,2.59146 0.70277,1.05415 0.79062,2.67931 0.92239,14.71424 l 0.17569,13.5283 h 4.78762 l -0.13178,-14.40677 -0.13176,-14.36285 -1.09808,-1.97653 c -0.87846,-1.53731 -1.66908,-2.24008 -3.68954,-3.25031 -2.32792,-1.18592 -3.03069,-1.31769 -6.80808,-1.31769 -5.57822,0 -8.12577,0.83453 -10.62938,3.55777 -1.142,1.27377 -1.93262,1.84477 -2.06438,1.49338 -0.39531,-1.22984 -2.81108,-3.51384 -4.39231,-4.12876 -2.41577,-0.96631 -7.33515,-1.27378 -10.19015,-0.61493 z m 67.378,-0.13177 c -5.00724,0.70276 -7.73046,2.81108 -9.26777,7.11554 -0.65885,1.97654 -0.79062,3.68953 -0.79062,10.89292 0.0439,7.86223 0.0878,8.78461 1.01023,11.06862 2.15224,5.31469 5.49038,6.67631 15.68054,6.41276 6.10531,-0.13176 6.80807,-0.26353 9.04815,-1.36161 2.89893,-1.40554 4.1727,-3.38208 4.61193,-7.02769 l 0.30746,-2.50362 h -5.84177 v 1.49339 c 0,4.17269 -1.66908,5.09507 -8.96031,5.09507 -8.565,0 -9.83877,-1.09807 -10.62938,-9.09207 l -0.30747,-3.20639 12.69377,-0.0878 12.69377,-0.13178 -0.13177,-4.61192 c -0.0878,-2.54753 -0.43923,-5.66608 -0.79061,-6.93984 -0.87846,-3.16247 -3.16246,-5.62216 -5.92962,-6.4567 -2.76715,-0.79061 -9.88269,-1.142 -13.39653,-0.65884 z m 11.94707,4.9633 c 1.80085,0.92239 2.81108,3.46993 2.81108,6.89593 v 2.63539 h -19.80931 l 0.26354,-2.54754 c 0.79061,-6.80808 2.45969,-8.03793 10.76115,-7.86224 3.29424,0.0878 5.00723,0.35139 5.97354,0.87846 z m 103.83415,-5.00722 c -6.19314,0.87846 -7.8183,2.37184 -8.56499,7.8183 l -0.30747,2.32793 h 2.67932 c 2.63538,0 2.6793,-0.0439 2.6793,-1.22985 0.0439,-3.64561 2.32792,-4.91939 9.00423,-4.91939 4.08485,0 5.05115,0.13177 6.281,0.87847 2.06439,1.27377 2.72323,3.20639 2.72323,7.90615 v 3.997 l -1.05415,-0.83454 c -1.71301,-1.31769 -5.75393,-1.97653 -11.50785,-1.80084 -6.58846,0.21962 -9.00423,1.22985 -10.62939,4.3923 -1.27376,2.54754 -1.71299,7.33516 -0.96631,10.4537 1.22986,5.13899 4.83154,6.80808 13.96755,6.54453 5.84176,-0.17569 7.33515,-0.57099 9.707,-2.72322 l 1.05415,-0.92239 -0.30746,1.62515 -0.30746,1.66908 H 394.12 v -13.30869 c 0,-14.88993 -0.21961,-16.47116 -2.72323,-19.06261 -0.83454,-0.87847 -2.284,-1.71301 -3.55777,-2.10832 -2.59146,-0.79061 -10.19015,-1.18592 -13.48439,-0.70276 z m 9.75092,18.53553 c 3.0307,0.65885 4.56801,2.19616 4.96332,4.96331 0.21961,1.27377 0.13177,2.76716 -0.1757,3.82131 -0.79061,2.67931 -2.98677,3.55777 -9.09208,3.82131 -5.49038,0.21962 -7.59868,-0.21961 -8.91638,-1.93262 -1.75692,-2.24008 -1.5373,-7.86223 0.35139,-9.57523 1.58123,-1.44946 8.47715,-2.02046 12.86945,-1.09808 z M 342.73,366.54132 v 17.34961 h 4.83154 V 349.1917 H 342.73 Z"
     id="path1765"
     style="stroke-width:0.439231" />
</svg>
