<?xml version="1.0" encoding="UTF-8"?>
<!DOCTYPE svg PUBLIC "-//W3C//DTD SVG 1.1//EN" "http://www.w3.org/Graphics/SVG/1.1/DTD/svg11.dtd">
<!-- Creator: CorelDRAW -->
<svg xmlns="http://www.w3.org/2000/svg" xml:space="preserve" width="210mm" height="297mm" style="shape-rendering:geometricPrecision; text-rendering:geometricPrecision; image-rendering:optimizeQuality; fill-rule:evenodd; clip-rule:evenodd"
viewBox="0 0 210 297">
 <defs>
  <style type="text/css">
   <![CDATA[
    .fil1 {fill:white}
    .fil0 {fill:#2A2A2A}
    .fil2 {fill:#FFC82F}
   ]]>
  </style>
 </defs>
 <g id="Layer_x0020_1">
  <metadata id="CorelCorpID_0Corel-Layer"/>
  <path class="fil0" d="M61.1476 178.025l-7.6723 0 -2.2599 0 0 2.2605 0 1.6233 0 2.2607 0 3.8197 2.2599 0 0 -3.8197 7.6723 0 0 -2.2607 -7.6723 0 0 -1.6233 7.6723 0 0 -2.2605zm76.0181 7.7038l-7.6721 0 0 -1.5593 7.6721 0 0 -2.2607 -7.6721 0 0 -1.6233 7.6721 0 0 -2.2605 -7.6721 0 -2.2606 0 0 2.2605 0 1.6233 0 2.2607 0 1.5593 0 2.2604 2.2606 0 7.6721 0 0 -2.2604zm56.8791 0l-7.6724 0 0 -5.4433 7.6724 0 0 -2.2605 -7.6724 0 -2.2599 0 0 2.2605 0 5.4433 0 2.2604 2.2599 0 7.6724 0 0 -2.2604zm-13.6689 -7.6879l0 9.9327 2.2599 0 0 -9.9327 -2.2599 0zm-11.6982 2.2446l0 1.6233 0 1.4741 0 0.7866 7.6719 0 0 1.5593 -7.6719 0 0 2.2604 7.6719 0 2.2602 0 0 -2.2604 0 -1.5593 0 -1.6947 0 -0.566 -7.6719 0 0 -1.6233 7.6719 0 0 -2.2605 -7.6719 0 -2.2602 0 0 2.2605zm-3.8887 -2.2446l0 7.672 -5.443 0 0 -7.672 -2.2608 0 0 7.672 0 2.2607 2.2608 0 5.443 0 2.2608 0 0 -2.2607 0 -7.672 -2.2608 0zm-11.5001 2.2603l0 7.6724 2.2599 0 0 -7.6724 0 -2.2603 -2.2599 0 -1.5598 0 -2.2608 0 -1.6233 0 -2.2601 0 0 2.2603 0 7.6724 2.2601 0 0 -7.6724 1.6233 0 0 7.6724 2.2608 0 0 -7.6724 1.5598 0zm-27.7177 -2.2762l-2.2603 0 0 3.8522 -5.4116 0 0 -3.8522 -2.2608 0 0 3.8522 0 2.2598 0 3.8522 2.2608 0 0 -3.8522 5.4116 0 0 3.8522 2.2603 0 0 -3.8522 0 -2.2598 0 -3.8522zm-11.5535 0l-3.8363 0 -2.2599 0 -3.8364 0 0 2.2605 3.8364 0 0 7.7037 2.2599 0 0 -7.7037 3.8363 0 0 -2.2605zm-18.3325 7.7038l-7.6722 0 0 -7.7038 -2.2606 0 0 7.7038 0 2.2604 2.2606 0 7.6722 0 0 -2.2604zm-11.5764 0l-7.6722 0 0 -1.5593 7.6722 0 0 -2.2607 -7.6722 0 0 -1.6233 7.6722 0 0 -2.2605 -7.6722 0 -2.2598 0 0 2.2605 0 1.6233 0 2.2607 0 1.5593 0 2.2604 2.2598 0 7.6722 0 0 -2.2604zm-11.5001 0l-7.6722 0 0 -1.5593 7.6722 0 0 -2.2607 -7.6722 0 0 -1.6233 7.6722 0 0 -2.2605 -7.6722 0 -2.2606 0 0 2.2605 0 1.6233 0 2.2607 0 1.5593 0 2.2604 2.2606 0 7.6722 0 0 -2.2604zm-56.4001 -77.9158l123.705 0 6.1858 7.4227 0 20.8234 41.2352 0 6.1852 7.4224 0 31.1738 -143.046 0 -6.1852 -7.4226 0 -20.8236 -21.8946 0 -6.1856 -7.4224 0 -31.1737z"/>
  <path class="fil1" d="M184.904 139.234l-19.2473 0 -5.6704 0 0 5.6703 0 4.0731 0 5.6704 0 3.9133 0 5.6704 5.6704 0 19.2473 0 0 -5.6704 -19.2473 0 0 -3.9133 19.2473 0 0 -5.6704 -19.2473 0 0 -4.0731 19.2473 0 0 -5.6703zm-118.301 15.4138l0 3.9133 -19.2473 0 0 5.6704 19.2473 0 5.6704 0 0 -5.6704 0 -3.9133 0 -3.965 0 -1.7054 -19.2473 0 0 -4.0731 19.2473 0 0 -5.6703 -19.2473 0 -5.6704 0 0 5.6703 0 4.0731 0 4.4387 0 1.2317 19.2473 0zm33.7102 3.9133l-19.2473 0 0 -3.9133 19.2473 0 0 -5.6704 -19.2473 0 0 -4.0731 19.2473 0 0 -5.6703 -19.2473 0 -5.6704 0 0 5.6703 0 4.0731 0 5.6704 0 3.9133 0 5.6704 5.6704 0 19.2473 0 0 -5.6704zm22.2536 5.6197l-13.1516 -16.2751 -0.0349 0 0 16.3258 -5.6703 0 0 -16.3258 0 -8.6717 5.6703 0 0.4419 0 13.2139 16.3197 0 -16.3197 5.6704 0 0 16.3258 0 8.6717 -5.6704 0 -0.4419 0 0 -0.5013 -0.0274 0.4506zm28.627 -9.533l0 3.9133 -19.2473 0 0 5.6704 19.2473 0 5.6704 0 0 -5.6704 0 -3.9133 0 -3.965 0 -1.7054 -19.2473 0 0 -4.0731 19.2473 0 0 -5.6703 -19.2473 0 -5.6704 0 0 5.6703 0 4.0731 0 4.4387 0 1.2317 19.2473 0z"/>
  <path class="fil2" d="M72.2725 110.781l-5.6703 0 -13.577 0 -5.6703 0 0 5.6704 0 4.0731 0 5.6703 0 9.5838 5.6703 0 0 -9.5838 13.577 0 0 9.5838 5.6703 0 0 -9.5838 0 -5.6703 0 -4.0731 0 -5.6704zm-33.848 5.6704l0 4.0731 -13.577 0 0 -4.0731 13.577 0zm5.6703 4.0731l0 -4.0731 0 -5.6704 -5.6703 0 -13.577 0 -5.6703 0 0 5.6704 0 4.0731 0 5.6703 0 9.5838 5.6703 0 0 -9.5838 4.126 0 7.616 9.5838 7.5053 0 -7.616 -9.5838 7.616 0 0 -2.2762 0 -3.3941zm22.5074 0l-13.577 0 0 -4.0731 13.577 0 0 4.0731zm64.9084 -4.0731l0 13.6568 -13.577 0 0 -13.6568 13.577 0zm5.6703 13.6568l0 -13.6568 0 -5.6704 -5.6703 0 -13.577 0 -5.6703 0 0 5.6704 0 13.6568 0 5.6704 5.6703 0 13.577 0 5.6703 0 0 -5.6704zm-27.9068 -19.3272l-5.6703 0 0 24.9976 5.6703 0 0 -24.9976zm-13.8516 0l-14.4945 0 -5.6703 0 0 5.6704 0 13.6568 0 5.6704 5.6703 0 13.577 0 5.6703 0 0 -5.6704 0 -13.6568 -4.7528 -5.6704zm-0.9175 19.3272l-13.577 0 0 -13.6568 13.577 0 0 13.6568z"/>
 </g>
</svg>
