<?xml version="1.0" encoding="UTF-8" standalone="no"?>
<!-- Generator: Adobe Illustrator 23.0.0, SVG Export Plug-In . SVG Version: 6.00 Build 0)  -->

<svg
   version="1.1"
   id="Layer_1"
   x="0px"
   y="0px"
   viewBox="0 0 800 400"
   xml:space="preserve"
   sodipodi:docname="radio_sense_new_logo2.svg.2022_02_06_14_41_17.0.svg"
   width="800pt"
   height="400pt"
   inkscape:version="1.1.1 (c3084ef, 2021-09-22)"
   xmlns:inkscape="http://www.inkscape.org/namespaces/inkscape"
   xmlns:sodipodi="http://sodipodi.sourceforge.net/DTD/sodipodi-0.dtd"
   xmlns="http://www.w3.org/2000/svg"
   xmlns:svg="http://www.w3.org/2000/svg"><defs
   id="defs937" /><sodipodi:namedview
   id="namedview935"
   pagecolor="#505050"
   bordercolor="#ffffff"
   borderopacity="1"
   inkscape:pageshadow="0"
   inkscape:pageopacity="0"
   inkscape:pagecheckerboard="1"
   showgrid="false"
   units="pt"
   inkscape:zoom="0.5109375"
   inkscape:document-units="pt"
   inkscape:cx="952.17125"
   inkscape:cy="266.17737"
   inkscape:window-width="1920"
   inkscape:window-height="942"
   inkscape:window-x="1440"
   inkscape:window-y="25"
   inkscape:window-maximized="1"
   inkscape:current-layer="Layer_1" />
<style
   type="text/css"
   id="style902">
	.st0{fill-rule:evenodd;clip-rule:evenodd;fill:#FFFFFF;}
	.st1{fill-rule:evenodd;clip-rule:evenodd;fill:#2A2A2A;}
	.st2{fill-rule:evenodd;clip-rule:evenodd;fill:#FFC82F;}
</style>
<polygon
   class="st0"
   points="151.6,504.6 145.2,504.6 145.2,511 145.2,515.6 145.2,522.1 145.2,532.9 151.6,532.9 151.6,522.1 173.3,522.1 173.3,515.6 151.6,515.6 151.6,511 173.3,511 173.3,504.6 "
   id="polygon904"
   transform="matrix(1.5182054,0,0,1.718199,-48.188531,-520.4507)" />
<polygon
   class="st0"
   points="360.7,532.9 367.1,532.9 388.8,532.9 388.8,526.5 367.1,526.5 367.1,522.1 388.8,522.1 388.8,515.6 367.1,515.6 367.1,511 388.8,511 388.8,504.6 367.1,504.6 360.7,504.6 360.7,511 360.7,515.6 360.7,522.1 360.7,526.5 "
   id="polygon906"
   transform="matrix(1.5182054,0,0,1.718199,-48.188531,-520.4507)" />
<polygon
   class="st0"
   points="550,511 550,504.6 528.3,504.6 521.9,504.6 521.9,511 521.9,526.5 521.9,532.9 528.3,532.9 550,532.9 550,526.5 528.3,526.5 528.3,511 "
   id="polygon908"
   transform="matrix(1.5182054,0,0,1.718199,-48.188531,-520.4507)" />
<rect
   x="728.06989"
   y="346.72437"
   class="st0"
   width="9.7165146"
   height="48.453213"
   id="rect910"
   style="stroke-width:1.61511" />
<polygon
   class="st0"
   points="484.5,511 506.3,511 506.3,504.6 484.5,504.6 478.1,504.6 478.1,511 478.1,515.6 478.1,519.8 478.1,522.1 499.9,522.1 499.9,526.5 478.1,526.5 478.1,532.9 499.9,532.9 506.3,532.9 506.3,526.5 506.3,522.1 506.3,517.3 506.3,515.6 484.5,515.6 "
   id="polygon912"
   transform="matrix(1.5182054,0,0,1.718199,-48.188531,-520.4507)" />
<polygon
   class="st0"
   points="451.7,504.7 445.3,504.7 445.3,526.4 445.3,532.8 451.7,532.8 467.1,532.8 473.5,532.8 473.5,526.4 473.5,504.7 467.1,504.7 467.1,526.4 451.7,526.4 "
   id="polygon914"
   transform="matrix(1.5182054,0,0,1.718199,-48.188531,-520.4507)" />
<polygon
   class="st0"
   points="423.7,532.8 430.1,532.8 430.1,511.1 434.5,511.1 434.5,532.8 440.9,532.8 440.9,511.1 440.9,504.7 434.5,504.7 430.1,504.7 423.7,504.7 419.1,504.7 412.7,504.7 412.7,511.1 412.7,532.8 419.1,532.8 419.1,511.1 423.7,511.1 "
   id="polygon916"
   transform="matrix(1.5182054,0,0,1.718199,-48.188531,-520.4507)" />
<polygon
   class="st0"
   points="355.9,515.6 355.9,504.6 349.5,504.6 349.5,515.6 334.2,515.6 334.2,504.6 327.8,504.6 327.8,515.6 327.8,522 327.8,532.9 334.2,532.9 334.2,522 349.5,522 349.5,532.9 355.9,532.9 355.9,522 "
   id="polygon918"
   transform="matrix(1.5182054,0,0,1.718199,-48.188531,-520.4507)" />
<polygon
   class="st0"
   points="305.9,511 305.9,532.9 312.3,532.9 312.3,511 323.2,511 323.2,504.6 312.3,504.6 305.9,504.6 295,504.6 295,511 "
   id="polygon920"
   transform="matrix(1.5182054,0,0,1.718199,-48.188531,-520.4507)" />
<polygon
   class="st0"
   points="271.2,532.9 271.2,526.5 249.5,526.5 249.5,504.6 243.1,504.6 243.1,526.5 243.1,532.9 249.5,532.9 "
   id="polygon922"
   transform="matrix(1.5182054,0,0,1.718199,-48.188531,-520.4507)" />
<polygon
   class="st0"
   points="210.3,532.9 216.7,532.9 238.4,532.9 238.4,526.5 216.7,526.5 216.7,522.1 238.4,522.1 238.4,515.6 216.7,515.6 216.7,511 238.4,511 238.4,504.6 216.7,504.6 210.3,504.6 210.3,511 210.3,515.6 210.3,522.1 210.3,526.5 "
   id="polygon924"
   transform="matrix(1.5182054,0,0,1.718199,-48.188531,-520.4507)" />
<polygon
   class="st0"
   points="177.7,532.9 184.1,532.9 205.8,532.9 205.8,526.5 184.1,526.5 184.1,522.1 205.8,522.1 205.8,515.6 184.1,515.6 184.1,511 205.8,511 205.8,504.6 184.1,504.6 177.7,504.6 177.7,511 177.7,515.6 177.7,522.1 177.7,526.5 "
   id="polygon926"
   transform="matrix(1.5182054,0,0,1.718199,-48.188531,-520.4507)" />
<polygon
   class="st1"
   points="414.1,385.7 531,385.7 548.6,406.7 548.6,495.1 143.1,495.1 125.5,474 125.5,415 63.5,415 45.9,394 45.9,305.6 396.6,305.6 414.1,326.7 "
   id="polygon928"
   transform="matrix(1.5182054,0,0,1.718199,-48.188531,-520.4507)" />
<path
   class="st0"
   d="M 747.50292,157.72244 H 664.6089 640.1658 v 27.66301 19.75929 27.66301 19.07201 27.663 h 24.4431 82.89402 v -27.663 H 664.6089 v -19.07201 h 82.89402 V 205.14474 H 664.6089 v -19.75929 h 82.89402 z m -509.05428,75.08531 v 19.07201 h -82.89401 v 27.663 h 82.89401 24.44312 v -27.663 -19.07201 -19.24383 -8.24736 h -82.89403 v -19.75928 h 82.89403 v -27.663 h -82.89403 -24.4431 v 27.663 19.75928 21.64931 6.01369 z m 145.14044,19.07201 h -82.89401 v -19.07201 h 82.89401 v -27.66301 h -82.89401 v -19.75929 h 82.89401 v -27.66301 h -82.89401 -24.44311 v 27.66301 19.75929 27.66301 19.07201 27.663 h 24.44311 82.89401 z m 95.64695,27.31937 -56.62908,-79.20898 h -0.15181 v 79.55261 h -24.29128 v -79.55261 -42.26771 h 24.44309 1.97368 l 56.9327,79.55263 v -79.55263 h 24.44311 v 79.55263 42.26769 h -24.44311 -1.97366 v -2.40548 z M 602.5143,232.80775 v 19.07201 h -82.89401 v 27.663 h 82.89401 24.44311 v -27.663 -19.07201 -19.24383 -8.24736 H 544.0634 v -19.75928 h 82.89401 v -27.663 H 544.0634 519.62029 v 27.663 19.75928 21.64931 6.01369 z"
   id="path930"
   style="stroke-width:1.61511" />
<path
   class="st2"
   d="m 262.89176,19.06379 h -24.44312 -58.45091 -24.4431 V 46.726794 66.48608 94.149087 140.8841 h 24.4431 V 94.149087 h 58.45091 V 140.8841 h 24.44312 V 94.149087 66.48608 46.726794 Z M 117.14403,46.726794 V 66.48608 H 58.69313 V 46.726794 Z M 141.58714,66.48608 V 46.726794 19.06379 H 117.14403 58.69313 34.401843 V 46.726794 66.48608 94.149087 140.8841 H 58.844951 V 94.149087 H 76.607956 L 109.40118,140.8841 h 32.18596 L 108.7939,94.149087 h 32.79324 V 82.980794 Z m 96.8615,0 H 179.99773 V 46.726794 h 58.45091 z M 517.79844,46.726794 V 113.22109 H 459.34753 V 46.726794 Z m 24.44311,66.494296 V 46.726794 19.06379 h -24.44311 -58.45091 -24.44311 v 27.663004 66.494296 27.66301 h 24.44311 58.45091 24.44311 z M 422.1515,19.06379 H 397.70838 V 140.8841 h 24.44312 z m -59.66547,0 h -62.39824 -24.44312 v 27.663004 66.494296 27.66301 h 24.44312 58.4509 24.44311 V 113.22109 46.726794 Z m -3.94734,94.1573 h -58.4509 V 46.726794 h 58.4509 z"
   id="path932"
   style="stroke-width:1.61511" />
</svg>
