<?xml version="1.0" encoding="UTF-8" standalone="no"?>
<!-- Creator: CorelDRAW -->

<svg
   xml:space="preserve"
   width="400pt"
   height="100pt"
   style="clip-rule:evenodd;fill-rule:evenodd;image-rendering:optimizeQuality;shape-rendering:geometricPrecision;text-rendering:geometricPrecision"
   viewBox="0 0 400 100"
   version="1.1"
   id="svg901"
   sodipodi:docname="sense_social_icons.svg"
   inkscape:version="1.1.1 (c3084ef, 2021-09-22)"
   xmlns:inkscape="http://www.inkscape.org/namespaces/inkscape"
   xmlns:sodipodi="http://sodipodi.sourceforge.net/DTD/sodipodi-0.dtd"
   xmlns="http://www.w3.org/2000/svg"
   xmlns:svg="http://www.w3.org/2000/svg"><sodipodi:namedview
   id="namedview903"
   pagecolor="#505050"
   bordercolor="#ffffff"
   borderopacity="1"
   inkscape:pageshadow="0"
   inkscape:pageopacity="0"
   inkscape:pagecheckerboard="1"
   inkscape:document-units="pt"
   showgrid="false"
   units="pt"
   inkscape:zoom="0.5532197"
   inkscape:cx="396.76823"
   inkscape:cy="557.64464"
   inkscape:window-width="1312"
   inkscape:window-height="847"
   inkscape:window-x="1911"
   inkscape:window-y="84"
   inkscape:window-maximized="0"
   inkscape:current-layer="svg901"
   viewbox-width="400" />
 <defs
   id="defs879">
  <style
   type="text/css"
   id="style877">
   <![CDATA[
    .fil1 {fill:#2A2A2A}
    .fil0 {fill:white}
   ]]>
  </style>
 </defs>
 <g
   id="Layer_x0020_1"
   inkscape:label="Layer 1"
   inkscape:groupmode="layer">
  <metadata
   id="CorelCorpID_0Corel-Layer" />
  <path
   class="fil0"
   d="m 393.47912,48.479351 c 0,23.841305 -19.32704,43.168352 -43.16806,43.168352 h -8.7e-4 c -23.84044,0 -43.16633,-19.32647 -43.16633,-43.1672 v -0.0011 c 0,-23.841018 19.32647,-43.1683509 43.16777,-43.1683509 h 5.8e-4 c 23.84044,0 43.16691,19.3273329 43.16691,43.1671989 z"
   id="path882"
   style="stroke-width:2.87789" />
  <path
   class="fil0"
   d="m 292.75296,48.479351 c 0,23.841305 -19.32705,43.168352 -43.16806,43.168352 h -8.6e-4 c -23.84045,0 -43.16634,-19.32647 -43.16634,-43.1672 v -0.0011 c 0,-23.841018 19.32647,-43.1683509 43.16777,-43.1683509 h 5.8e-4 c 23.84044,0 43.16691,19.3273329 43.16691,43.1671989 z"
   id="path884"
   style="stroke-width:2.87789" />
  <path
   class="fil0"
   d="m 91.298062,48.479351 c 0,23.841305 -19.326758,43.168352 -43.168351,43.168352 -23.840442,0 -43.1669135,-19.32647 -43.1669135,-43.166912 v -0.0011 c 0,-23.841017 19.3270465,-43.1683508 43.1680645,-43.1683508 23.840442,0 43.1672,19.3267568 43.1672,43.1671988 z"
   id="path886"
   style="stroke-width:2.87789" />
  <path
   class="fil0"
   d="m 192.02681,48.479351 c 0,23.841882 -19.32734,43.16864 -43.16864,43.16864 -23.84044,0 -43.1672,-19.325894 -43.1672,-43.1672 v -0.0011 c 0,-23.840729 19.32676,-43.1680638 43.1672,-43.1680638 h 0.001 c 23.84044,0 43.16719,19.3267578 43.16719,43.1674878 z"
   id="path888"
   style="stroke-width:2.87789" />
  <path
   class="fil1"
   d="m 334.8565,24.011534 c 4.20459,0.188788 8.21062,1.3267 12.18441,2.588941 4.37727,1.390603 8.53582,3.260938 12.38615,5.790894 5.34999,3.515636 8.94938,8.43452 11.46667,14.227431 2.20072,5.064511 3.59217,10.351761 4.25007,15.826669 0.14763,1.228277 0.10392,2.485632 0.0711,3.727439 -0.0259,0.997759 -0.52695,1.781698 -1.39032,2.299149 -1.21216,0.726373 -2.51181,1.183964 -3.94385,1.164107 -1.2775,-0.01728 -1.82516,-0.570119 -1.88013,-1.82775 -0.36002,-8.206882 -2.72162,-15.727959 -7.77462,-22.286958 -4.07337,-5.287549 -9.42595,-8.855555 -15.58089,-11.281039 -4.23597,-1.669181 -8.61066,-2.761627 -13.17672,-2.999625 -0.6173,-0.03222 -1.00812,-0.392834 -1.25044,-0.936758 -0.62191,-1.394626 -0.0878,-4.483177 1.06108,-5.467129 0.47831,-0.410098 1.15893,-0.65213 1.78775,-0.797746 0.56838,-0.131521 1.19115,-0.02881 1.78976,-0.02881 z"
   id="path890"
   style="stroke-width:2.87789" />
  <path
   class="fil1"
   d="m 332.41893,38.996698 c 6.80132,0.977336 13.24087,2.879042 18.74743,7.192136 2.64133,2.068918 4.49354,4.769245 5.89191,7.783254 1.963,4.231649 3.21748,8.658711 3.46124,13.33759 0.11828,2.273242 -0.50823,3.063797 -2.73314,3.564261 -0.3462,0.078 -0.71342,0.107918 -1.06827,0.09358 -0.90337,-0.03681 -1.22396,-0.396003 -1.2608,-1.298797 -0.17527,-4.301005 -1.19893,-8.380987 -3.23763,-12.184121 -3.22035,-6.007596 -8.32516,-9.705393 -14.66084,-11.860068 -2.4344,-0.827687 -4.92953,-1.40297 -7.51129,-1.517226 -0.68983,-0.03052 -1.05848,-0.411827 -1.17418,-1.04554 -0.20174,-1.103672 0.0173,-2.149777 0.56782,-3.115024 0.37815,-0.664796 1.02769,-0.906828 1.75694,-0.945966 0.40579,-0.02305 0.81387,-0.0032 1.22081,-0.0032 z"
   id="path892"
   style="stroke-width:2.87789" />
  <path
   class="fil1"
   d="m 273.18043,39.362195 c 0,-3.897523 -3.15675,-7.056294 -7.05371,-7.056294 h -33.08393 c -3.89753,0 -7.05429,3.158771 -7.05429,7.056294 V 58.2826 c 0,3.896946 3.15676,7.056294 7.05429,7.056294 h 33.08393 c 3.89696,0 7.05371,-3.159348 7.05371,-7.056294 z M 244.86545,56.805088 V 39.034694 l 13.47773,8.883469 z"
   id="path894"
   style="stroke-width:2.87789" />
  <path
   class="fil1"
   d="m 58.349962,48.493745 h -6.683324 v 23.83612 h -9.908864 v -23.83612 h -4.711681 v -8.420713 h 4.711681 v -5.448136 c 0,-3.89637 1.850772,-9.998364 9.996352,-9.998364 l 7.339483,0.03137 v 8.172919 h -5.324672 c -0.874591,0 -2.102299,0.43687 -2.102299,2.295115 v 4.95544 h 7.548418 z"
   id="path896"
   style="stroke-width:2.87789" />
  <path
   class="fil1"
   d="m 160.09057,22.014274 h -22.46682 c -8.39797,0 -15.23008,6.832681 -15.23008,15.230368 v 22.467113 c 0,8.398262 6.83211,15.230376 15.23008,15.230376 h 22.46682 c 8.39798,0 15.23067,-6.832114 15.23067,-15.230376 V 37.244642 c 0,-8.397687 -6.83269,-15.230368 -15.23067,-15.230368 z m 9.98801,15.230368 v 22.467113 c 0,5.507419 -4.48059,9.988004 -9.98801,9.988004 h -22.46682 c -5.50742,0 -9.98801,-4.480585 -9.98801,-9.988004 V 37.244642 c 0,-5.50742 4.48059,-9.987716 9.98801,-9.987716 h 22.46682 c 5.50742,0 9.98801,4.480296 9.98801,9.987716 z M 148.85759,34.738 c -7.57661,0 -13.74077,6.163583 -13.74077,13.740198 0,7.576626 6.16416,13.740775 13.74077,13.740775 7.57634,0 13.73991,-6.164149 13.73991,-13.740775 0,-7.576615 -6.16357,-13.740198 -13.73991,-13.740198 z m 8.49726,13.740198 c 0,4.685495 -3.81176,8.497549 -8.49726,8.497549 -4.68578,0 -8.49811,-3.812054 -8.49811,-8.497549 0,-4.685494 3.81233,-8.498125 8.49811,-8.498125 4.6855,0 8.49726,3.812631 8.49726,8.498125 z m 5.42943,-17.714567 c -1.98258,0 -3.59621,1.613355 -3.59621,3.596794 0,1.981999 1.61363,3.594766 3.59621,3.594766 1.98258,0 3.59535,-1.612767 3.59535,-3.594766 0,-1.983439 -1.61277,-3.596794 -3.59535,-3.596794 z"
   id="path898"
   style="stroke-width:2.87789" />
 </g>
</svg>
