<?xml version="1.0" encoding="utf-8"?>
<!-- Generator: Adobe Illustrator 23.0.0, SVG Export Plug-In . SVG Version: 6.00 Build 0)  -->
<svg version="1.1" id="Layer_1" xmlns="http://www.w3.org/2000/svg" xmlns:xlink="http://www.w3.org/1999/xlink" x="0px" y="0px"
	 viewBox="0 0 3000 2000" style="enable-background:new 0 0 3000 2000;" xml:space="preserve">
<style type="text/css">
	.st0{fill:#FFC82F;}
</style>
<path class="st0" d="M2613.05,1828.5H386.95c-51.5,0-93.26-41.75-93.26-93.26v-547.18c0-51.5,41.75-93.26,93.26-93.26h2226.1
	c51.5,0,93.26,41.75,93.26,93.26v547.18C2706.3,1786.75,2664.55,1828.5,2613.05,1828.5z M443.48,1394.59
	c-39.14,67.91-14.26,170.98,29.02,233.47c21.6,31.25,43.48,59.29,73.43,59.29c0.56,0,1.13-0.01,1.71-0.04
	c14.08-0.56,24.25-4.89,34.08-9.08c11.04-4.71,22.47-9.57,40.38-9.57c17.04,0,27.91,4.71,38.42,9.25
	c10.37,4.49,21.04,9.13,36.82,8.83c33.74-0.63,54.46-30.89,72.74-57.59c19.08-27.87,28.65-54.93,31.87-65.28l0.13-0.41
	c0.62-1.84-0.26-3.84-2.02-4.65c0,0-0.22-0.1-0.27-0.12c-5.94-2.43-58.07-25.56-58.62-88.58c-0.51-51.21,39.1-78.32,47.05-83.24
	l0.37-0.24c0.86-0.55,1.46-1.43,1.67-2.43c0.2-1.01-0.01-2.05-0.59-2.9c-27.34-40.01-69.25-46.04-86.12-46.76
	c-2.44-0.25-4.97-0.37-7.51-0.37c-19.82,0-38.8,7.48-54.06,13.5c-10.53,4.15-19.62,7.74-25.89,7.74c-7.05,0-16.2-3.63-26.78-7.83
	c-14.17-5.62-30.22-11.99-47.21-11.99c-0.41,0-0.8,0.01-1.19,0.02C501.39,1336.19,464.05,1358.8,443.48,1394.59z M703.58,1224.42
	c-23.92,0.97-52.63,15.7-69.78,35.8c-14.59,16.88-28.82,45.05-25.07,73.43c0.24,1.78,1.69,3.14,3.47,3.29
	c1.62,0.12,3.26,0.19,4.9,0.19c23.39,0,48.63-12.95,65.87-33.79c18.14-22,27.31-50.24,24.54-75.54
	C707.29,1225.81,705.54,1224.33,703.58,1224.42z M978.87,1337.12h45.37c11.9,0,22.47-2.46,31.69-7.37
	c9.23-4.91,16.41-11.71,21.54-20.39c5.13-8.68,7.7-18.53,7.7-29.56c0-11.03-2.57-20.88-7.7-29.56
	c-5.13-8.68-12.31-15.48-21.54-20.39c-9.23-4.91-19.79-7.37-31.69-7.37h-45.37V1337.12z M987.22,1329.59V1230h36.36
	c10.59,0,19.93,2.1,28.01,6.31c8.08,4.21,14.3,10.07,18.67,17.61c4.37,7.54,6.55,16.16,6.55,25.88c0,9.72-2.19,18.34-6.55,25.88
	c-4.37,7.53-10.59,13.41-18.67,17.61c-8.08,4.21-17.42,6.31-28.01,6.31H987.22z M1144.95,1337.78c8.08,0,15.37-1.86,21.87-5.57
	c6.5-3.71,11.6-8.87,15.31-15.48c3.71-6.61,5.57-14.06,5.57-22.36c0-8.3-1.86-15.75-5.57-22.36c-3.71-6.61-8.82-11.76-15.31-15.48
	c-6.5-3.71-13.79-5.57-21.87-5.57c-8.08,0-15.37,1.86-21.87,5.57c-6.5,3.71-11.6,8.87-15.31,15.48c-3.71,6.61-5.57,14.06-5.57,22.36
	c0,8.3,1.86,15.75,5.57,22.36c3.71,6.61,8.82,11.77,15.31,15.48C1129.58,1335.92,1136.87,1337.78,1144.95,1337.78z M1144.95,1330.4
	c-6.55,0-12.42-1.53-17.61-4.59c-5.19-3.06-9.28-7.31-12.28-12.78c-3-5.46-4.5-11.68-4.5-18.67c0-6.99,1.5-13.21,4.5-18.67
	c3-5.46,7.1-9.72,12.28-12.78c5.19-3.06,11.06-4.59,17.61-4.59c6.55,0,12.42,1.53,17.61,4.59c5.19,3.06,9.28,7.32,12.28,12.78
	c3,5.46,4.5,11.69,4.5,18.67c0,6.99-1.5,13.21-4.5,18.67c-3,5.46-7.1,9.72-12.28,12.78
	C1157.37,1328.88,1151.5,1330.4,1144.95,1330.4z M1325.28,1251.62l-28.83,76.16l-28.99-76.16h-7.04l-29.15,76.33l-28.5-76.33h-7.86
	l32.43,85.5h7.53l28.99-74.2l28.83,74.2h7.7l32.43-85.5H1325.28z M1393.59,1250.96c-7.97,0-14.88,1.69-20.72,5.08
	c-5.84,3.39-10.24,8.08-13.19,14.09v-18.51h-7.86v85.5h8.19v-45.53c0-10.16,2.89-18.23,8.68-24.24c5.79-6,13.7-9.01,23.75-9.01
	c8.73,0,15.53,2.51,20.39,7.53c4.86,5.02,7.29,12.34,7.29,21.95v49.3h8.19v-49.96c0-11.68-3.11-20.64-9.34-26.86
	C1412.75,1254.08,1404.29,1250.96,1393.59,1250.96z M1462.05,1337.12h8.19v-121.53h-8.19V1337.12z M1538.21,1337.78
	c8.08,0,15.37-1.86,21.87-5.57c6.5-3.71,11.6-8.87,15.32-15.48c3.71-6.61,5.57-14.06,5.57-22.36c0-8.3-1.86-15.75-5.57-22.36
	c-3.71-6.61-8.82-11.76-15.32-15.48c-6.5-3.71-13.79-5.57-21.87-5.57c-8.08,0-15.37,1.86-21.87,5.57
	c-6.5,3.71-11.6,8.87-15.31,15.48c-3.71,6.61-5.57,14.06-5.57,22.36c0,8.3,1.86,15.75,5.57,22.36c3.71,6.61,8.82,11.77,15.31,15.48
	C1522.84,1335.92,1530.13,1337.78,1538.21,1337.78z M1538.21,1330.4c-6.55,0-12.42-1.53-17.61-4.59
	c-5.19-3.06-9.28-7.31-12.28-12.78c-3-5.46-4.5-11.68-4.5-18.67c0-6.99,1.5-13.21,4.5-18.67c3-5.46,7.1-9.72,12.28-12.78
	c5.19-3.06,11.06-4.59,17.61-4.59s12.42,1.53,17.61,4.59c5.18,3.06,9.28,7.32,12.28,12.78c3,5.46,4.5,11.69,4.5,18.67
	c0,6.99-1.5,13.21-4.5,18.67c-3,5.46-7.1,9.72-12.28,12.78C1550.63,1328.88,1544.76,1330.4,1538.21,1330.4z M1634.85,1250.96
	c-6.55,0-12.83,1.07-18.84,3.19c-6.01,2.13-11.14,5.11-15.4,8.93l4.09,5.9c3.6-3.28,8-5.9,13.19-7.86
	c5.18-1.96,10.62-2.95,16.3-2.95c8.3,0,14.6,2.08,18.92,6.22c4.31,4.15,6.47,10.21,6.47,18.18v6.88h-29.32
	c-11.14,0-19.25,2.21-24.32,6.63c-5.08,4.42-7.62,10.18-7.62,17.28c0,7.32,2.76,13.21,8.27,17.69c5.51,4.48,13.02,6.72,22.52,6.72
	c7.31,0,13.59-1.39,18.84-4.18s9.23-6.69,11.96-11.71v15.23h7.86v-54.21c0-10.48-2.84-18.43-8.52-23.83
	C1653.57,1253.67,1645.44,1250.96,1634.85,1250.96z M1630.26,1331.06c-7.54,0-13.38-1.61-17.53-4.83
	c-4.15-3.22-6.22-7.62-6.22-13.18c0-5.35,1.88-9.55,5.65-12.61c3.77-3.06,9.85-4.59,18.26-4.59h29.15v16.05
	c-2.51,6.22-6.25,10.97-11.22,14.25C1643.39,1329.42,1637.36,1331.06,1630.26,1331.06z M1769.48,1215.59v55.85
	c-3.5-6.44-8.27-11.47-14.33-15.07c-6.06-3.6-12.91-5.41-20.56-5.41c-7.97,0-15.18,1.83-21.62,5.49
	c-6.44,3.66-11.49,8.79-15.15,15.4c-3.66,6.61-5.49,14.11-5.49,22.52c0,8.41,1.83,15.89,5.49,22.44c3.66,6.55,8.71,11.69,15.15,15.4
	c6.44,3.71,13.65,5.57,21.62,5.57c7.75,0,14.69-1.8,20.8-5.41c6.11-3.6,10.86-8.73,14.25-15.4v20.15h8.03v-121.53H1769.48z
	 M1735.08,1330.4c-6.55,0-12.42-1.53-17.61-4.59c-5.19-3.06-9.28-7.31-12.28-12.78c-3-5.46-4.5-11.68-4.5-18.67
	c0-6.99,1.5-13.21,4.5-18.67c3-5.46,7.1-9.72,12.28-12.78c5.19-3.06,11.06-4.59,17.61-4.59s12.42,1.53,17.61,4.59
	c5.18,3.06,9.28,7.32,12.28,12.78c3,5.46,4.5,11.69,4.5,18.67c0,6.99-1.5,13.21-4.5,18.67c-3,5.46-7.1,9.72-12.28,12.78
	C1747.5,1328.88,1741.64,1330.4,1735.08,1330.4z M1887.74,1337.78c8.08,0,15.37-1.86,21.87-5.57c6.5-3.71,11.6-8.87,15.32-15.48
	c3.71-6.61,5.57-14.06,5.57-22.36c0-8.3-1.86-15.75-5.57-22.36c-3.71-6.61-8.82-11.76-15.32-15.48c-6.5-3.71-13.79-5.57-21.87-5.57
	c-8.08,0-15.37,1.86-21.87,5.57c-6.5,3.71-11.6,8.87-15.31,15.48c-3.71,6.61-5.57,14.06-5.57,22.36c0,8.3,1.86,15.75,5.57,22.36
	c3.71,6.61,8.82,11.77,15.31,15.48C1872.37,1335.92,1879.65,1337.78,1887.74,1337.78z M1887.74,1330.4
	c-6.55,0-12.42-1.53-17.61-4.59c-5.19-3.06-9.28-7.31-12.28-12.78c-3-5.46-4.5-11.68-4.5-18.67c0-6.99,1.5-13.21,4.5-18.67
	c3-5.46,7.1-9.72,12.28-12.78c5.19-3.06,11.06-4.59,17.61-4.59s12.42,1.53,17.61,4.59c5.18,3.06,9.28,7.32,12.28,12.78
	c3,5.46,4.5,11.69,4.5,18.67c0,6.99-1.5,13.21-4.5,18.67c-3,5.46-7.1,9.72-12.28,12.78
	C1900.16,1328.88,1894.29,1330.4,1887.74,1330.4z M1997.64,1250.96c-7.97,0-14.88,1.69-20.72,5.08
	c-5.84,3.39-10.24,8.08-13.19,14.09v-18.51h-7.86v85.5h8.19v-45.53c0-10.16,2.89-18.23,8.68-24.24c5.79-6,13.7-9.01,23.75-9.01
	c8.74,0,15.53,2.51,20.39,7.53c4.86,5.02,7.29,12.34,7.29,21.95v49.3h8.19v-49.96c0-11.68-3.11-20.64-9.34-26.86
	C2016.8,1254.08,2008.34,1250.96,1997.64,1250.96z M2147.18,1325.98c-3.5,3.17-7.92,4.75-13.27,4.75c-5.24,0-9.2-1.45-11.88-4.34
	c-2.68-2.89-4.01-7.13-4.01-12.69v-55.04h27.19v-7.04h-27.19v-18.67h-8.19v18.67h-15.72v7.04h15.72v55.85
	c0,7.32,2.02,13.02,6.06,17.12c4.04,4.09,9.77,6.14,17.2,6.14c3.38,0,6.63-0.52,9.75-1.56c3.11-1.04,5.71-2.54,7.78-4.5
	L2147.18,1325.98z M2215.15,1250.96c-7.86,0-14.69,1.61-20.47,4.83c-5.79,3.22-10.16,7.78-13.1,13.68v-53.89h-8.19v121.53h8.19
	v-45.53c0-10.16,2.89-18.23,8.68-24.24c5.79-6,13.7-9.01,23.75-9.01c8.74,0,15.53,2.51,20.39,7.53c4.86,5.02,7.29,12.34,7.29,21.95
	v49.3h8.19v-49.96c0-11.68-3.11-20.64-9.34-26.86C2234.32,1254.08,2225.85,1250.96,2215.15,1250.96z M2356.17,1294.04
	c0-8.3-1.78-15.72-5.32-22.28c-3.55-6.55-8.41-11.65-14.58-15.31c-6.17-3.66-13.13-5.49-20.88-5.49c-7.75,0-14.74,1.86-20.96,5.57
	c-6.22,3.71-11.11,8.87-14.66,15.48c-3.55,6.61-5.32,14.06-5.32,22.36c0,8.41,1.88,15.89,5.65,22.44s8.98,11.69,15.64,15.4
	c6.66,3.71,14.25,5.57,22.77,5.57c6.55,0,12.64-1.2,18.26-3.6c5.62-2.4,10.29-5.84,14-10.32l-4.75-5.4
	c-3.17,3.93-7.13,6.91-11.88,8.93c-4.75,2.02-9.91,3.03-15.48,3.03c-6.77,0-12.86-1.42-18.26-4.26c-5.41-2.84-9.69-6.85-12.86-12.04
	c-3.17-5.19-4.86-11.11-5.08-17.77h73.54L2356.17,1294.04z M2315.39,1258.17c6,0,11.41,1.37,16.22,4.09
	c4.8,2.73,8.68,6.5,11.63,11.3c2.95,4.81,4.59,10.27,4.91,16.38h-65.52c0.43-6.11,2.1-11.6,5-16.46c2.89-4.86,6.74-8.62,11.55-11.3
	C2303.98,1259.51,2309.38,1258.17,2315.39,1258.17z M1119.72,1635.93h38.07L1069.34,1440h-35.83l-88.17,195.93h37.51l19.31-45.34
	h97.97L1119.72,1635.93z M1014.48,1562.04l36.67-85.65l36.95,85.65H1014.48z M1262.19,1484.78c-10.26,0-19.64,1.78-28.13,5.32
	c-8.49,3.55-15.63,8.87-21.41,15.96v-19.59h-33.31v203.77h34.99v-72.5c11.76,13.44,27.71,20.15,47.86,20.15
	c14.56,0,27.57-3.17,39.05-9.52c11.48-6.34,20.48-15.35,27.01-27.01c6.53-11.66,9.8-25.05,9.8-40.17c0-15.12-3.27-28.46-9.8-40.03
	c-6.53-11.57-15.54-20.52-27.01-26.87C1289.76,1487.96,1276.75,1484.78,1262.19,1484.78z M1258.27,1607.94
	c-8.4,0-15.95-1.91-22.67-5.74c-6.72-3.82-12.04-9.28-15.95-16.38c-3.92-7.09-5.88-15.3-5.88-24.63c0-9.33,1.96-17.54,5.88-24.63
	c3.92-7.09,9.24-12.55,15.95-16.38c6.72-3.82,14.27-5.74,22.67-5.74c12.88,0,23.46,4.29,31.77,12.88
	c8.3,8.58,12.46,19.87,12.46,33.87c0,14-4.15,25.29-12.46,33.87C1281.74,1603.65,1271.15,1607.94,1258.27,1607.94z M1454.2,1484.78
	c-10.26,0-19.64,1.78-28.13,5.32c-8.49,3.55-15.63,8.87-21.41,15.96v-19.59h-33.31v203.77h34.99v-72.5
	c11.76,13.44,27.71,20.15,47.86,20.15c14.56,0,27.57-3.17,39.05-9.52c11.48-6.34,20.48-15.35,27.01-27.01
	c6.53-11.66,9.8-25.05,9.8-40.17c0-15.12-3.27-28.46-9.8-40.03c-6.53-11.57-15.54-20.52-27.01-26.87
	C1481.78,1487.96,1468.76,1484.78,1454.2,1484.78z M1450.29,1607.94c-8.4,0-15.95-1.91-22.67-5.74
	c-6.72-3.82-12.04-9.28-15.95-16.38c-3.92-7.09-5.88-15.3-5.88-24.63c0-9.33,1.96-17.54,5.88-24.63
	c3.92-7.09,9.24-12.55,15.95-16.38c6.72-3.82,14.27-5.74,22.67-5.74c12.88,0,23.46,4.29,31.77,12.88
	c8.3,8.58,12.46,19.87,12.46,33.87c0,14-4.15,25.29-12.46,33.87C1473.75,1603.65,1463.16,1607.94,1450.29,1607.94z M1704.71,1638.73
	c17.17,0,31.72-2.62,43.67-7.84c11.94-5.22,20.85-12.22,26.73-20.99c5.88-8.77,8.82-18.57,8.82-29.39c0-12.69-3.31-22.76-9.94-30.23
	c-6.63-7.46-14.6-13.02-23.93-16.65c-9.33-3.64-21.27-7.14-35.83-10.5c-10.64-2.61-19.03-4.94-25.19-7
	c-6.16-2.05-11.24-4.85-15.25-8.4c-4.01-3.54-6.02-8.12-6.02-13.71c0-8.02,3.5-14.46,10.5-19.31c7-4.85,17.68-7.28,32.05-7.28
	c8.77,0,17.82,1.31,27.15,3.92c9.33,2.62,18.29,6.44,26.87,11.48l11.48-28.27c-8.4-5.6-18.38-9.89-29.95-12.88
	c-11.57-2.98-23.33-4.48-35.27-4.48c-17.17,0-31.68,2.62-43.53,7.84c-11.85,5.23-20.71,12.27-26.59,21.13
	c-5.88,8.87-8.82,18.71-8.82,29.53c0,12.88,3.31,23.09,9.94,30.65c6.62,7.56,14.56,13.11,23.79,16.65
	c9.24,3.55,21.32,7.09,36.25,10.64c10.64,2.62,19.03,4.95,25.19,7c6.16,2.06,11.24,4.9,15.25,8.54c4.01,3.64,6.02,8.26,6.02,13.86
	c0,7.65-3.6,13.81-10.78,18.47c-7.19,4.67-18.05,7-32.61,7c-11.76,0-23.47-2-35.13-6.02c-11.66-4.01-21.51-9.19-29.53-15.53
	l-12.6,28.27c8.21,7.09,19.36,12.78,33.45,17.07C1675,1636.58,1689.6,1638.73,1704.71,1638.73z M1896.73,1602.9
	c-5.23,4.11-11.76,6.16-19.59,6.16c-6.72,0-11.85-1.91-15.39-5.74c-3.55-3.82-5.32-9.38-5.32-16.65v-71.1h40.03v-27.99h-40.03
	v-34.15h-34.99v34.15h-24.63v27.99h24.63v71.94c0,16.42,4.48,28.93,13.44,37.51c8.96,8.58,21.64,12.88,38.07,12.88
	c6.53,0,12.74-0.84,18.61-2.52c5.88-1.68,10.87-4.2,14.97-7.56L1896.73,1602.9z M1997.5,1637.89c15.3,0,29.01-3.26,41.15-9.8
	c12.13-6.53,21.6-15.63,28.41-27.29c6.81-11.66,10.22-24.86,10.22-39.61c0-14.74-3.41-27.89-10.22-39.47
	c-6.81-11.57-16.28-20.62-28.41-27.15c-12.13-6.53-25.85-9.8-41.15-9.8c-15.12,0-28.74,3.27-40.87,9.8
	c-12.13,6.53-21.6,15.58-28.41,27.15c-6.81,11.57-10.22,24.73-10.22,39.47c0,14.74,3.4,27.95,10.22,39.61
	c6.81,11.66,16.28,20.76,28.41,27.29C1968.76,1634.63,1982.38,1637.89,1997.5,1637.89z M1997.5,1607.94
	c-12.88,0-23.47-4.29-31.77-12.88c-8.31-8.58-12.46-19.87-12.46-33.87c0-14,4.15-25.28,12.46-33.87
	c8.3-8.58,18.89-12.88,31.77-12.88c12.88,0,23.51,4.29,31.91,12.88c8.4,8.58,12.6,19.87,12.6,33.87c0,14-4.2,25.29-12.6,33.87
	C2021.01,1603.65,2010.37,1607.94,1997.5,1607.94z M2144.16,1508.29v-21.83h-33.31v149.47h34.99v-72.5
	c0-14.93,3.82-26.36,11.48-34.29c7.65-7.93,18.29-11.9,31.91-11.9c2.42,0,5.13,0.28,8.12,0.84v-33.31
	C2171.97,1484.78,2154.24,1492.62,2144.16,1508.29z M2366.13,1562.04c0-15.3-3.22-28.78-9.66-40.45
	c-6.44-11.66-15.4-20.71-26.87-27.15c-11.48-6.44-24.49-9.66-39.05-9.66c-14.74,0-27.99,3.27-39.75,9.8
	c-11.76,6.53-20.95,15.63-27.57,27.29c-6.63,11.66-9.94,24.77-9.94,39.33c0,14.74,3.4,27.95,10.22,39.61
	c6.81,11.66,16.47,20.76,28.97,27.29c12.5,6.53,26.96,9.8,43.39,9.8c12.88,0,24.44-2.05,34.71-6.16
	c10.26-4.1,18.75-10.17,25.47-18.19l-18.75-21.55c-10.64,10.82-24.17,16.23-40.59,16.23c-12.88,0-23.65-3.22-32.33-9.66
	c-8.68-6.44-14.04-15.16-16.09-26.17h117.28C2365.94,1567.91,2366.13,1564.46,2366.13,1562.04z M2290.56,1512.77
	c11.38,0,20.9,3.36,28.55,10.08c7.65,6.72,12.22,15.49,13.72,26.31h-84.81c1.68-11.01,6.39-19.83,14.13-26.45
	C2269.89,1516.09,2279.36,1512.77,2290.56,1512.77z"/>
</svg>
