<?xml version="1.0" encoding="UTF-8"?>
<!DOCTYPE svg PUBLIC "-//W3C//DTD SVG 1.1//EN" "http://www.w3.org/Graphics/SVG/1.1/DTD/svg11.dtd">
<!-- Creator: CorelDRAW -->
<svg xmlns="http://www.w3.org/2000/svg" xml:space="preserve" width="210mm" height="297mm" style="shape-rendering:geometricPrecision; text-rendering:geometricPrecision; image-rendering:optimizeQuality; fill-rule:evenodd; clip-rule:evenodd"
viewBox="0 0 210 297">
 <defs>
  <style type="text/css">
   <![CDATA[
    .fil0 {fill:#6D6E72}
   ]]>
  </style>
 </defs>
 <g id="Layer_x0020_1">
  <metadata id="CorelCorpID_0Corel-Layer"/>
  <path class="fil0" d="M101.315 74.8633c-4.9788,2.9671 -9.9576,5.9341 -14.9365,8.9011 0.0424,0.0916 0.0848,0.1832 0.1273,0.2748 0.3194,-0.1088 0.644,-0.2045 0.9577,-0.3281 7.9225,-3.1209 16.1026,-5.2131 24.5579,-6.26 4.8991,-0.6065 9.8131,-0.9237 14.7388,-0.7223 6.1486,0.2514 12.2904,0.6985 18.2015,2.6216 8.6627,2.8182 15.3038,8.3113 20.4926,15.6711 4.6853,6.6457 7.349,14.109 8.8395,22.0468 1.6517,8.7964 1.6114,17.6803 1.3316,26.5638 -0.1506,4.7841 -0.5059,9.5691 -0.9687,14.3343 -1.0214,10.5182 -2.4848,20.9727 -4.9763,31.2617 -2.2534,9.3057 -8.0268,15.7926 -16.1834,20.4246 -7.1065,4.0358 -14.7578,6.5084 -22.7429,8.03 -6.9365,1.3219 -13.9447,2.0659 -21.0006,2.2204 -6.6541,0.1457 -13.3202,0.3657 -19.966,0.1286 -10.5735,-0.3771 -20.8851,-2.2109 -30.4926,-6.9476 -7.878,-3.884 -14.4613,-9.2219 -18.8211,-17.0059 -2.8726,-5.1288 -4.6797,-10.6604 -5.7526,-16.3971 -1.0979,-5.8707 -2.0885,-11.777 -2.7499,-17.7096 -0.6781,-6.0822 -0.8092,-12.2112 -0.5713,-18.3475 0.2811,-7.256 0.8793,-14.4794 2.3275,-21.589 1.1255,-5.5249 2.4381,-11.0286 4.0159,-16.4401 2.2525,-7.7256 7.5053,-13.1066 14.2969,-17.1333 5.8573,-3.4727 12.2364,-5.6443 18.7111,-7.5973 7.2574,-2.1889 14.5774,-4.1166 22.075,-5.2845 2.784,-0.4336 5.5942,-0.6998 8.3923,-1.0423 0.0322,0.1086 0.0642,0.2172 0.0963,0.3258zm-46.6729 66.1432l0 -36.6994 15.6694 0 0 4.9481 -10.4119 0 0 11.1336 9.0718 0 0 4.9482 -9.0718 0 0 15.6695 -5.2575 0zm24.3289 -31.7513l0 11.4429 2.9896 0c0.9277,0 1.6666,-0.1289 2.2163,-0.3866 0.5499,-0.2577 0.9794,-0.6271 1.2886,-1.1082 0.275,-0.4811 0.464,-1.0738 0.5671,-1.7783 0.103,-0.7044 0.1546,-1.5205 0.1546,-2.4483 0,-0.9278 -0.0516,-1.7439 -0.1546,-2.4484 -0.1031,-0.7044 -0.3093,-1.3144 -0.6186,-1.8298 -0.6529,-0.9621 -1.8899,-1.4433 -3.7112,-1.4433l-2.7318 0zm-5.2575 31.7513l0 -36.6994 8.4532 0c6.1853,0 9.278,3.5908 9.278,10.7727 0,2.1648 -0.335,4.0032 -1.0051,5.5152 -0.6701,1.5119 -1.847,2.7319 -3.5308,3.6596l5.6699 16.7519 -5.5668 0 -4.8967 -15.6695 -3.1442 0 0 15.6695 -5.2575 0zm21.9578 0l0 -36.6994 15.6694 0 0 4.9481 -10.4119 0 0 10.7728 9.0718 0 0 4.9483 -9.0718 0 0 10.7727 10.4119 0 0 5.2575 -15.6694 0zm36.0809 -26.1329l-5.2575 0 0 -1.1855c0,-1.2027 -0.2835,-2.2422 -0.8504,-3.1185 -0.567,-0.8762 -1.5206,-1.3144 -2.8607,-1.3144 -0.7217,0 -1.3058,0.1375 -1.7525,0.4124 -0.4467,0.275 -0.8076,0.6185 -1.0825,1.0309 -0.2748,0.4468 -0.4639,0.9536 -0.5669,1.5205 -0.1032,0.5671 -0.1547,1.1598 -0.1547,1.7784 0,0.7216 0.0258,1.3229 0.0773,1.804 0.0516,0.4811 0.1804,0.9106 0.3866,1.2886 0.2062,0.378 0.5069,0.7044 0.902,0.9793 0.3952,0.2749 0.9364,0.5498 1.6237,0.8248l4.0204 1.5978c1.1683,0.4467 2.1133,0.9707 2.835,1.5721 0.7216,0.6013 1.2886,1.2972 1.7009,2.0876 0.378,0.8247 0.6357,1.7611 0.7732,2.8091 0.1374,1.0481 0.2061,2.2422 0.2061,3.5823 0,1.5463 -0.1546,2.981 -0.4639,4.304 -0.3092,1.3229 -0.8075,2.4483 -1.4947,3.3761 -0.7216,0.9622 -1.6666,1.7182 -2.8349,2.268 -1.1684,0.5497 -2.5945,0.8247 -4.2782,0.8247 -1.2714,0 -2.457,-0.2234 -3.5566,-0.6701 -1.0996,-0.4467 -2.0446,-1.0653 -2.8349,-1.8556 -0.7904,-0.7903 -1.4175,-1.7096 -1.8814,-2.7576 -0.4639,-1.0481 -0.6958,-2.1906 -0.6958,-3.4277l0 -1.9587 5.2575 0 0 1.6494c0,0.9622 0.2835,1.8299 0.8505,2.603 0.567,0.7731 1.5205,1.1598 2.8607,1.1598 0.8934,0 1.5892,-0.1289 2.0875,-0.3867 0.4982,-0.2576 0.8848,-0.627 1.1598,-1.1081 0.2748,-0.4811 0.4381,-1.0567 0.4896,-1.7267 0.0515,-0.6701 0.0773,-1.4175 0.0773,-2.2423 0,-0.9621 -0.0343,-1.7524 -0.103,-2.371 -0.0688,-0.6185 -0.2062,-1.1168 -0.4124,-1.4947 -0.2406,-0.378 -0.5584,-0.6873 -0.9536,-0.9278 -0.3951,-0.2406 -0.9191,-0.4983 -1.5721,-0.7732l-3.7627 -1.5463c-2.2679,-0.9278 -3.7885,-2.1563 -4.5616,-3.6854 -0.7732,-1.5292 -1.1598,-3.4449 -1.1598,-5.7472 0,-1.3745 0.189,-2.6803 0.567,-3.9174 0.378,-1.237 0.945,-2.3023 1.701,-3.1957 0.7215,-0.8934 1.6408,-1.6065 2.7576,-2.1391 1.1168,-0.5327 2.4483,-0.799 3.9947,-0.799 1.3057,0 2.4998,0.2406 3.5823,0.7217 1.0824,0.481 2.0188,1.1168 2.8091,1.9071 1.5807,1.6494 2.371,3.5394 2.371,5.6699l0 2.5772zm3.9174 26.1329l0 -36.6994 5.2576 0 0 15.7209 6.4945 0 0 -15.7209 5.2575 0 0 36.6994 -5.2575 0 0 -16.3395 -6.4945 0 0 16.3395 -5.2576 0zm-81.2451 56.1961l0 -7.5707 1.6056 0c0.6238,0 1.097,0.1702 1.4195,0.5104 0.3225,0.3403 0.4838,0.8223 0.4838,1.4461l0 3.5407c0,0.7089 -0.1719,1.2317 -0.5157,1.5684 -0.3438,0.3367 -0.8383,0.5051 -1.4833,0.5051l-1.5099 0zm1.0846 -6.5499l0 5.5291 0.4997 0c0.3048,0 0.5211,-0.0762 0.6487,-0.2286 0.1275,-0.1524 0.1913,-0.3917 0.1913,-0.7178l0 -3.647c0,-0.2977 -0.0602,-0.5281 -0.1807,-0.6912 -0.1206,-0.163 -0.3403,-0.2445 -0.6593,-0.2445l-0.4997 0zm5.0708 6.5499l0 -7.5707 3.2323 0 0 1.0208 -2.1478 0 0 2.2223 1.8714 0 0 1.0207 -1.8714 0 0 2.2223 2.1478 0 0 1.0846 -3.2323 0zm9.0686 -5.3909l-1.0845 0 0 -0.2446c0,-0.2481 -0.0585,-0.4625 -0.1755,-0.6433 -0.1169,-0.1808 -0.3136,-0.2711 -0.5901,-0.2711 -0.1488,0 -0.2694,0.0283 -0.3615,0.0851 -0.0922,0.0566 -0.1666,0.1275 -0.2233,0.2126 -0.0567,0.0921 -0.0957,0.1967 -0.1169,0.3137 -0.0213,0.1169 -0.0319,0.2392 -0.0319,0.3668 0,0.1489 0.0053,0.2729 0.0159,0.3722 0.0106,0.0992 0.0372,0.1878 0.0798,0.2658 0.0425,0.0779 0.1045,0.1453 0.186,0.202 0.0815,0.0567 0.1932,0.1134 0.335,0.1701l0.8293 0.3297c0.2411,0.0921 0.436,0.2002 0.5848,0.3243 0.1489,0.124 0.2659,0.2676 0.3509,0.4306 0.078,0.1701 0.1311,0.3633 0.1595,0.5795 0.0284,0.2162 0.0425,0.4625 0.0425,0.739 0,0.3189 -0.0319,0.6149 -0.0957,0.8878 -0.0638,0.273 -0.1666,0.5051 -0.3083,0.6965 -0.1489,0.1984 -0.3438,0.3544 -0.5848,0.4678 -0.241,0.1134 -0.5352,0.1702 -0.8825,0.1702 -0.2623,0 -0.5069,-0.0461 -0.7337,-0.1383 -0.2269,-0.0921 -0.4218,-0.2197 -0.5848,-0.3827 -0.1631,-0.1631 -0.2924,-0.3527 -0.3881,-0.5689 -0.0957,-0.2162 -0.1436,-0.4519 -0.1436,-0.7071l0 -0.4041 1.0846 0 0 0.3403c0,0.1985 0.0585,0.3775 0.1754,0.537 0.117,0.1595 0.3137,0.2392 0.5902,0.2392 0.1842,0 0.3278,-0.0266 0.4306,-0.0797 0.1028,-0.0532 0.1825,-0.1294 0.2392,-0.2286 0.0567,-0.0993 0.0904,-0.218 0.101,-0.3563 0.0107,-0.1382 0.016,-0.2924 0.016,-0.4625 0,-0.1985 -0.0071,-0.3615 -0.0213,-0.4891 -0.0141,-0.1276 -0.0425,-0.2304 -0.085,-0.3084 -0.0497,-0.0779 -0.1152,-0.1417 -0.1968,-0.1914 -0.0815,-0.0496 -0.1895,-0.1027 -0.3242,-0.1595l-0.7762 -0.3189c-0.4679,-0.1914 -0.7816,-0.4449 -0.9411,-0.7603 -0.1595,-0.3154 -0.2392,-0.7106 -0.2392,-1.1856 0,-0.2835 0.039,-0.5529 0.117,-0.8081 0.0779,-0.2551 0.1949,-0.4749 0.3509,-0.6592 0.1488,-0.1843 0.3384,-0.3314 0.5688,-0.4413 0.2304,-0.1098 0.5051,-0.1648 0.8241,-0.1648 0.2693,0 0.5156,0.0496 0.7389,0.1489 0.2234,0.0992 0.4165,0.2303 0.5795,0.3934 0.3261,0.3403 0.4891,0.7301 0.4891,1.1696l0 0.5317zm2.4658 5.3909l0 -7.5707 1.0845 0 0 7.5707 -1.0845 0zm3.6991 -5.7843c0,-0.3049 0.0531,-0.5742 0.1594,-0.8081 0.1064,-0.234 0.2481,-0.4289 0.4254,-0.5848 0.1701,-0.1489 0.3632,-0.2623 0.5794,-0.3403 0.2163,-0.078 0.4342,-0.117 0.654,-0.117 0.2197,0 0.4377,0.039 0.6539,0.117 0.2162,0.078 0.4129,0.1914 0.5901,0.3403 0.1701,0.1559 0.3084,0.3508 0.4147,0.5848 0.1063,0.2339 0.1595,0.5032 0.1595,0.8081l0 0.3827 -1.0846 0 0 -0.3827c0,-0.2623 -0.0726,-0.4555 -0.218,-0.5796 -0.1452,-0.124 -0.3171,-0.186 -0.5156,-0.186 -0.1985,0 -0.3704,0.062 -0.5157,0.186 -0.1453,0.1241 -0.218,0.3173 -0.218,0.5796l0 3.998c0,0.2622 0.0727,0.4554 0.218,0.5794 0.1453,0.1241 0.3172,0.1861 0.5157,0.1861 0.1985,0 0.3704,-0.062 0.5156,-0.1861 0.1454,-0.124 0.218,-0.3172 0.218,-0.5794l0 -1.4249 -0.8612 0 0 -0.957 1.9458 0 0 2.3819c0,0.3189 -0.0532,0.5918 -0.1595,0.8187 -0.1063,0.2268 -0.2446,0.4147 -0.4147,0.5635 -0.1772,0.1559 -0.3739,0.2729 -0.5901,0.3509 -0.2162,0.078 -0.4342,0.117 -0.6539,0.117 -0.2198,0 -0.4377,-0.039 -0.654,-0.117 -0.2162,-0.078 -0.4093,-0.195 -0.5794,-0.3509 -0.1773,-0.1488 -0.319,-0.3367 -0.4254,-0.5635 -0.1063,-0.2269 -0.1594,-0.4998 -0.1594,-0.8187l0 -3.998zm6.1765 5.7843l0 -7.5707 1.042 0 1.6375 4.5615 0.0213 0 0 -4.5615 1.0846 0 0 7.5707 -1.0208 0 -1.6588 -4.5509 -0.0212 0 0 4.5509 -1.0846 0zm11.61 0l-0.3615 -0.5742c-0.2127,0.2127 -0.4324,0.3722 -0.6592,0.4785 -0.2269,0.1063 -0.4891,0.1595 -0.7869,0.1595 -0.2126,0 -0.4146,-0.0426 -0.606,-0.1276 -0.1914,-0.0851 -0.358,-0.2056 -0.4998,-0.3615 -0.1418,-0.1489 -0.2534,-0.3315 -0.3349,-0.5477 -0.0816,-0.2161 -0.1223,-0.4554 -0.1223,-0.7176 0,-0.4183 0.0992,-0.7834 0.2977,-1.0953 0.1985,-0.3119 0.4466,-0.6025 0.7443,-0.8719 -0.1914,-0.2693 -0.3491,-0.5475 -0.4732,-0.8346 -0.124,-0.2872 -0.186,-0.5902 -0.186,-0.9092 0,-0.1985 0.0319,-0.3881 0.0957,-0.5688 0.0638,-0.1808 0.1559,-0.3385 0.2764,-0.4732 0.1205,-0.1276 0.2729,-0.2304 0.4573,-0.3083 0.1842,-0.078 0.4004,-0.117 0.6486,-0.117 0.2339,0 0.4394,0.0372 0.6167,0.1116 0.1772,0.0745 0.3261,0.1719 0.4465,0.2925 0.2481,0.2622 0.3722,0.5848 0.3722,0.9675 0,0.3616 -0.1099,0.7018 -0.3296,1.0208 -0.2198,0.319 -0.4785,0.6132 -0.7762,0.8825 0.0709,0.0992 0.1435,0.2127 0.2179,0.3403 0.0745,0.1276 0.1578,0.2623 0.2499,0.404 0.1773,0.3048 0.3544,0.5848 0.5317,0.84l0.5848 -0.7974 0.6698 0.4678 -0.8081 1.0421 0.8188 1.2972 -1.0846 0zm-2.4136 -1.7439c0,0.2623 0.0762,0.4874 0.2285,0.6752 0.1525,0.1879 0.3456,0.2818 0.5796,0.2818 0.163,0 0.3189,-0.0514 0.4678,-0.1542 0.1489,-0.1028 0.2622,-0.2037 0.3403,-0.303l-1.0421 -1.6587c-0.163,0.163 -0.2994,0.3384 -0.4094,0.5263 -0.1098,0.1879 -0.1647,0.3987 -0.1647,0.6326zm0.3827 -3.6364c0,0.163 0.039,0.3385 0.117,0.5264 0.078,0.1878 0.1772,0.3774 0.2977,0.5688 0.0638,-0.0638 0.1347,-0.1365 0.2127,-0.218 0.0779,-0.0815 0.1488,-0.1719 0.2126,-0.2711 0.0638,-0.0992 0.117,-0.2073 0.1595,-0.3244 0.0426,-0.1169 0.0638,-0.2427 0.0638,-0.3774 0,-0.1347 -0.046,-0.2588 -0.1382,-0.3721 -0.0922,-0.1135 -0.2198,-0.1702 -0.3828,-0.1702 -0.163,0 -0.2942,0.0656 -0.3934,0.1967 -0.0993,0.1312 -0.1489,0.2783 -0.1489,0.4413zm7.5057 5.3803l0 -7.5707 1.6056 0c0.6238,0 1.097,0.1702 1.4195,0.5104 0.3225,0.3403 0.4838,0.8223 0.4838,1.4461l0 3.5407c0,0.7089 -0.1719,1.2317 -0.5157,1.5684 -0.3438,0.3367 -0.8383,0.5051 -1.4833,0.5051l-1.5099 0zm1.0846 -6.5499l0 5.5291 0.4997 0c0.3048,0 0.521,-0.0762 0.6487,-0.2286 0.1275,-0.1524 0.1913,-0.3917 0.1913,-0.7178l0 -3.647c0,-0.2977 -0.0602,-0.5281 -0.1808,-0.6912 -0.1205,-0.163 -0.3402,-0.2445 -0.6592,-0.2445l-0.4997 0zm5.0707 6.5499l0 -7.5707 3.2324 0 0 1.0208 -2.1478 0 0 2.2223 1.8714 0 0 1.0207 -1.8714 0 0 2.2223 2.1478 0 0 1.0846 -3.2324 0zm9.0049 -2.1585l0 0.4679c0,0.2339 -0.0443,0.4554 -0.1328,0.6645 -0.0887,0.2091 -0.2109,0.3952 -0.3669,0.5582 -0.156,0.163 -0.3385,0.2924 -0.5476,0.3881 -0.2091,0.0957 -0.4341,0.1436 -0.6752,0.1436 -0.2056,0 -0.4147,-0.0284 -0.6273,-0.0851 -0.2127,-0.0567 -0.4041,-0.156 -0.5742,-0.2977 -0.1701,-0.1418 -0.3102,-0.3243 -0.42,-0.5476 -0.1099,-0.2233 -0.1648,-0.5086 -0.1648,-0.8559l0 -4.1682c0,-0.2481 0.0425,-0.4785 0.1275,-0.6911 0.0852,-0.2127 0.2057,-0.397 0.3616,-0.5529 0.1559,-0.156 0.342,-0.2783 0.5582,-0.3669 0.2163,-0.0886 0.4555,-0.1329 0.7178,-0.1329 0.5103,0 0.925,0.1666 1.244,0.4998 0.156,0.163 0.2782,0.3562 0.3669,0.5794 0.0885,0.2233 0.1328,0.4661 0.1328,0.7284l0 0.4253 -1.0845 0 0 -0.3615c0,-0.2126 -0.0603,-0.397 -0.1808,-0.5529 -0.1205,-0.156 -0.2835,-0.2339 -0.4891,-0.2339 -0.2694,0 -0.4483,0.0833 -0.537,0.2498 -0.0885,0.1666 -0.1328,0.3775 -0.1328,0.6327l0 3.8704c0,0.2197 0.0478,0.4041 0.1435,0.5529 0.0957,0.1489 0.2676,0.2233 0.5157,0.2233 0.0708,0 0.1471,-0.0124 0.2286,-0.0372 0.0815,-0.0248 0.1577,-0.0656 0.2286,-0.1223 0.0638,-0.0567 0.117,-0.1347 0.1595,-0.2339 0.0425,-0.0993 0.0638,-0.2233 0.0638,-0.3721l0 -0.3722 1.0845 0zm2.4445 -3.6258c0,-0.3049 0.0531,-0.5742 0.1594,-0.8081 0.1064,-0.234 0.2481,-0.4289 0.4254,-0.5848 0.1701,-0.1489 0.3632,-0.2623 0.5794,-0.3403 0.2163,-0.078 0.4342,-0.117 0.654,-0.117 0.2197,0 0.4377,0.039 0.6539,0.117 0.2162,0.078 0.4129,0.1914 0.5901,0.3403 0.1701,0.1559 0.3084,0.3508 0.4147,0.5848 0.1063,0.2339 0.1595,0.5032 0.1595,0.8081l0 3.998c0,0.3189 -0.0532,0.5918 -0.1595,0.8187 -0.1063,0.2268 -0.2446,0.4147 -0.4147,0.5635 -0.1772,0.1559 -0.3739,0.2729 -0.5901,0.3509 -0.2162,0.078 -0.4342,0.117 -0.6539,0.117 -0.2198,0 -0.4377,-0.039 -0.654,-0.117 -0.2162,-0.078 -0.4093,-0.195 -0.5794,-0.3509 -0.1773,-0.1488 -0.319,-0.3367 -0.4254,-0.5635 -0.1063,-0.2269 -0.1594,-0.4998 -0.1594,-0.8187l0 -3.998zm1.0845 3.998c0,0.2622 0.0727,0.4554 0.218,0.5794 0.1453,0.1241 0.3172,0.1861 0.5157,0.1861 0.1985,0 0.3704,-0.062 0.5156,-0.1861 0.1454,-0.124 0.218,-0.3172 0.218,-0.5794l0 -3.998c0,-0.2623 -0.0726,-0.4555 -0.218,-0.5796 -0.1452,-0.124 -0.3171,-0.186 -0.5156,-0.186 -0.1985,0 -0.3704,0.062 -0.5157,0.186 -0.1453,0.1241 -0.218,0.3173 -0.218,0.5796l0 3.998zm6.2191 -4.7636l0 2.3605 0.6167 0c0.1914,0 0.3438,-0.0266 0.4572,-0.0797 0.1135,-0.0532 0.202,-0.1294 0.2658,-0.2287 0.0568,-0.0992 0.0957,-0.2215 0.117,-0.3668 0.0213,-0.1453 0.0319,-0.3137 0.0319,-0.5051 0,-0.1914 -0.0106,-0.3597 -0.0319,-0.505 -0.0213,-0.1453 -0.0638,-0.2712 -0.1276,-0.3775 -0.1346,-0.1985 -0.3898,-0.2977 -0.7656,-0.2977l-0.5635 0zm-1.0845 6.5499l0 -7.5707 1.7437 0c1.276,0 1.914,0.7408 1.914,2.2223 0,0.4466 -0.0691,0.8258 -0.2074,1.1377 -0.1382,0.3119 -0.381,0.5636 -0.7283,0.7549l1.1696 3.4558 -1.1484 0 -1.0101 -3.2325 -0.6486 0 0 3.2325 -1.0845 0zm8.3456 -2.6477l-0.5316 -2.7432 -0.0213 0 -0.5316 2.7432 1.0845 0zm-2.6795 2.6477l1.6907 -7.5707 0.9038 0 1.6906 7.5707 -1.0845 0 -0.3191 -1.6269 -1.4779 0 -0.319 1.6269 -1.0846 0zm6.57 0l0 -6.5499 -1.2547 0 0 -1.0208 3.594 0 0 1.0208 -1.2547 0 0 6.5499 -1.0846 0zm4.4753 0l0 -7.5707 1.0846 0 0 7.5707 -1.0846 0zm3.6991 -5.7843c0,-0.3049 0.0532,-0.5742 0.1595,-0.8081 0.1063,-0.234 0.2481,-0.4289 0.4253,-0.5848 0.1701,-0.1489 0.3633,-0.2623 0.5795,-0.3403 0.2162,-0.078 0.4342,-0.117 0.6539,-0.117 0.2198,0 0.4378,0.039 0.654,0.117 0.2162,0.078 0.4129,0.1914 0.5901,0.3403 0.1701,0.1559 0.3084,0.3508 0.4147,0.5848 0.1063,0.2339 0.1595,0.5032 0.1595,0.8081l0 3.998c0,0.3189 -0.0532,0.5918 -0.1595,0.8187 -0.1063,0.2268 -0.2446,0.4147 -0.4147,0.5635 -0.1772,0.1559 -0.3739,0.2729 -0.5901,0.3509 -0.2162,0.078 -0.4342,0.117 -0.654,0.117 -0.2197,0 -0.4377,-0.039 -0.6539,-0.117 -0.2162,-0.078 -0.4094,-0.195 -0.5795,-0.3509 -0.1772,-0.1488 -0.319,-0.3367 -0.4253,-0.5635 -0.1063,-0.2269 -0.1595,-0.4998 -0.1595,-0.8187l0 -3.998zm1.0846 3.998c0,0.2622 0.0726,0.4554 0.218,0.5794 0.1452,0.1241 0.3172,0.1861 0.5156,0.1861 0.1985,0 0.3704,-0.062 0.5157,-0.1861 0.1454,-0.124 0.218,-0.3172 0.218,-0.5794l0 -3.998c0,-0.2623 -0.0726,-0.4555 -0.218,-0.5796 -0.1453,-0.124 -0.3172,-0.186 -0.5157,-0.186 -0.1984,0 -0.3704,0.062 -0.5156,0.186 -0.1454,0.1241 -0.218,0.3173 -0.218,0.5796l0 3.998zm5.092 1.7863l0 -7.5707 1.042 0 1.6375 4.5615 0.0213 0 0 -4.5615 1.0845 0 0 7.5707 -1.0207 0 -1.6588 -4.5509 -0.0212 0 0 4.5509 -1.0846 0zm-94.4555 -13.8174l0 -36.6995 7.8863 0c1.4432,0 2.7147,0.189 3.8143,0.567 1.0996,0.378 2.0961,1.0481 2.9895,2.0102 0.8934,0.9622 1.512,2.0876 1.8556,3.3762 0.3437,1.2886 0.5155,3.0325 0.5155,5.2317 0,1.6494 -0.0945,3.0411 -0.2835,4.1751 -0.189,1.134 -0.5928,2.1992 -1.2113,3.1958 -0.7216,1.2027 -1.6838,2.139 -2.8865,2.8091 -1.2027,0.67 -2.7834,1.0051 -4.742,1.0051l-2.6804 0 0 14.3293 -5.2575 0zm5.2575 -31.7513l0 12.4737 2.5257 0c1.0653,0 1.89,-0.1546 2.4741,-0.4639 0.5842,-0.3092 1.0137,-0.7388 1.2887,-1.2885 0.2748,-0.5155 0.4381,-1.1512 0.4896,-1.9072 0.0515,-0.7559 0.0773,-1.5979 0.0773,-2.5256 0,-0.8591 -0.0172,-1.6752 -0.0515,-2.4484 -0.0344,-0.7731 -0.189,-1.4518 -0.4639,-2.036 -0.2749,-0.5841 -0.6873,-1.0309 -1.2371,-1.3401 -0.5498,-0.3093 -1.3401,-0.464 -2.371,-0.464l-2.7319 0zm22.8466 0l0 11.4429 2.9896 0c0.9278,0 1.6666,-0.1289 2.2163,-0.3866 0.5499,-0.2577 0.9794,-0.6271 1.2886,-1.1082 0.275,-0.4811 0.464,-1.0738 0.5671,-1.7783 0.103,-0.7044 0.1546,-1.5205 0.1546,-2.4483 0,-0.9278 -0.0516,-1.7439 -0.1546,-2.4484 -0.1031,-0.7044 -0.3093,-1.3144 -0.6186,-1.8298 -0.6529,-0.9621 -1.8899,-1.4433 -3.7112,-1.4433l-2.7318 0zm-5.2575 31.7513l0 -36.6995 8.4532 0c6.1854,0 9.278,3.5909 9.278,10.7728 0,2.1648 -0.335,4.0032 -1.0051,5.5152 -0.6701,1.5119 -1.847,2.7318 -3.5308,3.6596l5.6699 16.7519 -5.5668 0 -4.8967 -15.6695 -3.1442 0 0 15.6695 -5.2575 0zm23.9805 0l0 -36.6995 5.2575 0 0 36.6995 -5.2575 0zm12.0223 0l0 -36.6995 5.0513 0 7.9378 22.1125 0.1031 0 0 -22.1125 5.2575 0 0 36.6995 -4.9482 0 -8.0409 -22.0609 -0.1031 0 0 22.0609 -5.2575 0zm28.4134 0l0 -31.7513 -6.0823 0 0 -4.9482 17.422 0 0 4.9482 -6.0822 0 0 31.7513 -5.2575 0z"/>
 </g>
</svg>
