<?xml version="1.0" encoding="utf-8"?>
<!-- Generator: Adobe Illustrator 23.0.0, SVG Export Plug-In . SVG Version: 6.00 Build 0)  -->
<svg version="1.1" id="Audio_speaker" xmlns="http://www.w3.org/2000/svg" xmlns:xlink="http://www.w3.org/1999/xlink" x="0px"
	 y="0px" viewBox="0 0 100 100" style="enable-background:new 0 0 100 100;" xml:space="preserve">
<style type="text/css">
	.st0{enable-background:new    ;}
	.st1{fill:#FFFFFF;}
</style>
<g class="st0">
	<path class="st1" d="M24.8,56.2c0.2-0.1,0.4-0.1,0.5,0c0.2,0.1,0.3,0.2,0.3,0.4c0,0.2,0,0.3-0.2,0.4c-0.5,0.4-1.1,0.7-1.6,1
		c-0.6,0.3-1.2,0.6-1.9,0.9c-0.7,0.3-1.4,0.5-2,0.6c-0.6,0.1-1.3,0.2-2,0.2c-0.7,0-1.3-0.2-1.9-0.4c-0.5-0.2-0.9-0.5-1.3-0.9
		c-0.4-0.4-0.6-0.8-0.8-1.3c-0.2-0.5-0.3-1-0.4-1.5c-0.1-0.6-0.1-1.1-0.1-1.6c0-0.5,0.1-1,0.1-1.6c0.2-1.8,0.5-3.5,0.9-5.3
		c0.4-1.8,0.8-3.7,1.4-5.8c0.6-2.1,1.1-3.7,1.5-5c0.4-1.3,1-3.1,1.7-5.5c0.1-0.2,0.2-0.3,0.4-0.3c0.2,0,0.3,0,0.5,0.2
		c0.1,0.1,0.2,0.3,0.1,0.5c-2.2,6.9-3.7,12.6-4.7,17.3c0,0.2-0.1,0.6-0.3,1.3c-0.1,0.6-0.2,1.1-0.3,1.4c-0.1,0.3-0.1,0.8-0.2,1.4
		c-0.1,0.6-0.1,1.1-0.1,1.5s0,0.8,0.1,1.3c0.1,0.5,0.2,0.9,0.3,1.3c0.3,0.6,0.6,1.1,1.1,1.5c0.5,0.3,1,0.5,1.7,0.5
		c0.6,0,1.2,0,1.9-0.1c0.7-0.1,1.3-0.3,2-0.6c0.7-0.3,1.3-0.6,1.8-0.8C23.8,56.8,24.3,56.5,24.8,56.2z"/>
	<path class="st1" d="M29,46.4c0.1,0,0.3,0,0.4,0.1c0.1,0.1,0.2,0.2,0.2,0.3c0,0.1,0,0.3-0.1,0.4c-0.2,0.3-0.5,0.7-0.8,1
		c-0.3,0.4-0.7,0.8-1.3,1.4c-0.5,0.6-1.1,1-1.7,1.4c-0.6,0.3-1.1,0.5-1.6,0.5c-0.3,0-0.6-0.1-0.9-0.2c-0.3-0.2-0.5-0.6-0.6-1.1
		c-0.1-0.5,0-1.2,0.1-1.9c0.1-0.7,0.3-1.4,0.5-1.9c0.2-0.6,0.3-1.1,0.6-1.7c0-0.1,0.1-0.2,0.3-0.3c0.1-0.1,0.3-0.1,0.4,0
		c0.1,0,0.2,0.1,0.2,0.2c0.1,0.1,0.1,0.2,0.1,0.2c0,0.1,0,0.2,0,0.3c-0.3,0.9-0.6,1.7-0.8,2.5s-0.3,1.5-0.3,1.9c0,0.5,0,0.8,0.1,0.9
		c0.5,0.3,1.2,0,2.2-0.9c1-0.8,1.9-1.8,2.7-2.9C28.7,46.5,28.8,46.4,29,46.4z M24.1,42.7c-0.3,0-0.4-0.1-0.5-0.4
		c-0.1-0.1-0.1-0.3,0-0.4c0.1-0.1,0.2-0.2,0.3-0.3c0,0,0.1,0,0.1,0c0.1,0,0.1-0.1,0.2-0.1c0.1,0,0.1-0.1,0.2-0.1
		c0.1,0,0.2-0.1,0.3-0.1l0.4,1c-0.5,0.2-0.8,0.3-0.9,0.3C24.2,42.7,24.2,42.7,24.1,42.7z"/>
	<path class="st1" d="M46.7,39.1c0.1,0,0.3,0,0.4,0c0.1,0.1,0.2,0.2,0.3,0.3c0.1,0.1,0,0.2,0,0.4c-0.2,0.6-1,1-2.2,1.4
		c-1.2,0.4-2.8,0.5-4.7,0.3c-0.7-0.1-1.3-0.1-1.9-0.2c-0.7,1.4-1.5,2.8-2.2,4c-0.1,0.3-0.2,0.6-0.4,0.9c0,0.1,0,0.2,0,0.2
		c-0.2,1.2-0.3,2.5-0.2,3.8c0.1,1.3,0.3,2.1,0.6,2.4c0.1,0.1,0.3,0.2,0.4,0.2c0.3,0,0.6-0.2,1-0.6c0.4-0.3,0.6-0.7,0.8-1
		c0.1-0.1,0.2-0.2,0.3-0.2c0.1,0,0.3,0,0.4,0.1c0.1,0.1,0.2,0.2,0.2,0.3c0,0.1,0,0.3-0.1,0.4c-0.1,0.1-0.1,0.2-0.2,0.3
		c-0.1,0.1-0.2,0.2-0.4,0.5c-0.2,0.2-0.4,0.4-0.6,0.6c-0.2,0.2-0.4,0.3-0.7,0.5c-0.3,0.1-0.5,0.2-0.8,0.3c-0.1,0-0.1,0-0.2,0
		c-0.4,0-0.7-0.1-1-0.4c-0.5-0.4-0.8-1.1-0.9-2.2c-0.1-1.1-0.2-2.2-0.1-3.4c-0.6,0.6-1.5,1.2-2.5,1.9c0.4,1,0.3,1.9-0.2,2.7
		c-0.5,0.8-1.3,1.4-2.1,1.9c-0.9,0.5-1.7,0.7-2.3,0.7c-0.2,0-0.4,0-0.5-0.1c-0.6-0.1-0.9-0.5-1-1.1c0-0.3,0-0.6,0.2-0.9
		c0.1-0.3,0.3-0.6,0.5-0.8c0.2-0.2,0.5-0.5,0.9-0.8c0.4-0.3,0.8-0.5,1.1-0.7c0.3-0.2,0.7-0.4,1.3-0.8c0.5-0.3,0.8-0.4,0.9-0.5
		c-0.2-0.4-0.6-0.9-1.1-1.5c-0.3-0.3-0.4-0.6-0.6-0.7c-0.1-0.2-0.2-0.4-0.4-0.6c-0.1-0.2-0.2-0.4-0.2-0.6c0-0.4,0-0.8,0.2-1.2
		c0.1-0.4,0.4-0.7,0.6-1c0.3-0.3,0.5-0.5,0.8-0.7c0.3-0.2,0.6-0.4,0.9-0.5c0.3-0.1,0.5-0.2,0.7-0.3s0.2-0.1,0.3-0.1
		c0.1,0,0.3,0,0.4,0c0.1,0.1,0.2,0.2,0.2,0.3c0,0.1,0,0.3-0.1,0.4c-0.1,0.1-0.2,0.2-0.3,0.3c-0.1,0-0.2,0-0.3,0.1
		c-0.1,0-0.4,0.1-0.7,0.3c-0.3,0.1-0.6,0.3-0.8,0.5c-0.2,0.2-0.5,0.4-0.6,0.8c-0.2,0.3-0.3,0.6-0.2,1c0,0.2,0.3,0.6,0.9,1.4
		c0.5,0.7,0.9,1.2,1.1,1.6c1.6-1,2.7-1.9,3.3-2.9c0.3-1.5,0.7-3.1,1.1-4.6c-0.8,0-1.6,0-2.3-0.1c-0.7,0-1.3,0-1.7,0
		c-0.5,0-0.9,0.1-1.2,0.1c-0.3,0-0.6,0.1-0.8,0.1c-0.2,0.1-0.4,0.1-0.5,0.2c-0.1,0-0.2,0.1-0.3,0.1c-0.1,0.1-0.2,0.2-0.4,0.2
		c-0.1,0-0.3-0.1-0.4-0.2c-0.1-0.1-0.1-0.2-0.1-0.4c0-0.1,0.1-0.3,0.2-0.4c0.8-0.8,3.4-1,7.8-0.8c1.3-4.5,2.4-7.1,3.5-7.8
		c0.3-0.2,0.6-0.3,0.9-0.2c0.3,0.1,0.6,0.3,0.7,0.6c0.4,0.9-0.3,3.4-2.3,7.2c0,0.1-0.1,0.2-0.2,0.4c0.5,0,1,0.1,1.5,0.1
		c0.8,0.1,1.5,0.1,2.1,0c0.6,0,1.1-0.1,1.6-0.2c0.5-0.1,0.8-0.2,1.2-0.3c0.3-0.1,0.5-0.3,0.7-0.4c0.2-0.1,0.3-0.2,0.3-0.3
		C46.5,39.3,46.6,39.2,46.7,39.1z M31.1,51.7c0.3-0.4,0.3-0.9,0.2-1.5c-0.3,0.2-0.6,0.3-0.8,0.5c-0.4,0.2-0.7,0.4-0.9,0.5
		c-0.2,0.1-0.5,0.3-0.8,0.5c-0.3,0.2-0.6,0.4-0.8,0.5c-0.2,0.1-0.3,0.3-0.5,0.5c-0.2,0.2-0.3,0.3-0.4,0.5C27,53.4,27,53.6,27,53.7
		c0,0.1,0.1,0.2,0.2,0.2c0.4,0.1,1.1,0,1.9-0.5C29.9,53.1,30.6,52.5,31.1,51.7z M36.8,42.4c0.2-0.3,0.4-0.7,0.6-1.1
		c-0.1,0-0.2,0-0.3,0C37,41.7,36.9,42.1,36.8,42.4z M40.4,33.3c-0.8,0.5-1.8,2.8-3,7c0.1,0,0.3,0,0.5,0c0.6-1.2,1.1-2.3,1.6-3.3
		c0.4-1,0.7-1.8,0.9-2.5C40.6,33.8,40.6,33.4,40.4,33.3C40.5,33.2,40.5,33.2,40.4,33.3z"/>
	<path class="st1" d="M46.5,47.3c0.1,0,0.3,0,0.4,0.1c0.1,0.1,0.2,0.2,0.2,0.4c0,0.1,0,0.3-0.1,0.4c-0.2,0.2-0.5,0.5-0.8,0.8
		c-0.3,0.3-0.8,0.7-1.4,1.2c-0.6,0.5-1.2,0.9-1.9,1.2c-0.7,0.3-1.3,0.5-1.8,0.5s-1-0.2-1.4-0.5c-0.4-0.4-0.6-0.9-0.7-1.5
		c-0.1-0.6-0.1-1.2,0.1-1.8c0.2-0.6,0.4-1.2,0.7-1.9c0.4-0.8,0.9-1.4,1.5-1.9s1.2-0.7,1.8-0.5c0.6,0.2,0.9,0.5,1,0.9
		c0,0.3-0.1,0.7-0.4,1.1c-0.3,0.4-0.7,0.8-1.2,1.2c-0.5,0.4-0.9,0.8-1.4,1c-0.4,0.3-0.8,0.6-1.3,0.9c-0.1,0.8,0.1,1.3,0.4,1.6
		c0.2,0.2,0.5,0.3,0.9,0.2c0.4-0.1,0.8-0.2,1.2-0.4c0.4-0.2,0.9-0.5,1.4-0.8c0.5-0.3,0.9-0.7,1.3-1c0.4-0.3,0.7-0.7,1-1
		C46.3,47.4,46.4,47.3,46.5,47.3z M40.7,46.7c-0.1,0.2-0.3,0.5-0.4,0.7c0.8-0.5,1.4-1.1,2-1.5s0.8-0.8,0.8-1c0,0-0.1,0-0.2-0.1
		c0,0-0.1,0-0.1,0c-0.3,0-0.6,0.2-1,0.5C41.3,45.6,41,46.1,40.7,46.7z"/>
	<path class="st1" d="M53.8,50.3c0.1,0,0.3,0,0.4,0.2c0.1,0.1,0.1,0.2,0.1,0.4s-0.1,0.3-0.2,0.4c-0.5,0.5-1,0.7-1.5,0.7
		c-0.3,0-0.5-0.1-0.7-0.2c-0.2-0.1-0.4-0.4-0.5-0.7c-0.1-0.3-0.2-0.6-0.2-0.9c0-0.3-0.1-0.7-0.1-1.2c-0.1-1-0.2-1.5-0.3-1.7
		c-0.4,0.1-1.2,1-2.7,2.8c-0.5,0.6-0.9,1.1-1.2,1.4s-0.5,0.4-0.6,0.5c-0.2,0.1-0.3,0.1-0.5-0.1c-0.2-0.1-0.2-0.3-0.2-0.5
		c0.1-0.9,0.6-3.3,1.6-7.1c0-0.1,0.1-0.2,0.2-0.3c0.1-0.1,0.2-0.1,0.4-0.1c0.1,0,0.2,0.1,0.3,0.2c0.1,0.1,0.1,0.3,0.1,0.4
		c-0.5,1.8-0.9,3.6-1.3,5.4c0.1-0.1,0.2-0.3,0.4-0.5c1-1.2,1.7-2,2.3-2.5c0.5-0.5,1-0.7,1.4-0.6c0.2,0,0.4,0.1,0.5,0.2
		c0.1,0.1,0.2,0.3,0.3,0.6c0.1,0.3,0.1,0.6,0.2,0.8c0,0.2,0.1,0.6,0.1,1c0.1,1.3,0.3,2,0.4,2.1c0.1,0.1,0.2,0,0.4-0.1
		c0.2-0.1,0.4-0.2,0.5-0.3C53.6,50.4,53.7,50.3,53.8,50.3z"/>
	<path class="st1" d="M66.9,50.3c0.1,0,0.3,0,0.4,0.2c0.1,0.1,0.1,0.2,0.1,0.4s-0.1,0.3-0.2,0.4c-0.5,0.5-1,0.7-1.5,0.7
		c-0.3,0-0.5-0.1-0.7-0.2c-0.2-0.1-0.4-0.4-0.5-0.7c-0.1-0.3-0.2-0.6-0.2-0.9c0-0.3-0.1-0.7-0.1-1.2c-0.1-1-0.2-1.5-0.3-1.7
		c-0.4,0.1-1.2,1-2.7,2.8c-0.5,0.6-0.9,1.1-1.1,1.4c-0.3,0.3-0.5,0.4-0.6,0.5c-0.2,0.1-0.3,0.1-0.5-0.1c-0.2-0.1-0.2-0.3-0.2-0.5
		c0.1-0.9,0.6-3.3,1.6-7.1c0-0.1,0.1-0.2,0.2-0.3c0.1-0.1,0.2-0.1,0.4-0.1c0.1,0,0.2,0.1,0.3,0.2c0.1,0.1,0.1,0.3,0.1,0.4
		c-0.5,1.8-0.9,3.6-1.3,5.4c0.1-0.1,0.2-0.3,0.4-0.5c1-1.2,1.7-2,2.3-2.5c0.5-0.5,1-0.7,1.4-0.6c0.2,0,0.4,0.1,0.5,0.2
		c0.1,0.1,0.2,0.3,0.3,0.6c0.1,0.3,0.1,0.6,0.2,0.8c0,0.2,0.1,0.6,0.1,1c0.1,1.3,0.3,2,0.4,2.1c0.1,0.1,0.2,0,0.4-0.1
		c0.2-0.1,0.4-0.2,0.5-0.3C66.7,50.4,66.8,50.3,66.9,50.3z"/>
	<path class="st1" d="M74.1,44.4c0.1,0,0.3,0.1,0.3,0.2c0.1,0.1,0.1,0.2,0.1,0.4c0,0.1-0.1,0.3-0.2,0.3c-0.9,0.7-2,0.9-3.3,0.6
		c0.1,0.5,0,1.2-0.1,2.2c-0.1,0.4-0.3,1-0.6,1.7c-0.3,0.7-0.7,1.2-1.2,1.5c-0.3,0.2-0.6,0.3-0.9,0.3c-0.2,0-0.3,0-0.5-0.1
		c-1-0.4-1.4-1.5-1.2-3.3c0-0.1,0-0.2,0-0.2c0-0.4,0.2-0.9,0.5-1.5s0.6-1,1.1-1.4c0.5-0.4,1-0.6,1.5-0.6c0.4,0,0.6,0.1,0.9,0.4
		c1.4,0.5,2.4,0.5,3.2-0.2C73.8,44.4,73.9,44.4,74.1,44.4z M69.9,48c0.2-1.3,0.1-2.1,0-2.4c-0.1,0-0.3-0.1-0.4-0.2
		c-0.4,0.1-0.8,0.4-1.2,1c-0.4,0.6-0.6,1.1-0.7,1.6c0,0,0,0.1,0,0.2c-0.1,0.5-0.1,0.9,0,1.4c0.1,0.5,0.2,0.7,0.5,0.9
		c0.2,0.1,0.3,0,0.5-0.1c0.2-0.1,0.4-0.4,0.6-0.7c0.2-0.3,0.4-0.7,0.5-1C69.8,48.4,69.9,48.1,69.9,48z"/>
	<path class="st1" d="M83,44.8c0.1,0,0.3,0.1,0.4,0.2c0.1,0.1,0.1,0.2,0.1,0.4c-0.1,0.6-0.5,1.6-1.4,2.8c-0.8,1.3-1.6,2.1-2.3,2.4
		c-0.5,0.2-0.9,0.2-1.3,0c-0.7-0.5-1-1.6-0.8-3.3c-1.2,1.6-2.2,2.7-2.9,3.4s-1.4,1-1.8,1c-0.1,0-0.3,0-0.4-0.1
		c-0.3-0.2-0.5-0.6-0.5-1.2c0-0.6,0.1-1.2,0.3-2c0.2-0.8,0.5-1.5,0.8-2.2s0.6-1.4,0.9-2.1c0.1-0.1,0.2-0.2,0.3-0.3
		c0.1,0,0.3,0,0.4,0c0.1,0.1,0.2,0.2,0.3,0.3s0,0.3,0,0.4c-0.6,1.4-1.2,2.7-1.5,3.9c-0.4,1.2-0.5,2-0.3,2.2c0.4-0.1,1-0.7,2.1-1.9
		c1-1.2,2.1-2.6,3.1-4.2c0.2-0.2,0.4-0.3,0.6-0.2c0.1,0,0.2,0.1,0.3,0.2c0.1,0.1,0.1,0.2,0,0.4c-0.2,0.6-0.3,1.2-0.4,1.9
		c-0.1,0.7-0.2,1.3-0.1,1.8c0,0.5,0.1,0.9,0.3,1c0.1,0,0.2,0,0.3,0c0.6-0.3,1.2-1,1.9-2.1c0.7-1.1,1.1-1.9,1.2-2.3
		c0-0.1,0.1-0.3,0.2-0.4C82.8,44.8,82.9,44.8,83,44.8z"/>
	<path class="st1" d="M85.8,52.2c0.1-0.1,0.2-0.1,0.4-0.1c0.1,0,0.3,0.1,0.4,0.2c0.2,0.3,0.2,0.5-0.1,0.7l-0.6,0.6
		c-0.1,0.1-0.2,0.1-0.4,0.1c-0.1,0-0.3-0.1-0.4-0.2c-0.2-0.2-0.2-0.5,0.1-0.7L85.8,52.2z M89.6,31.1c0.1-0.2,0.3-0.2,0.5-0.2
		c0.2,0,0.3,0.1,0.4,0.3c0.1,0.2,0,0.3-0.1,0.5c-0.2,0.3-0.4,0.6-0.6,1.1c-0.2,0.4-0.3,0.8-0.4,1c-0.1,0.2-0.2,0.7-0.4,1.3
		c-0.2,0.7-0.3,1-0.3,1c-0.4,1.5-0.8,3.1-1.1,4.6c-0.5,2.8-0.8,5.7-0.8,8.8c0,0.2-0.1,0.3-0.3,0.4c-0.2,0.1-0.3,0-0.5-0.1
		c-0.2-0.1-0.3-0.3-0.3-0.5c0.1-3.5,0.4-6.8,1.1-10.1c0.3-1.4,0.7-2.9,1.1-4.2c0-0.1,0.1-0.4,0.2-0.8c0.1-0.4,0.2-0.7,0.3-0.9
		c0.1-0.2,0.2-0.4,0.3-0.8c0.1-0.3,0.3-0.6,0.4-0.9C89.3,31.5,89.5,31.3,89.6,31.1z"/>
</g>
</svg>
