<?xml version="1.0" encoding="utf-8"?>
<!-- Generator: Adobe Illustrator 23.0.0, SVG Export Plug-In . SVG Version: 6.00 Build 0)  -->
<svg version="1.1" id="Layer_1" xmlns="http://www.w3.org/2000/svg" xmlns:xlink="http://www.w3.org/1999/xlink" x="0px" y="0px"
	 viewBox="0 0 595.3 841.9" style="enable-background:new 0 0 595.3 841.9;" xml:space="preserve">
<style type="text/css">
	.st0{fill-rule:evenodd;clip-rule:evenodd;fill:#FFFFFF;}
	.st1{fill-rule:evenodd;clip-rule:evenodd;fill:#2A2A2A;}
	.st2{fill-rule:evenodd;clip-rule:evenodd;fill:#FFC82F;}
</style>
<polygon class="st0" points="173.3,504.6 151.6,504.6 145.2,504.6 145.2,511 145.2,515.6 145.2,522.1 145.2,532.9 151.6,532.9 
	151.6,522.1 173.3,522.1 173.3,515.6 151.6,515.6 151.6,511 173.3,511 "/>
<polygon class="st0" points="388.8,526.5 367.1,526.5 367.1,522.1 388.8,522.1 388.8,515.6 367.1,515.6 367.1,511 388.8,511 
	388.8,504.6 367.1,504.6 360.7,504.6 360.7,511 360.7,515.6 360.7,522.1 360.7,526.5 360.7,532.9 367.1,532.9 388.8,532.9 "/>
<polygon class="st0" points="550,526.5 528.3,526.5 528.3,511 550,511 550,504.6 528.3,504.6 521.9,504.6 521.9,511 521.9,526.5 
	521.9,532.9 528.3,532.9 550,532.9 "/>
<rect x="511.3" y="504.7" class="st0" width="6.4" height="28.2"/>
<polygon class="st0" points="478.1,511 478.1,515.6 478.1,519.8 478.1,522.1 499.9,522.1 499.9,526.5 478.1,526.5 478.1,532.9 
	499.9,532.9 506.3,532.9 506.3,526.5 506.3,522.1 506.3,517.3 506.3,515.6 484.5,515.6 484.5,511 506.3,511 506.3,504.6 
	484.5,504.6 478.1,504.6 478.1,511 "/>
<polygon class="st0" points="467.1,504.7 467.1,526.4 451.7,526.4 451.7,504.7 445.3,504.7 445.3,526.4 445.3,532.8 451.7,532.8 
	467.1,532.8 473.5,532.8 473.5,526.4 473.5,504.7 "/>
<polygon class="st0" points="434.5,511.1 434.5,532.8 440.9,532.8 440.9,511.1 440.9,504.7 434.5,504.7 430.1,504.7 423.7,504.7 
	419.1,504.7 412.7,504.7 412.7,511.1 412.7,532.8 419.1,532.8 419.1,511.1 423.7,511.1 423.7,532.8 430.1,532.8 430.1,511.1 "/>
<polygon class="st0" points="355.9,504.6 349.5,504.6 349.5,515.6 334.2,515.6 334.2,504.6 327.8,504.6 327.8,515.6 327.8,522 
	327.8,532.9 334.2,532.9 334.2,522 349.5,522 349.5,532.9 355.9,532.9 355.9,522 355.9,515.6 "/>
<polygon class="st0" points="323.2,504.6 312.3,504.6 305.9,504.6 295,504.6 295,511 305.9,511 305.9,532.9 312.3,532.9 312.3,511 
	323.2,511 "/>
<polygon class="st0" points="271.2,526.5 249.5,526.5 249.5,504.6 243.1,504.6 243.1,526.5 243.1,532.9 249.5,532.9 271.2,532.9 "/>
<polygon class="st0" points="238.4,526.5 216.7,526.5 216.7,522.1 238.4,522.1 238.4,515.6 216.7,515.6 216.7,511 238.4,511 
	238.4,504.6 216.7,504.6 210.3,504.6 210.3,511 210.3,515.6 210.3,522.1 210.3,526.5 210.3,532.9 216.7,532.9 238.4,532.9 
	238.4,526.5 "/>
<polygon class="st0" points="205.8,526.5 184.1,526.5 184.1,522.1 205.8,522.1 205.8,515.6 184.1,515.6 184.1,511 205.8,511 
	205.8,504.6 184.1,504.6 177.7,504.6 177.7,511 177.7,515.6 177.7,522.1 177.7,526.5 177.7,532.9 184.1,532.9 205.8,532.9 "/>
<polygon class="st1" points="45.9,305.6 396.6,305.6 414.1,326.7 414.1,385.7 531,385.7 548.6,406.7 548.6,495.1 143.1,495.1 
	125.5,474 125.5,415 63.5,415 45.9,394 45.9,305.6 "/>
<path class="st0" d="M524.1,394.7h-54.6h-16.1v16.1v11.5v16.1v11.1v16.1h16.1h54.6v-16.1h-54.6v-11.1h54.6v-16.1h-54.6v-11.5h54.6
	V394.7z M188.8,438.4v11.1h-54.6v16.1h54.6h16.1v-16.1v-11.1v-11.2v-4.8h-54.6v-11.5h54.6v-16.1h-54.6h-16.1v16.1v11.5v12.6v3.5
	L188.8,438.4L188.8,438.4z M284.4,449.5h-54.6v-11.1h54.6v-16.1h-54.6v-11.5h54.6v-16.1h-54.6h-16.1v16.1v11.5v16.1v11.1v16.1h16.1
	h54.6V449.5z M347.4,465.4l-37.3-46.1h-0.1v46.3H294v-46.3v-24.6h16.1h1.3l37.5,46.3v-46.3h16.1V441v24.6h-16.1h-1.3v-1.4
	L347.4,465.4L347.4,465.4z M428.6,438.4v11.1H374v16.1h54.6h16.1v-16.1v-11.1v-11.2v-4.8h-54.6v-11.5h54.6v-16.1h-54.6H374v16.1
	v11.5v12.6v3.5L428.6,438.4L428.6,438.4z"/>
<path class="st2" d="M204.9,314h-16.1h-38.5h-16.1v16.1v11.5v16.1v27.2h16.1v-27.2h38.5v27.2h16.1v-27.2v-16.1v-11.5V314L204.9,314z
	 M108.9,330.1v11.5H70.4v-11.5H108.9z M125,341.6v-11.5V314h-16.1H70.4H54.4v16.1v11.5v16.1v27.2h16.1v-27.2h11.7l21.6,27.2H125
	l-21.6-27.2H125v-6.5V341.6z M188.8,341.6h-38.5v-11.5h38.5V341.6z M372.8,330.1v38.7h-38.5v-38.7H372.8z M388.9,368.8v-38.7V314
	h-16.1h-38.5h-16.1v16.1v38.7v16.1h16.1h38.5h16.1V368.8z M309.8,314h-16.1v70.9h16.1V314L309.8,314z M270.5,314h-41.1h-16.1v16.1
	v38.7v16.1h16.1h38.5H284v-16.1v-38.7L270.5,314z M267.9,368.8h-38.5v-38.7h38.5V368.8z"/>
</svg>
