<?xml version="1.0" encoding="UTF-8"?>
<!DOCTYPE svg PUBLIC "-//W3C//DTD SVG 1.1//EN" "http://www.w3.org/Graphics/SVG/1.1/DTD/svg11.dtd">
<!-- Creator: CorelDRAW -->
<svg xmlns="http://www.w3.org/2000/svg" xml:space="preserve" width="210mm" height="297mm" style="shape-rendering:geometricPrecision; text-rendering:geometricPrecision; image-rendering:optimizeQuality; fill-rule:evenodd; clip-rule:evenodd"
viewBox="0 0 210 297">
 <defs>
  <style type="text/css">
   <![CDATA[
    .fil1 {fill:#2A2A2A}
    .fil0 {fill:white}
   ]]>
  </style>
 </defs>
 <g id="Layer_x0020_1">
  <metadata id="CorelCorpID_0Corel-Layer"/>
  <path class="fil0" d="M172.5 148.5c0,8.2843 -6.7157,15 -14.9999,15l-0.0003 0c-8.284,0 -14.9993,-6.7155 -14.9993,-14.9996l0 -0.0004c0,-8.2842 6.7155,-15 14.9998,-15l0.0002 0c8.284,0 14.9995,6.7158 14.9995,14.9996l0 0.0004z"/>
  <path class="fil0" d="M137.5 148.5c0,8.2843 -6.7157,15 -14.9999,15l-0.0003 0c-8.284,0 -14.9993,-6.7155 -14.9993,-14.9996l0 -0.0004c0,-8.2842 6.7155,-15 14.9998,-15l0.0002 0c8.284,0 14.9995,6.7158 14.9995,14.9996l0 0.0004z"/>
  <path class="fil0" d="M67.4991 148.5c0,8.2843 -6.7156,15 -15,15 -8.284,0 -14.9995,-6.7155 -14.9995,-14.9995l0 -0.0005c0,-8.2842 6.7157,-15 14.9999,-15 8.284,0 14.9996,6.7156 14.9996,14.9996l0 0.0004z"/>
  <path class="fil0" d="M102.5 148.5c0,8.2845 -6.7158,15.0001 -15.0001,15.0001 -8.284,0 -14.9996,-6.7153 -14.9996,-14.9996l0 -0.0005c0,-8.2841 6.7156,-14.9999 14.9996,-14.9999l0.0005 0c8.284,0 14.9996,6.7156 14.9996,14.9997l0 0.0002z"/>
  <path class="fil1" d="M152.13 139.998c1.461,0.0656 2.853,0.461 4.2338,0.8996 1.521,0.4832 2.966,1.1331 4.3039,2.0122 1.859,1.2216 3.1097,2.9308 3.9844,4.9437 0.7647,1.7598 1.2482,3.597 1.4768,5.4994 0.0513,0.4268 0.0361,0.8637 0.0247,1.2952 -0.0092,0.3467 -0.1831,0.6191 -0.4831,0.7989 -0.4212,0.2524 -0.8728,0.4114 -1.3704,0.4045 -0.4439,-0.0062 -0.6342,-0.1981 -0.6533,-0.6351 -0.1251,-2.8517 -0.9457,-5.4651 -2.7015,-7.7442 -1.4154,-1.8373 -3.2753,-3.0771 -5.414,-3.9199 -1.4719,-0.58 -2.992,-0.9596 -4.5786,-1.0423 -0.2145,-0.0112 -0.3503,-0.1365 -0.4345,-0.3255 -0.2161,-0.4846 -0.0305,-1.5578 0.3687,-1.8997 0.1662,-0.1425 0.4027,-0.2266 0.6212,-0.2772 0.1975,-0.0457 0.4139,-0.0096 0.6219,-0.0096z"/>
  <path class="fil1" d="M151.283 145.205c2.3633,0.3396 4.6009,1.0004 6.5143,2.4991 0.9178,0.7189 1.5614,1.6572 2.0473,2.7045 0.6821,1.4704 1.118,3.0087 1.2027,4.6345 0.0411,0.7899 -0.1766,1.0646 -0.9497,1.2385 -0.1203,0.0271 -0.2479,0.0375 -0.3712,0.0325 -0.3139,-0.0128 -0.4253,-0.1376 -0.4381,-0.4513 -0.0609,-1.4945 -0.4166,-2.9122 -1.125,-4.2337 -1.119,-2.0875 -2.8928,-3.3724 -5.0943,-4.1211 -0.8459,-0.2876 -1.7129,-0.4875 -2.61,-0.5272 -0.2397,-0.0106 -0.3678,-0.1431 -0.408,-0.3633 -0.0701,-0.3835 0.0064,-0.747 0.1973,-1.0824 0.1314,-0.231 0.3571,-0.3151 0.6105,-0.3287 0.141,-0.0076 0.2828,-0.0014 0.4242,-0.0014z"/>
  <path class="fil1" d="M130.699 145.332c0,-1.3543 -1.0969,-2.4519 -2.451,-2.4519l-11.4959 0c-1.3543,0 -2.4512,1.0976 -2.4512,2.4519l0 6.5744c0,1.3541 1.0969,2.4519 2.4512,2.4519l11.4959 0c1.3541,0 2.451,-1.0978 2.451,-2.4519l0 -6.5744zm-9.8388 6.061l0 -6.1748 4.6832 3.0868 -4.6832 3.088z"/>
  <path class="fil1" d="M56.0504 148.505l-2.3223 0 0 8.2825 -3.4431 0 0 -8.2825 -1.6372 0 0 -2.926 1.6372 0 0 -1.8931c0,-1.3539 0.6431,-3.4742 3.4735,-3.4742l2.5503 0.0109 0 2.8399 -1.8502 0c-0.3039,0 -0.7305,0.1518 -0.7305,0.7975l0 1.7219 2.6229 0 -0.3006 2.9231z"/>
  <path class="fil1" d="M91.4029 139.304l-7.8067 0c-2.9181,0 -5.2921,2.3742 -5.2921,5.2922l0 7.8068c0,2.9182 2.374,5.2922 5.2921,5.2922l7.8067 0c2.9181,0 5.2923,-2.374 5.2923,-5.2922l0 -7.8068c0,-2.918 -2.3742,-5.2922 -5.2923,-5.2922zm3.4706 5.2922l0 7.8068c0,1.9137 -1.5569,3.4706 -3.4706,3.4706l-7.8067 0c-1.9137,0 -3.4706,-1.5569 -3.4706,-3.4706l0 -7.8068c0,-1.9137 1.5569,-3.4705 3.4706,-3.4705l7.8067 0c1.9137,0 3.4706,1.5568 3.4706,3.4705zm-7.3738 -0.871c-2.6327,0 -4.7746,2.1417 -4.7746,4.7744 0,2.6327 2.1419,4.7746 4.7746,4.7746 2.6326,0 4.7743,-2.1419 4.7743,-4.7746 0,-2.6327 -2.1417,-4.7744 -4.7743,-4.7744zm2.9526 4.7744c0,1.6281 -1.3245,2.9527 -2.9526,2.9527 -1.6282,0 -2.9529,-1.3246 -2.9529,-2.9527 0,-1.6281 1.3247,-2.9529 2.9529,-2.9529 1.6281,0 2.9526,1.3248 2.9526,2.9529zm1.8866 -6.1554c-0.6889,0 -1.2496,0.5606 -1.2496,1.2498 0,0.6887 0.5607,1.2491 1.2496,1.2491 0.6889,0 1.2493,-0.5604 1.2493,-1.2491 0,-0.6892 -0.5604,-1.2498 -1.2493,-1.2498z"/>
 </g>
</svg>
